<svg xmlns="http://www.w3.org/2000/svg" viewBox="0 0 500 500"><g id="freepik--Background--inject-136"><g id="freepik--background--inject-136"><path d="M391,36.82C358.46,22.42,326,16,290.75,22.29c-32.69,5.83-59.18,21.38-82.58,45-32.5,32.83-42.2,63.14-73.12,98.5-25.3,28.93-58.49,54.78-79.82,86.75C37,279.91,29.44,311.21,30.52,347a118,118,0,0,0,32.82,78.27c29.45,30.65,68.51,44.57,109.13,49.26,54,6.23,118.66-12.59,158.42-32.83,127.94-65.16,152-158.41,148.54-253.56C476.26,100.14,430.62,54.4,391,36.82Z" style="fill:#37474f"></path><path d="M395.84,415c15.8-11.38,20.06-19.25,25.3-24.94s8.23,3.2,2,16.69-16.89,24.4-37.51,27.18c-14.55,2-20-1.95-10.4-6.63A122.16,122.16,0,0,0,395.84,415Z" style="fill:#37474f"></path></g></g><g id="freepik--Shadow--inject-136"><path id="freepik--shadow--inject-136" d="M88.84,396.07l107,61.77a9.79,9.79,0,0,0,8.82,0L406.09,341.53c2.43-1.41,2.43-3.69,0-5.1l-107-61.76a9.7,9.7,0,0,0-8.81,0L88.84,391C86.41,392.39,86.41,394.67,88.84,396.07Z" style="fill:#263238"></path></g><g id="freepik--Character--inject-136"><path d="M191.89,427.81H178.35L180.51,441h0a2.47,2.47,0,0,0,1.31,1.63,7.27,7.27,0,0,0,6.55,0A2.44,2.44,0,0,0,189.7,441h0Z" style="fill:#455a64"></path><ellipse cx="185.12" cy="427.45" rx="6.8" ry="3.92" style="fill:#fafafa"></ellipse><path d="M123,387.74H109.47L111.64,401h0a2.4,2.4,0,0,0,1.31,1.63,7.2,7.2,0,0,0,6.55,0,2.4,2.4,0,0,0,1.31-1.63h0Z" style="fill:#455a64"></path><path d="M111.44,384.61c-2.66,1.54-2.66,4,0,5.55a10.57,10.57,0,0,0,9.61,0c2.66-1.53,2.66-4,0-5.55A10.63,10.63,0,0,0,111.44,384.61Z" style="fill:#fafafa"></path><path d="M388.22,328.46H374.68l2.17,13.21h0a2.42,2.42,0,0,0,1.31,1.63,7.27,7.27,0,0,0,6.55,0,2.42,2.42,0,0,0,1.31-1.63h0Z" style="fill:#455a64"></path><path d="M376.65,325.33c-2.66,1.54-2.66,4,0,5.55a10.57,10.57,0,0,0,9.61,0c2.65-1.53,2.65-4,0-5.55A10.63,10.63,0,0,0,376.65,325.33Z" style="fill:#fafafa"></path><path d="M319.35,288.4H305.81L308,301.61h0a2.49,2.49,0,0,0,1.32,1.63,7.24,7.24,0,0,0,6.54,0,2.46,2.46,0,0,0,1.32-1.63h0Z" style="fill:#fafafa"></path><path d="M307.77,285.27c-2.65,1.53-2.65,4,0,5.55a10.65,10.65,0,0,0,9.62,0c2.65-1.53,2.65-4,0-5.55A10.65,10.65,0,0,0,307.77,285.27Z" style="fill:#fafafa"></path><path d="M399,259.06v63.06a14.55,14.55,0,0,1-6.57,11.37l-5.35,3.1-.09,0a14.8,14.8,0,0,1-8.2,1.41L216,428.29a14.69,14.69,0,0,1-6.49,10.92l-.06,0-5.34,3.08a3,3,0,0,1-.5.26,1.66,1.66,0,0,1-.27.13l-.08,0a15,15,0,0,1-10.19.47,9.15,9.15,0,0,1-1.14-.42l-.18-.08a7.91,7.91,0,0,1-.77-.39L105.54,393A14.52,14.52,0,0,1,99,381.64l0-105.75a14.58,14.58,0,0,1,6.57-11.37L293.91,155.69a14.53,14.53,0,0,1,13.13,0l5.35,3.08A17.45,17.45,0,0,1,320,170.08l5.15,38.71,67.35,38.9A14.55,14.55,0,0,1,399,259.06Z" style="fill:#BA68C8"></path><path d="M399,259.06v63.06a14.55,14.55,0,0,1-6.57,11.37l-5.35,3.1-.09,0a14.8,14.8,0,0,1-8.2,1.41L216,428.29a14.69,14.69,0,0,1-6.49,10.92l-.06,0-5.34,3.08a3,3,0,0,1-.5.26,1.66,1.66,0,0,1-.27.13l-.08,0a15,15,0,0,1-10.19.47,9.15,9.15,0,0,1-1.14-.42l-.18-.08a7.91,7.91,0,0,1-.77-.39L105.54,393A14.52,14.52,0,0,1,99,381.64l0-105.75a14.58,14.58,0,0,1,6.57-11.37L293.91,155.69a14.53,14.53,0,0,1,13.13,0l5.35,3.08A17.45,17.45,0,0,1,320,170.08l5.15,38.71,67.35,38.9A14.55,14.55,0,0,1,399,259.06Z" style="opacity:0.35000000000000003"></path><path d="M312.39,158.78,307,155.69a14.53,14.53,0,0,0-13.13,0L105.53,264.52c-.39.22-.81.52-.68.42A15.08,15.08,0,0,0,99,274.78c.49-3.35,3.21-4.56,6.49-2.68l5.35,3.09a14.55,14.55,0,0,0,13.14,0L312.39,166.36C316,164.27,316,160.87,312.39,158.78Z" style="fill:#BA68C8"></path><path d="M312.39,158.78,307,155.69a14.53,14.53,0,0,0-13.13,0L105.53,264.52c-.39.22-.81.52-.68.42A15.08,15.08,0,0,0,99,274.78c.49-3.35,3.21-4.56,6.49-2.68l5.35,3.09a14.55,14.55,0,0,0,13.14,0L312.39,166.36C316,164.27,316,160.87,312.39,158.78Z" style="opacity:0.1"></path><path d="M399,259.06v63.06a14.55,14.55,0,0,1-6.57,11.37l-5.35,3.1-.09,0a14.05,14.05,0,0,1-7.69,1.46,12.92,12.92,0,0,1-5.35-1.5l-60.77-35.11a14.55,14.55,0,0,1-6.57-11.37V227.05a14.49,14.49,0,0,1,6.57-11.37l11.9-6.89,67.35,38.9A14.55,14.55,0,0,1,399,259.06Z" style="fill:#BA68C8"></path><path d="M399,259.06v63.06a14.55,14.55,0,0,1-6.57,11.37l-5.35,3.1-.09,0a14.05,14.05,0,0,1-7.69,1.46,12.92,12.92,0,0,1-5.35-1.5l-60.77-35.11a14.55,14.55,0,0,1-6.57-11.37V227.05a14.49,14.49,0,0,1,6.57-11.37l11.9-6.89,67.35,38.9A14.55,14.55,0,0,1,399,259.06Z" style="opacity:0.45"></path><path d="M325.11,208.8l-11.91,6.87c-3.61,2.09-3.61,5.5,0,7.59L374,258.35a14.56,14.56,0,0,1,6.57,11.37v63.07c0,4.17,2.95,5.88,6.56,3.79l5.35-3.09A14.56,14.56,0,0,0,399,322.12V259.05a14.56,14.56,0,0,0-6.57-11.37Z" style="fill:#BA68C8"></path><path d="M325.11,208.8l-11.91,6.87c-3.61,2.09-3.61,5.5,0,7.59L374,258.35a14.56,14.56,0,0,1,6.57,11.37v63.07c0,4.17,2.95,5.88,6.56,3.79l5.35-3.09A14.56,14.56,0,0,0,399,322.12V259.05a14.56,14.56,0,0,0-6.57-11.37Z" style="opacity:0.25"></path><path d="M380.55,269.72v63.07c0,4.17,2.95,5.88,6.56,3.79l5.35-3.09A14.56,14.56,0,0,0,399,322.12V259.05a13.46,13.46,0,0,0-1.93-6.47l-18.48,10.67A13.43,13.43,0,0,1,380.55,269.72Z" style="fill:#BA68C8"></path><path d="M380.55,269.72v63.07c0,4.17,2.95,5.88,6.56,3.79l5.35-3.09A14.56,14.56,0,0,0,399,322.12V259.05a13.46,13.46,0,0,0-1.93-6.47l-18.48,10.67A13.43,13.43,0,0,1,380.55,269.72Z" style="opacity:0.35000000000000003"></path><path d="M377.82,338.09a16.09,16.09,0,0,1-2.4,3.61c-1.39,1.56-4.37,3.27-6.18,4.32L223.91,430a7.29,7.29,0,0,1-6.56,0L196,417.66,153.28,393c-3.62-2.09-6.56-7-6.56-10.9s2.94-8.81,6.56-10.9l24.23-14L196,346.55l102.56-59.29a14.59,14.59,0,0,1,13.13,0l60.77,35.1c3.63,2.1,6.57,7,6.57,10.91A11.74,11.74,0,0,1,377.82,338.09Z" style="fill:#BA68C8"></path><path d="M377.82,338.09a16.09,16.09,0,0,1-2.4,3.61c-1.39,1.56-4.37,3.27-6.18,4.32L223.91,430a7.29,7.29,0,0,1-6.56,0L196,417.66,153.28,393c-3.62-2.09-6.56-7-6.56-10.9s2.94-8.81,6.56-10.9l24.23-14L196,346.55l102.56-59.29a14.59,14.59,0,0,1,13.13,0l60.77,35.1c3.63,2.1,6.57,7,6.57,10.91A11.74,11.74,0,0,1,377.82,338.09Z" style="opacity:0.55"></path><path d="M223.92,415.77,375.75,328c1.81-1.05,3.28-.2,3.28,1.9v6.64a7.25,7.25,0,0,1-3.28,5.68L223.91,430c-1.81,1-3.28.19-3.28-1.9v-6.64A7.29,7.29,0,0,1,223.92,415.77Z" style="fill:#BA68C8"></path><path d="M223.92,415.77,375.75,328c1.81-1.05,3.28-.2,3.28,1.9v6.64a7.25,7.25,0,0,1-3.28,5.68L223.91,430c-1.81,1-3.28.19-3.28-1.9v-6.64A7.29,7.29,0,0,1,223.92,415.77Z" style="opacity:0.35000000000000003"></path><path d="M298.55,254.74,153.28,338.68a14.51,14.51,0,0,0-6.56,11.37v13.29a14.54,14.54,0,0,0,6.56,11.37l60.78,35.09a14.55,14.55,0,0,0,13.14,0l145.26-83.94A14.49,14.49,0,0,0,379,314.49V301.2a14.49,14.49,0,0,0-6.57-11.37l-60.78-35.09A14.53,14.53,0,0,0,298.55,254.74Z" style="fill:#BA68C8"></path><path d="M298.55,254.74,153.28,338.68a14.51,14.51,0,0,0-6.56,11.37v13.29a14.54,14.54,0,0,0,6.56,11.37l60.78,35.09a14.55,14.55,0,0,0,13.14,0l145.26-83.94A14.49,14.49,0,0,0,379,314.49V301.2a14.49,14.49,0,0,0-6.57-11.37l-60.78-35.09A14.53,14.53,0,0,0,298.55,254.74Z" style="opacity:0.35000000000000003"></path><path d="M220.64,382.91v28.46a13.44,13.44,0,0,1-6.57-1.57l-60.79-35.09a14.52,14.52,0,0,1-6.56-11.37V350.06a14.7,14.7,0,0,1,5.89-10.95c-2.94,2.11-2.71,5.2.67,7.15l60.79,35.09A13.38,13.38,0,0,0,220.64,382.91Z" style="opacity:0.15"></path><path d="M227.2,381.35l145.26-83.94c3.63-2.09,3.63-5.49,0-7.58l-60.78-35.09a14.53,14.53,0,0,0-13.13,0L153.28,338.68c-3.62,2.09-3.62,5.49,0,7.58l60.78,35.09A14.55,14.55,0,0,0,227.2,381.35Z" style="fill:#BA68C8"></path><path d="M227.2,381.35l145.26-83.94c3.63-2.09,3.63-5.49,0-7.58l-60.78-35.09a14.53,14.53,0,0,0-13.13,0L153.28,338.68c-3.62,2.09-3.62,5.49,0,7.58l60.78,35.09A14.55,14.55,0,0,0,227.2,381.35Z" style="opacity:0.2"></path><path d="M329.42,265c-1.11.41-2.2.86-3.27,1.34a89.64,89.64,0,0,0-13.5,8c-3.77,2.59-9.65,1.68-14,2-11.09.93-22.42,3.11-31.92,9.22-7.54,4.85-13.39,11.83-19.64,18.25a179.22,179.22,0,0,1-25.45,21.71C212,332.27,202,337,191.19,341.58c-2.36,1-5.05,2.41-5.43,4.94-.32,2.13,1.16,4.05,2.54,5.69,3.33,3.91,6.9,8.5,11.28,11.28,4.6,2.91,11.46,4.39,16.8,5,5.87.71,12,0,17.22-2.77,4.13-2.24,7.52-5.74,11.78-7.73,4.07-1.9,8.75-2.32,12.7-4.47,4.78-2.6,7.9-7.39,10.83-12l10-15.75a25.28,25.28,0,0,1,4.78-6c3.93-3.25,9.4-3.77,14.49-3.86,9-.18,17.2-2.41,25.77-4.89,8.15-2.35,16.23-5.64,22.64-11.35a38.53,38.53,0,0,0,11.3-18.26Z" style="opacity:0.2"></path><g id="freepik--character--inject-136"><path d="M222.92,335c3-1.26,8.52-1.47,10.68-5.45,1.66-3.07.32-5.66-.73-8.63-1.62-4.62.88-9.11,1.61-13.76.05-.29-13.74-4.36-13.89-3.93-1.47,4.4-3.48,11.32-5.2,14a41.39,41.39,0,0,1-8.84,9.7c-4.72,4-10.43,6.59-15.74,9.76-.89.53-1.87,1.23-1.95,2.26a3,3,0,0,0,1.32,2.33A16.77,16.77,0,0,0,202,344.86c8.75-.41,11.15-3.45,13.43-4.85C218,338.45,220.17,336.19,222.92,335Z" style="fill:#ffa8a7"></path><path d="M291.22,257s-13.21-9.57-20.11-13.64c-5.19-3.07-9.69-5.85-13.36-7.18-15.47-5.61-21.51,4.08-23.62,9.57-1.95,5.06-15.38,60.71-15.38,60.71a35.77,35.77,0,0,0,15.7,4.52c2.83-7.33,8-14.66,14.54-27.55a67.24,67.24,0,0,0,5.41-16.84l25,22.86c24,22.05,58.61,2.42,61.73-11.95Z" style="fill:#37474f"></path><path d="M293.87,206.48c-3,6.16-7.56,35.09-7.56,39.82l16-9.65L310.49,196C302.09,196.4,296.85,200.32,293.87,206.48Z" style="fill:#ffa8a7"></path><path d="M311.79,195.89c-5.53-.58-10.74-.71-14.78,2.81-2.17,1.89-4.26,6.12-6.42,16.4-1.9,9.05-3.46,17.44-3.46,17.44s4.5,3.28,13.77,3.07Z" style="fill:#455a64"></path><path d="M340.63,196.84s9.66,6.2,11.58,41.61c.77,14.16-2.39,33-8.7,45.12-7.32,2.58-42.86-4.15-51.87-23.4,12.62-14.82,7.84-26.45,6.77-44.73-.71-12,3.23-19.38,13.38-19.55l20.13.07Z" style="fill:#f5f5f5"></path><path d="M340.63,196.84c9.6,1.28,11.37,6.72,14.13,15.91s2.42,37.41,1.25,44.08c-1.25,7.12-4.45,10.94-17,7.74-9.58-2.44-26.15-11.27-36.72-16.49l-.91-3.18,38.78,6-2.79-30.56S337.47,202.61,340.63,196.84Z" style="fill:#ffa8a7"></path><path d="M356.87,237a2.09,2.09,0,0,0,0-.25c0-.61,0-1.22,0-1.83v-.37c0-.68,0-1.35,0-2v0c-2.14,1.64-16.65,18.39-16.65,18.39h0l-19.39-3-6.24-1-13.15-2h0l.91,3.18c4.52,2.23,10.13,5.12,15.82,7.89,9-.15,17.79-.52,21.31-1,7.29-.94,13.52-2.86,17.26-5.82.08-1.76.14-3.7.17-5.75a.49.49,0,0,0,0-.12c0-.63,0-1.27,0-1.91v-.17C356.88,239.86,356.88,238.46,356.87,237Z" style="fill:#f28f8f"></path><path d="M340.63,196.84s-4.37,3.27-3.67,17.44c.56,11.36,2.82,32.36,2.82,32.36a23.67,23.67,0,0,0,19.23-3s-.93-18.48-2.79-28.82S353.91,197.55,340.63,196.84Z" style="fill:#455a64"></path><path d="M348.63,234.73c-.16.34-.36.75-.15,1.05a1,1,0,0,0,.78.31c3.1.17,6.84-3.39,8.85-5.47l-.26-2.92c4-.32,3.69,10.87,1.16,15.91s-9.51,7.72-19.23,9c-7.08.92-35.79,2.1-44.09,1.2s-9.66-3.34-9.37-7.84l13.87-8.57c5.84.5,15.37,1.6,21.23,1.87,4.68.21,11,1,15-.09,1.69-.44,2.73-1.92,4-3.17,1.1-1.11,2.22-2.24,3.67-3.45a52.81,52.81,0,0,1,5.49-4.26.78.78,0,0,1,1,.67,5,5,0,0,1-.46,3.34C349.41,233.51,348.81,234.32,348.63,234.73Z" style="fill:#ffa8a7"></path><circle cx="307.02" cy="162.65" r="16.43" transform="translate(-3.78 317.97) rotate(-54.47)" style="fill:#263238"></circle><path d="M334.81,169.51s-1.23,12-2,14.09a5.33,5.33,0,0,1-2.81,2.81l-.72-8.3Z" style="fill:#263238"></path><path d="M329.83,153a5.82,5.82,0,0,1,5,1.17c2.29,1.88,1.86,8.61,0,15.35l-4.66,1.05Z" style="fill:#263238"></path><path d="M328.73,170.72c1,.46,2.16-1.5,3.2-2.85s4.66-3.43,7,.37-.68,9.6-3.55,10.92a4,4,0,0,1-4.79-1.2l1.31,17.57a5,5,0,0,1-.9,3.32c-7,9.51-22.45,7.15-17-.58l-.63-5.81a32.59,32.59,0,0,1-6.93,1.11c-3.87-.17-6.59-2.91-8.18-6.9-2.57-6.41-3.86-11.67-3.69-24.84.17-14.43,16.73-16.38,26.29-11.72S328.73,170.72,328.73,170.72Z" style="fill:#ffa8a7"></path><path d="M318.7,158.45a7.93,7.93,0,0,0,1,1.07,8.59,8.59,0,0,0,4,2,1.54,1.54,0,0,1,1,.42,1.34,1.34,0,0,1,.21.79,48.7,48.7,0,0,0,.7,5.65c.24,1.25.54,3.54,2.11,3.85a2,2,0,0,0,1.74-.69c1-1.07,1.49-2.54,2.47-3.64a2,2,0,0,0,.33-1.16c.31-3.06-.7-6.47-1.37-9.43-.28-1.23-.59-2.46-.9-3.69-.38-1.54.2-3.1.08-4.7a5.88,5.88,0,0,0-1.41-3.58,6.89,6.89,0,0,0-2.33-1.53c-3.61-1.6-7.66-1.82-11.54-2.61-2.2-.44-4.35-1.07-6.53-1.61a7.9,7.9,0,0,0-4.46-.18c-1.42.5-2.55,2.13-2,3.52a5.66,5.66,0,0,0-6.23-.06,4.88,4.88,0,0,0-2.3,5.23,3.43,3.43,0,0,0-2.54.23,4.31,4.31,0,0,0-2,2.43c-.76,2.38.84,4.38,2.52,5.87a19.72,19.72,0,0,0,6.18,3.73,16.12,16.12,0,0,0,5.08,1,19.33,19.33,0,0,0,7.58-1.49,30,30,0,0,0,3.58-1.7c1.16-.64,2.24-1.47,3.41-2.08A26.82,26.82,0,0,0,318.7,158.45Z" style="fill:#263238"></path><path d="M329.94,154l5.39-3.69a3.18,3.18,0,0,0-4.49-1A3.42,3.42,0,0,0,329.94,154Z" style="fill:#263238"></path><path d="M313.41,192.46s7.25-2.56,10-4.46c1.87-1.27,2.9-4.28,3.25-5.5a8.35,8.35,0,0,1-1.51,6.11c-2,2.91-11.55,6.11-11.55,6.11Z" style="fill:#f28f8f"></path><path d="M310.52,172.37a1.73,1.73,0,0,0,1.89,1.58,1.78,1.78,0,1,0-1.89-1.58Z" style="fill:#263238"></path><path d="M316.3,166.61l-4-1.16a2.19,2.19,0,0,0,1.48,2.65A2,2,0,0,0,316.3,166.61Z" style="fill:#263238"></path><path d="M298.85,165.87l-3.47,2.38a2,2,0,0,0,2.87.6A2.2,2.2,0,0,0,298.85,165.87Z" style="fill:#263238"></path><path d="M297.49,173.25a1.71,1.71,0,1,0,1.51-2A1.74,1.74,0,0,0,297.49,173.25Z" style="fill:#263238"></path><polygon points="305.33 171.28 307.4 181.44 301.12 181.47 305.33 171.28" style="fill:#f28f8f"></polygon><path d="M313.84,182.58a3.4,3.4,0,0,0-3,.4,3.64,3.64,0,0,0-1.09,1.05c-.26.4-.57,1-.32,1.5.05.1.19.24.31.16s.28-.4.4-.61a3.47,3.47,0,0,1,.37-.57,3.27,3.27,0,0,1,1-.86,3.91,3.91,0,0,1,1-.37,1.91,1.91,0,0,1,.53-.05.82.82,0,0,1,.22,0l.11,0h0l0,0c.21.09.52.09.63-.15A.47.47,0,0,0,313.84,182.58Z" style="fill:#b16668"></path><path d="M188.66,341.84a6.2,6.2,0,0,0,.53,2.58c.52.71,4.93,3.52,12.67,3.35s11.51-2.19,15-5a41.26,41.26,0,0,1,7-4.62,13.9,13.9,0,0,1,3.21-1.24c2.84-.55,6.66-1.08,8.09-3.78a9.25,9.25,0,0,0-.67-5.53Z" style="fill:#263238"></path><path d="M211.9,320.84c1.91-2.63,1.73-5.25,2.95-5.86s5.86,1,8.24,2,1.37,4.16.55,6.06,2,.75,2.93-1.16,1.23-3.51,2.8-3.78a13.38,13.38,0,0,0,3-.92,14.74,14.74,0,0,1,.25-2.21,1.08,1.08,0,0,1,1.06,1.1c.07,1.12-.34,3.57.41,5.81a17.43,17.43,0,0,1,1,7.29s-1,3.27-6.54,5-8.31,3.14-13.55,7.5-14.3,4.69-20.09,3.4c-8-1.77-7.71-5.83-5.55-7.67s5.41-3.4,10.93-6.75S210,323.49,211.9,320.84Z" style="fill:#37474f"></path><path d="M223.51,323.53a1.66,1.66,0,0,1,.13-.45c.82-1.9,1.84-5-.55-6.06s-7-2.65-8.24-2-1,3.23-2.95,5.86-6.1,6.47-11.62,9.82l-2.7,1.6h0c-1.87,1.08,5.11,4.52,10.33,2.7A30.46,30.46,0,0,0,223.51,323.53Z" style="fill:#455a64"></path><path d="M243.6,348.6c3-1.26,8.53-1.48,10.68-5.46,1.66-3.07.32-5.65-.72-8.63-1.62-4.62.87-9.11,1.61-13.76,0-.28-13.75-4.35-13.89-3.93-1.48,4.4-3.49,11.32-5.2,14a41.41,41.41,0,0,1-8.84,9.7c-4.73,4-10.44,6.59-15.75,9.76-.89.53-1.86,1.23-2,2.26a3,3,0,0,0,1.32,2.34,16.82,16.82,0,0,0,11.82,3.58c8.75-.4,11.14-3.45,13.43-4.84C238.66,352.09,240.85,349.84,243.6,348.6Z" style="fill:#ffa8a7"></path><path d="M311.91,270.6S298.7,261,291.8,257c-5.2-3.07-9.7-5.84-13.36-7.17-15.47-5.62-21.52,4.08-23.63,9.56-1.94,5.06-15,59.28-15,59.28a39.2,39.2,0,0,0,15.78,4.82c4.77-10.46,8.89-15,15.05-27.23a45,45,0,0,0,4.7-16.18,133.53,133.53,0,0,0,21.14,19.62c17.45,12.61,43.94-1.7,47.06-16.08A116,116,0,0,1,311.91,270.6Z" style="fill:#455a64"></path><path d="M209.34,355.48a6.15,6.15,0,0,0,.54,2.59c.51.7,4.93,3.52,12.66,3.34s11.51-2.19,15-5a41.31,41.31,0,0,1,7-4.63,14,14,0,0,1,3.22-1.24c2.83-.55,6.66-1.08,8.09-3.78a9.36,9.36,0,0,0-.67-5.53Z" style="fill:#263238"></path><path d="M232.58,334.48c1.92-2.63,1.73-5.25,3-5.86s5.86,1,8.24,2,1.36,4.16.54,6.07,2,.74,2.93-1.16,1.24-3.51,2.8-3.78a13.92,13.92,0,0,0,3-.93,15.37,15.37,0,0,1,.24-2.2,1.07,1.07,0,0,1,1.07,1.09c.06,1.12-.35,3.57.4,5.82a17.44,17.44,0,0,1,1,7.29s-1,3.26-6.54,5-8.31,3.13-13.56,7.49-14.3,4.69-20.09,3.4c-8-1.77-7.7-5.83-5.54-7.67s5.41-3.4,10.92-6.75S230.65,337.13,232.58,334.48Z" style="fill:#37474f"></path><path d="M244.19,337.17a2.06,2.06,0,0,1,.13-.44c.82-1.91,1.84-5-.54-6.07s-7-2.65-8.24-2-1,3.23-3,5.86S226.48,341,221,344.3l-2.69,1.61h0c-1.87,1.08,5.1,4.52,10.33,2.7A30.44,30.44,0,0,0,244.19,337.17Z" style="fill:#455a64"></path></g><path d="M197.51,438.53V375.46a14.55,14.55,0,0,0-6.57-11.37L123.6,325.21l-5.16-38.71a17.42,17.42,0,0,0-7.57-11.31l-5.34-3.09c-3.61-2.08-6.57-.38-6.57,3.79V381.64A14.58,14.58,0,0,0,105.53,393l85.41,49.31C194.56,444.41,197.51,442.7,197.51,438.53Z" style="fill:#BA68C8"></path><path d="M197.51,438.53V375.46a14.55,14.55,0,0,0-6.57-11.37L123.6,325.21l-5.16-38.71a17.42,17.42,0,0,0-7.57-11.31l-5.34-3.09c-3.61-2.08-6.57-.38-6.57,3.79V381.64A14.58,14.58,0,0,0,105.53,393l85.41,49.31C194.56,444.41,197.51,442.7,197.51,438.53Z" style="opacity:0.45"></path><path d="M216,364.79v63.08c0,.14,0,.29,0,.42a14.69,14.69,0,0,1-6.49,10.92l-.06,0-5.34,3.08a3,3,0,0,1-.5.26,1.66,1.66,0,0,1-.27.13l-.08,0a3.16,3.16,0,0,1-.53.2,15.2,15.2,0,0,1-9.66.27,9.15,9.15,0,0,1-1.14-.42c3.16,1.3,5.6-.47,5.61-4.25h0V375.47A14.57,14.57,0,0,0,191,364.09L179,357.21l-55.44-32,11.92-6.89a14.59,14.59,0,0,1,13.13,0l48.87,28.22,11.91,6.87A14.54,14.54,0,0,1,216,364.79Z" style="fill:#BA68C8"></path><path d="M216,364.79v63.08c0,.14,0,.29,0,.42a14.69,14.69,0,0,1-6.49,10.92l-.06,0-5.34,3.08a3,3,0,0,1-.5.26,1.66,1.66,0,0,1-.27.13l-.08,0a3.16,3.16,0,0,1-.53.2,15.2,15.2,0,0,1-9.66.27,9.15,9.15,0,0,1-1.14-.42c3.16,1.3,5.6-.47,5.61-4.25h0V375.47A14.57,14.57,0,0,0,191,364.09L179,357.21l-55.44-32,11.92-6.89a14.59,14.59,0,0,1,13.13,0l48.87,28.22,11.91,6.87A14.54,14.54,0,0,1,216,364.79Z" style="opacity:0.25"></path><path d="M197.51,375.47v63.06h0c0,3.78-2.45,5.55-5.61,4.25a9.15,9.15,0,0,0,1.14.42,15.2,15.2,0,0,0,9.66-.27,3.16,3.16,0,0,0,.53-.2l.08,0a1.66,1.66,0,0,0,.27-.13,3,3,0,0,0,.5-.26l5.34-3.08.06,0A14.69,14.69,0,0,0,216,428.29c0-.13,0-.28,0-.42V364.79a13.4,13.4,0,0,0-1.92-6.46L195.58,369A13.49,13.49,0,0,1,197.51,375.47Z" style="fill:#BA68C8"></path><path d="M197.51,375.47v63.06h0c0,3.78-2.45,5.55-5.61,4.25a9.15,9.15,0,0,0,1.14.42,15.2,15.2,0,0,0,9.66-.27,3.16,3.16,0,0,0,.53-.2l.08,0a1.66,1.66,0,0,0,.27-.13,3,3,0,0,0,.5-.26l5.34-3.08.06,0A14.69,14.69,0,0,0,216,428.29c0-.13,0-.28,0-.42V364.79a13.4,13.4,0,0,0-1.92-6.46L195.58,369A13.49,13.49,0,0,1,197.51,375.47Z" style="opacity:0.35000000000000003"></path></g><g id="freepik--Clouds--inject-136"><g id="freepik--clouds-and-rain--inject-136"><g id="freepik--clouds--inject-136"><path d="M261.72,69.63l4.93,2.85c0-.23,0-.44,0-.66V70.39c0-2.54,1.79-3.57,4-2.3A7.5,7.5,0,0,1,273,70.38c.36-3.2,2.87-4.4,5.92-2.64a13.21,13.21,0,0,1,6,10.34v2.14a5.67,5.67,0,0,1-.5,2.48l4.1,2.37a4.9,4.9,0,0,1,2.21,3.83c0,1.42-1,2-2.21,1.28L261.72,74.74a4.88,4.88,0,0,1-2.22-3.84C259.5,69.49,260.49,68.92,261.72,69.63Z" style="fill:#455a64"></path><path d="M403.33,108.15l-2.72-2.09v-6c0-4.76-3.79-10.28-7.91-12.66h0c-4.12-2.37-7.46-.45-7.46,4.31v.87a10.58,10.58,0,0,0-3.46-3.46h0c-3-1.71-5.37-.33-5.37,3.1v.39l-3.79-2.19c-1.95-1.13-3.54-.21-3.54,2a7.83,7.83,0,0,0,3.54,6.12l30.71,17.73c1.95,1.13,3.54.22,3.54-2A7.83,7.83,0,0,0,403.33,108.15Z" style="fill:#455a64"></path></g><path d="M319.93,85.46a7.4,7.4,0,0,1,2.17,2.07,19,19,0,0,1-.8-5.3c0-5.56,2.93-8.38,6.54-6.29a10,10,0,0,1,3,2.84,15,15,0,0,1-.29-2.81c0-4.45,2.35-6.71,5.25-5a9.41,9.41,0,0,1,3.2,3.53c1.56-6.58,6.12-9.37,11.5-6.26,6.67,3.85,12.08,15.3,12.08,25.57a19.12,19.12,0,0,1-1.77,8.67,5.92,5.92,0,0,1,1.33.56c3.84,2.23,7,8.83,7,14.75s-3.12,8.93-7,6.71L319.93,100.1c-2.63-1.51-4.76-6-4.76-10.06S317.3,83.94,319.93,85.46Z" style="fill:#455a64"></path><path d="M286,57.62c0,5.92,3.12,12.52,7,14.75l19.81,11.44c.83-3.33,3.11-4.82,5.82-3.51,0-.43,0-.85,0-1.27,0-7.09,3.75-10.7,8.36-8a10.33,10.33,0,0,1,.92.6c.19-2.57,1-4.49,2.26-5.51a9.88,9.88,0,0,0-2.86-2.66,4.13,4.13,0,0,0-3-.6,9.74,9.74,0,0,0,.29-2.47c0-3.63-1.23-6.34-4.08-8.09a3.34,3.34,0,0,0-4.45,1c-.6-7.84-3.74-12.89-9.12-16-6.67-3.85-12.66,3.06-13.19,7.76a15.28,15.28,0,0,0,.58,6.9,8.83,8.83,0,0,0-1.32-1C289.08,48.69,286,51.69,286,57.62Z" style="fill:#455a64"></path><g style="opacity:0.5"><path d="M399,121.72a.5.5,0,0,1-.5-.5v-1.5a.5.5,0,0,1,1,0v1.5A.5.5,0,0,1,399,121.72Z" style="fill:#e0e0e0"></path><path d="M399,238.8a.5.5,0,0,1-.5-.5v-2.93a.5.5,0,0,1,1,0v2.93A.5.5,0,0,1,399,238.8Zm0-5.85a.5.5,0,0,1-.5-.5v-2.93a.5.5,0,1,1,1,0v2.93A.5.5,0,0,1,399,233Zm0-5.86a.5.5,0,0,1-.5-.5v-2.92a.5.5,0,1,1,1,0v2.92A.5.5,0,0,1,399,227.09Zm0-5.85a.5.5,0,0,1-.5-.5v-2.93a.5.5,0,1,1,1,0v2.93A.5.5,0,0,1,399,221.24Zm0-5.86a.5.5,0,0,1-.5-.5V212a.5.5,0,0,1,1,0v2.92A.5.5,0,0,1,399,215.38Zm0-5.85a.5.5,0,0,1-.5-.5V206.1a.5.5,0,0,1,1,0V209A.5.5,0,0,1,399,209.53Zm0-5.85a.5.5,0,0,1-.5-.5v-2.93a.5.5,0,0,1,1,0v2.93A.5.5,0,0,1,399,203.68Zm0-5.86a.5.5,0,0,1-.5-.5V194.4a.5.5,0,1,1,1,0v2.92A.5.5,0,0,1,399,197.82Zm0-5.85a.5.5,0,0,1-.5-.5v-2.93a.5.5,0,1,1,1,0v2.93A.5.5,0,0,1,399,192Zm0-5.86a.5.5,0,0,1-.5-.5v-2.92a.5.5,0,0,1,1,0v2.92A.5.5,0,0,1,399,186.11Zm0-5.85a.5.5,0,0,1-.5-.5v-2.93a.5.5,0,0,1,1,0v2.93A.5.5,0,0,1,399,180.26Zm0-5.85a.5.5,0,0,1-.5-.5V171a.5.5,0,0,1,1,0v2.93A.5.5,0,0,1,399,174.41Zm0-5.86a.5.5,0,0,1-.5-.5v-2.93a.5.5,0,0,1,1,0v2.93A.5.5,0,0,1,399,168.55Zm0-5.85a.5.5,0,0,1-.5-.5v-2.93a.5.5,0,1,1,1,0v2.93A.5.5,0,0,1,399,162.7Zm0-5.86a.5.5,0,0,1-.5-.5v-2.92a.5.5,0,1,1,1,0v2.92A.5.5,0,0,1,399,156.84Zm0-5.85a.5.5,0,0,1-.5-.5v-2.93a.5.5,0,1,1,1,0v2.93A.5.5,0,0,1,399,151Zm0-5.86a.5.5,0,0,1-.5-.5v-2.92a.5.5,0,0,1,1,0v2.92A.5.5,0,0,1,399,145.13Zm0-5.85a.5.5,0,0,1-.5-.5v-2.93a.5.5,0,0,1,1,0v2.93A.5.5,0,0,1,399,139.28Zm0-5.85a.5.5,0,0,1-.5-.5V130a.5.5,0,0,1,1,0v2.93A.5.5,0,0,1,399,133.43Zm0-5.86a.5.5,0,0,1-.5-.5v-2.93a.5.5,0,1,1,1,0v2.93A.5.5,0,0,1,399,127.57Z" style="fill:#e0e0e0"></path><path d="M399,243.23a.5.5,0,0,1-.5-.5v-1.5a.5.5,0,0,1,1,0v1.5A.5.5,0,0,1,399,243.23Z" style="fill:#e0e0e0"></path><path d="M386.47,114.68a.5.5,0,0,1-.5-.5v-1.5a.5.5,0,0,1,.5-.5.51.51,0,0,1,.5.5v1.5A.5.5,0,0,1,386.47,114.68Z" style="fill:#e0e0e0"></path><path d="M386.47,231.77a.5.5,0,0,1-.5-.5v-2.93a.5.5,0,0,1,.5-.5.5.5,0,0,1,.5.5v2.93A.51.51,0,0,1,386.47,231.77Zm0-5.86a.5.5,0,0,1-.5-.5v-2.93a.5.5,0,0,1,.5-.5.51.51,0,0,1,.5.5v2.93A.5.5,0,0,1,386.47,225.91Zm0-5.85a.5.5,0,0,1-.5-.5v-2.93a.5.5,0,0,1,.5-.5.5.5,0,0,1,.5.5v2.93A.51.51,0,0,1,386.47,220.06Zm0-5.86a.5.5,0,0,1-.5-.5v-2.92a.5.5,0,0,1,.5-.5.5.5,0,0,1,.5.5v2.92A.5.5,0,0,1,386.47,214.2Zm0-5.85a.5.5,0,0,1-.5-.5v-2.93a.5.5,0,0,1,.5-.5.51.51,0,0,1,.5.5v2.93A.5.5,0,0,1,386.47,208.35Zm0-5.86a.5.5,0,0,1-.5-.5v-2.92a.5.5,0,0,1,.5-.5.5.5,0,0,1,.5.5V202A.5.5,0,0,1,386.47,202.49Zm0-5.85a.5.5,0,0,1-.5-.5v-2.93a.5.5,0,0,1,.5-.5.51.51,0,0,1,.5.5v2.93A.5.5,0,0,1,386.47,196.64Zm0-5.85a.5.5,0,0,1-.5-.5v-2.93a.5.5,0,0,1,.5-.5.5.5,0,0,1,.5.5v2.93A.51.51,0,0,1,386.47,190.79Zm0-5.86a.5.5,0,0,1-.5-.5v-2.92a.5.5,0,0,1,.5-.5.5.5,0,0,1,.5.5v2.92A.5.5,0,0,1,386.47,184.93Zm0-5.85a.5.5,0,0,1-.5-.5v-2.93a.5.5,0,0,1,.5-.5.5.5,0,0,1,.5.5v2.93A.51.51,0,0,1,386.47,179.08Zm0-5.86a.5.5,0,0,1-.5-.5V169.8a.5.5,0,0,1,.5-.5.5.5,0,0,1,.5.5v2.92A.5.5,0,0,1,386.47,173.22Zm0-5.85a.5.5,0,0,1-.5-.5v-2.93a.5.5,0,0,1,.5-.5.51.51,0,0,1,.5.5v2.93A.5.5,0,0,1,386.47,167.37Zm0-5.85a.5.5,0,0,1-.5-.5v-2.93a.5.5,0,0,1,.5-.5.5.5,0,0,1,.5.5V161A.51.51,0,0,1,386.47,161.52Zm0-5.86a.5.5,0,0,1-.5-.5v-2.93a.5.5,0,0,1,.5-.5.51.51,0,0,1,.5.5v2.93A.5.5,0,0,1,386.47,155.66Zm0-5.85a.5.5,0,0,1-.5-.5v-2.93a.5.5,0,0,1,.5-.5.5.5,0,0,1,.5.5v2.93A.51.51,0,0,1,386.47,149.81Zm0-5.86a.5.5,0,0,1-.5-.5v-2.92a.5.5,0,0,1,.5-.5.5.5,0,0,1,.5.5v2.92A.5.5,0,0,1,386.47,144Zm0-5.85a.5.5,0,0,1-.5-.5v-2.93a.5.5,0,0,1,.5-.5.51.51,0,0,1,.5.5v2.93A.5.5,0,0,1,386.47,138.1Zm0-5.86a.5.5,0,0,1-.5-.5v-2.92a.5.5,0,0,1,.5-.5.5.5,0,0,1,.5.5v2.92A.5.5,0,0,1,386.47,132.24Zm0-5.85a.5.5,0,0,1-.5-.5V123a.5.5,0,0,1,.5-.5.51.51,0,0,1,.5.5v2.93A.5.5,0,0,1,386.47,126.39Zm0-5.85a.5.5,0,0,1-.5-.5v-2.93a.5.5,0,0,1,.5-.5.5.5,0,0,1,.5.5V120A.51.51,0,0,1,386.47,120.54Z" style="fill:#e0e0e0"></path><path d="M386.47,236.19a.5.5,0,0,1-.5-.5v-1.5a.5.5,0,0,1,.5-.5.51.51,0,0,1,.5.5v1.5A.5.5,0,0,1,386.47,236.19Z" style="fill:#e0e0e0"></path><path d="M373.9,112.55a.5.5,0,0,1-.5-.5v-1.5a.5.5,0,0,1,.5-.5.5.5,0,0,1,.5.5v1.5A.5.5,0,0,1,373.9,112.55Z" style="fill:#e0e0e0"></path><path d="M373.9,224.33a.5.5,0,0,1-.5-.5v-2.94a.5.5,0,0,1,.5-.5.5.5,0,0,1,.5.5v2.94A.5.5,0,0,1,373.9,224.33Zm0-5.88a.51.51,0,0,1-.5-.5V215a.51.51,0,0,1,.5-.5.5.5,0,0,1,.5.5V218A.5.5,0,0,1,373.9,218.45Zm0-5.89a.5.5,0,0,1-.5-.5v-2.94a.5.5,0,0,1,.5-.5.5.5,0,0,1,.5.5v2.94A.5.5,0,0,1,373.9,212.56Zm0-5.88a.5.5,0,0,1-.5-.5v-2.94a.5.5,0,0,1,.5-.5.5.5,0,0,1,.5.5v2.94A.5.5,0,0,1,373.9,206.68Zm0-5.88a.51.51,0,0,1-.5-.5v-2.94a.5.5,0,0,1,.5-.5.5.5,0,0,1,.5.5v2.94A.5.5,0,0,1,373.9,200.8Zm0-5.89a.5.5,0,0,1-.5-.5v-2.94a.51.51,0,0,1,.5-.5.5.5,0,0,1,.5.5v2.94A.5.5,0,0,1,373.9,194.91Zm0-5.88a.5.5,0,0,1-.5-.5v-2.94a.5.5,0,0,1,.5-.5.5.5,0,0,1,.5.5v2.94A.5.5,0,0,1,373.9,189Zm0-5.88a.51.51,0,0,1-.5-.5v-2.94a.5.5,0,0,1,.5-.5.5.5,0,0,1,.5.5v2.94A.5.5,0,0,1,373.9,183.15Zm0-5.89a.5.5,0,0,1-.5-.5v-2.94a.51.51,0,0,1,.5-.5.5.5,0,0,1,.5.5v2.94A.5.5,0,0,1,373.9,177.26Zm0-5.88a.5.5,0,0,1-.5-.5v-2.94a.5.5,0,0,1,.5-.5.5.5,0,0,1,.5.5v2.94A.5.5,0,0,1,373.9,171.38Zm0-5.88a.51.51,0,0,1-.5-.5v-2.94a.5.5,0,0,1,.5-.5.5.5,0,0,1,.5.5V165A.5.5,0,0,1,373.9,165.5Zm0-5.89a.5.5,0,0,1-.5-.5v-2.94a.51.51,0,0,1,.5-.5.5.5,0,0,1,.5.5v2.94A.5.5,0,0,1,373.9,159.61Zm0-5.88a.5.5,0,0,1-.5-.5v-2.94a.5.5,0,0,1,.5-.5.5.5,0,0,1,.5.5v2.94A.5.5,0,0,1,373.9,153.73Zm0-5.88a.5.5,0,0,1-.5-.5v-2.94a.5.5,0,0,1,.5-.5.5.5,0,0,1,.5.5v2.94A.5.5,0,0,1,373.9,147.85Zm0-5.88a.51.51,0,0,1-.5-.5v-2.95a.51.51,0,0,1,.5-.5.5.5,0,0,1,.5.5v2.95A.5.5,0,0,1,373.9,142Zm0-5.89a.5.5,0,0,1-.5-.5v-2.94a.5.5,0,0,1,.5-.5.5.5,0,0,1,.5.5v2.94A.5.5,0,0,1,373.9,136.08Zm0-5.88a.5.5,0,0,1-.5-.5v-2.94a.5.5,0,0,1,.5-.5.5.5,0,0,1,.5.5v2.94A.5.5,0,0,1,373.9,130.2Zm0-5.88a.51.51,0,0,1-.5-.5v-2.95a.51.51,0,0,1,.5-.5.5.5,0,0,1,.5.5v2.95A.5.5,0,0,1,373.9,124.32Zm0-5.89a.5.5,0,0,1-.5-.5V115a.51.51,0,0,1,.5-.5.5.5,0,0,1,.5.5v2.94A.5.5,0,0,1,373.9,118.43Z" style="fill:#e0e0e0"></path><path d="M373.9,228.77a.5.5,0,0,1-.5-.5v-1.5a.5.5,0,0,1,.5-.5.5.5,0,0,1,.5.5v1.5A.5.5,0,0,1,373.9,228.77Z" style="fill:#e0e0e0"></path><path d="M361.34,131.7a.5.5,0,0,1-.5-.5v-1.5a.5.5,0,0,1,1,0v1.5A.5.5,0,0,1,361.34,131.7Z" style="fill:#e0e0e0"></path><path d="M361.34,217a.5.5,0,0,1-.5-.5v-3a.5.5,0,0,1,1,0v3A.5.5,0,0,1,361.34,217Zm0-6.09a.5.5,0,0,1-.5-.5v-3a.5.5,0,1,1,1,0v3A.5.5,0,0,1,361.34,210.88Zm0-6.09a.5.5,0,0,1-.5-.5v-3a.5.5,0,1,1,1,0v3A.5.5,0,0,1,361.34,204.79Zm0-6.09a.5.5,0,0,1-.5-.5v-3a.5.5,0,0,1,1,0v3A.5.5,0,0,1,361.34,198.7Zm0-6.09a.5.5,0,0,1-.5-.5v-3.05a.5.5,0,0,1,1,0v3.05A.5.5,0,0,1,361.34,192.61Zm0-6.09a.5.5,0,0,1-.5-.5V183a.5.5,0,1,1,1,0V186A.5.5,0,0,1,361.34,186.52Zm0-6.09a.5.5,0,0,1-.5-.5v-3.05a.5.5,0,0,1,1,0v3.05A.5.5,0,0,1,361.34,180.43Zm0-6.09a.5.5,0,0,1-.5-.5v-3.05a.5.5,0,0,1,1,0v3.05A.5.5,0,0,1,361.34,174.34Zm0-6.09a.5.5,0,0,1-.5-.5V164.7a.5.5,0,0,1,1,0v3.05A.5.5,0,0,1,361.34,168.25Zm0-6.09a.5.5,0,0,1-.5-.5v-3a.5.5,0,0,1,1,0v3A.5.5,0,0,1,361.34,162.16Zm0-6.09a.5.5,0,0,1-.5-.5v-3a.5.5,0,0,1,1,0v3A.5.5,0,0,1,361.34,156.07Zm0-6.1a.5.5,0,0,1-.5-.5v-3a.5.5,0,0,1,1,0v3A.5.5,0,0,1,361.34,150Zm0-6.09a.5.5,0,0,1-.5-.5v-3a.5.5,0,1,1,1,0v3A.5.5,0,0,1,361.34,143.88Zm0-6.09a.5.5,0,0,1-.5-.5v-3a.5.5,0,0,1,1,0v3A.5.5,0,0,1,361.34,137.79Z" style="fill:#e0e0e0"></path><path d="M361.34,221.52a.5.5,0,0,1-.5-.5v-1.5a.5.5,0,0,1,1,0V221A.5.5,0,0,1,361.34,221.52Z" style="fill:#e0e0e0"></path><path d="M348.78,124.88a.5.5,0,0,1-.5-.5v-1.5a.5.5,0,0,1,.5-.5.51.51,0,0,1,.5.5v1.5A.5.5,0,0,1,348.78,124.88Z" style="fill:#e0e0e0"></path><path d="M348.78,187.52a.5.5,0,0,1-.5-.5v-3.14a.5.5,0,0,1,.5-.5.51.51,0,0,1,.5.5V187A.51.51,0,0,1,348.78,187.52Zm0-6.27a.5.5,0,0,1-.5-.5v-3.13a.5.5,0,0,1,.5-.5.51.51,0,0,1,.5.5v3.13A.5.5,0,0,1,348.78,181.25Zm0-6.26a.5.5,0,0,1-.5-.5v-3.13a.5.5,0,0,1,.5-.5.5.5,0,0,1,.5.5v3.13A.5.5,0,0,1,348.78,175Zm0-6.26a.5.5,0,0,1-.5-.5V165.1a.5.5,0,0,1,.5-.5.5.5,0,0,1,.5.5v3.13A.51.51,0,0,1,348.78,168.73Zm0-6.27a.5.5,0,0,1-.5-.5v-3.13a.5.5,0,0,1,.5-.5.51.51,0,0,1,.5.5V162A.5.5,0,0,1,348.78,162.46Zm0-6.26a.5.5,0,0,1-.5-.5v-3.13a.5.5,0,0,1,.5-.5.5.5,0,0,1,.5.5v3.13A.5.5,0,0,1,348.78,156.2Zm0-6.26a.5.5,0,0,1-.5-.5v-3.13a.5.5,0,0,1,.5-.5.5.5,0,0,1,.5.5v3.13A.51.51,0,0,1,348.78,149.94Zm0-6.27a.5.5,0,0,1-.5-.5V140a.5.5,0,0,1,.5-.5.51.51,0,0,1,.5.5v3.13A.5.5,0,0,1,348.78,143.67Zm0-6.26a.5.5,0,0,1-.5-.5v-3.13a.5.5,0,0,1,.5-.5.5.5,0,0,1,.5.5v3.13A.5.5,0,0,1,348.78,137.41Zm0-6.26a.5.5,0,0,1-.5-.5v-3.13a.5.5,0,0,1,.5-.5.5.5,0,0,1,.5.5v3.13A.51.51,0,0,1,348.78,131.15Z" style="fill:#e0e0e0"></path><path d="M348.78,192.15a.5.5,0,0,1-.5-.5v-1.5a.5.5,0,0,1,.5-.5.5.5,0,0,1,.5.5v1.5A.51.51,0,0,1,348.78,192.15Z" style="fill:#e0e0e0"></path><path d="M336.21,117.42a.51.51,0,0,1-.5-.5v-1.5a.5.5,0,0,1,.5-.5.5.5,0,0,1,.5.5v1.5A.5.5,0,0,1,336.21,117.42Z" style="fill:#e0e0e0"></path><path d="M336.21,141.42a.51.51,0,0,1-.5-.5v-3a.5.5,0,0,1,.5-.5.5.5,0,0,1,.5.5v3A.5.5,0,0,1,336.21,141.42Zm0-6a.51.51,0,0,1-.5-.5v-3a.5.5,0,0,1,.5-.5.5.5,0,0,1,.5.5v3A.5.5,0,0,1,336.21,135.42Zm0-6a.51.51,0,0,1-.5-.5v-3a.5.5,0,0,1,.5-.5.5.5,0,0,1,.5.5v3A.5.5,0,0,1,336.21,129.42Zm0-6a.51.51,0,0,1-.5-.5v-3a.5.5,0,0,1,.5-.5.5.5,0,0,1,.5.5v3A.5.5,0,0,1,336.21,123.42Z" style="fill:#e0e0e0"></path><path d="M336.21,145.92a.51.51,0,0,1-.5-.5v-1.5a.5.5,0,0,1,.5-.5.5.5,0,0,1,.5.5v1.5A.5.5,0,0,1,336.21,145.92Z" style="fill:#e0e0e0"></path><path d="M323.65,110a.5.5,0,0,1-.5-.5V108a.5.5,0,0,1,1,0v1.5A.5.5,0,0,1,323.65,110Z" style="fill:#e0e0e0"></path><path d="M323.65,129.36a.5.5,0,0,1-.5-.5v-3.23a.5.5,0,0,1,1,0v3.23A.5.5,0,0,1,323.65,129.36Zm0-6.45a.5.5,0,0,1-.5-.5v-3.23a.5.5,0,0,1,1,0v3.23A.5.5,0,0,1,323.65,122.91Zm0-6.46a.5.5,0,0,1-.5-.5v-3.23a.5.5,0,0,1,1,0V116A.5.5,0,0,1,323.65,116.45Z" style="fill:#e0e0e0"></path><path d="M323.65,134.09a.5.5,0,0,1-.5-.5v-1.5a.5.5,0,0,1,1,0v1.5A.5.5,0,0,1,323.65,134.09Z" style="fill:#e0e0e0"></path><path d="M311.09,95.49a.5.5,0,0,1-.5-.5v-1.5a.5.5,0,0,1,.5-.5.51.51,0,0,1,.5.5V95A.5.5,0,0,1,311.09,95.49Z" style="fill:#e0e0e0"></path><path d="M311.09,128.94a.5.5,0,0,1-.5-.5v-2.79a.5.5,0,0,1,.5-.5.51.51,0,0,1,.5.5v2.79A.5.5,0,0,1,311.09,128.94Zm0-5.57a.5.5,0,0,1-.5-.5v-2.79a.5.5,0,0,1,.5-.5.5.5,0,0,1,.5.5v2.79A.51.51,0,0,1,311.09,123.37Zm0-5.58a.5.5,0,0,1-.5-.5v-2.78a.5.5,0,0,1,.5-.5.5.5,0,0,1,.5.5v2.78A.5.5,0,0,1,311.09,117.79Zm0-5.57a.5.5,0,0,1-.5-.5v-2.79a.5.5,0,0,1,.5-.5.5.5,0,0,1,.5.5v2.79A.51.51,0,0,1,311.09,112.22Zm0-5.58a.5.5,0,0,1-.5-.5v-2.78a.5.5,0,0,1,.5-.5.5.5,0,0,1,.5.5v2.78A.5.5,0,0,1,311.09,106.64Zm0-5.57a.5.5,0,0,1-.5-.5V97.78a.5.5,0,0,1,.5-.5.5.5,0,0,1,.5.5v2.79A.51.51,0,0,1,311.09,101.07Z" style="fill:#e0e0e0"></path><path d="M311.09,133.23a.5.5,0,0,1-.5-.5v-1.5a.5.5,0,0,1,.5-.5.5.5,0,0,1,.5.5v1.5A.5.5,0,0,1,311.09,133.23Z" style="fill:#e0e0e0"></path><path d="M298.52,83.54a.5.5,0,0,1-.5-.5v-1.5a.5.5,0,0,1,.5-.5.5.5,0,0,1,.5.5V83A.5.5,0,0,1,298.52,83.54Z" style="fill:#e0e0e0"></path><path d="M298.52,128.89a.5.5,0,0,1-.5-.5v-2.83a.5.5,0,0,1,.5-.5.5.5,0,0,1,.5.5v2.83A.5.5,0,0,1,298.52,128.89Zm0-5.66a.51.51,0,0,1-.5-.5v-2.84a.5.5,0,0,1,.5-.5.5.5,0,0,1,.5.5v2.84A.5.5,0,0,1,298.52,123.23Zm0-5.67a.51.51,0,0,1-.5-.5v-2.84a.51.51,0,0,1,.5-.5.5.5,0,0,1,.5.5v2.84A.5.5,0,0,1,298.52,117.56Zm0-5.67a.51.51,0,0,1-.5-.5v-2.84a.51.51,0,0,1,.5-.5.5.5,0,0,1,.5.5v2.84A.5.5,0,0,1,298.52,111.89Zm0-5.67a.51.51,0,0,1-.5-.5v-2.84a.51.51,0,0,1,.5-.5.5.5,0,0,1,.5.5v2.84A.5.5,0,0,1,298.52,106.22Zm0-5.67a.51.51,0,0,1-.5-.5V97.21a.51.51,0,0,1,.5-.5.5.5,0,0,1,.5.5v2.84A.5.5,0,0,1,298.52,100.55Zm0-5.67a.5.5,0,0,1-.5-.5V91.54a.51.51,0,0,1,.5-.5.5.5,0,0,1,.5.5v2.84A.5.5,0,0,1,298.52,94.88Zm0-5.67a.5.5,0,0,1-.5-.5V85.88a.5.5,0,0,1,.5-.5.5.5,0,0,1,.5.5v2.83A.5.5,0,0,1,298.52,89.21Z" style="fill:#e0e0e0"></path><path d="M298.52,133.23a.5.5,0,0,1-.5-.5v-1.5a.5.5,0,0,1,.5-.5.5.5,0,0,1,.5.5v1.5A.5.5,0,0,1,298.52,133.23Z" style="fill:#e0e0e0"></path><path d="M286,96.36a.5.5,0,0,1-.5-.5v-1.5a.5.5,0,0,1,1,0v1.5A.5.5,0,0,1,286,96.36Z" style="fill:#e0e0e0"></path><path d="M286,134.53a.5.5,0,0,1-.5-.5v-3.18a.5.5,0,1,1,1,0V134A.5.5,0,0,1,286,134.53Zm0-6.36a.5.5,0,0,1-.5-.5v-3.18a.5.5,0,0,1,1,0v3.18A.5.5,0,0,1,286,128.17Zm0-6.36a.5.5,0,0,1-.5-.5v-3.18a.5.5,0,0,1,1,0v3.18A.5.5,0,0,1,286,121.81Zm0-6.37a.5.5,0,0,1-.5-.5v-3.18a.5.5,0,1,1,1,0v3.18A.5.5,0,0,1,286,115.44Zm0-6.36a.5.5,0,0,1-.5-.5V105.4a.5.5,0,0,1,1,0v3.18A.5.5,0,0,1,286,109.08Zm0-6.36a.5.5,0,0,1-.5-.5V99a.5.5,0,0,1,1,0v3.18A.5.5,0,0,1,286,102.72Z" style="fill:#e0e0e0"></path><path d="M286,139.21a.5.5,0,0,1-.5-.5v-1.5a.5.5,0,1,1,1,0v1.5A.5.5,0,0,1,286,139.21Z" style="fill:#e0e0e0"></path><path d="M273.4,89.1a.5.5,0,0,1-.5-.5V87.1a.5.5,0,0,1,.5-.5.51.51,0,0,1,.5.5v1.5A.5.5,0,0,1,273.4,89.1Z" style="fill:#e0e0e0"></path><path d="M273.4,151.82a.5.5,0,0,1-.5-.5v-3.14a.5.5,0,0,1,.5-.5.51.51,0,0,1,.5.5v3.14A.5.5,0,0,1,273.4,151.82Zm0-6.27a.5.5,0,0,1-.5-.5v-3.14a.5.5,0,0,1,.5-.5.51.51,0,0,1,.5.5v3.14A.51.51,0,0,1,273.4,145.55Zm0-6.27a.5.5,0,0,1-.5-.5v-3.14a.5.5,0,0,1,.5-.5.5.5,0,0,1,.5.5v3.14A.51.51,0,0,1,273.4,139.28Zm0-6.28a.5.5,0,0,1-.5-.5v-3.13a.5.5,0,0,1,.5-.5.5.5,0,0,1,.5.5v3.13A.5.5,0,0,1,273.4,133Zm0-6.27a.5.5,0,0,1-.5-.5V123.1a.5.5,0,0,1,.5-.5.5.5,0,0,1,.5.5v3.13A.5.5,0,0,1,273.4,126.73Zm0-6.27a.5.5,0,0,1-.5-.5v-3.14a.5.5,0,0,1,.5-.5.51.51,0,0,1,.5.5V120A.5.5,0,0,1,273.4,120.46Zm0-6.27a.5.5,0,0,1-.5-.5v-3.14a.5.5,0,0,1,.5-.5.51.51,0,0,1,.5.5v3.14A.5.5,0,0,1,273.4,114.19Zm0-6.27a.5.5,0,0,1-.5-.5v-3.14a.5.5,0,0,1,.5-.5.51.51,0,0,1,.5.5v3.14A.51.51,0,0,1,273.4,107.92Zm0-6.27a.5.5,0,0,1-.5-.5V98a.5.5,0,0,1,.5-.5.5.5,0,0,1,.5.5v3.14A.51.51,0,0,1,273.4,101.65Zm0-6.28a.5.5,0,0,1-.5-.5V91.74a.5.5,0,0,1,.5-.5.5.5,0,0,1,.5.5v3.13A.5.5,0,0,1,273.4,95.37Z" style="fill:#e0e0e0"></path><path d="M273.4,156.46a.5.5,0,0,1-.5-.5v-1.5a.5.5,0,0,1,.5-.5.5.5,0,0,1,.5.5V156A.51.51,0,0,1,273.4,156.46Z" style="fill:#e0e0e0"></path><path d="M260.83,81.85a.5.5,0,0,1-.5-.5v-1.5a.5.5,0,0,1,.5-.5.5.5,0,0,1,.5.5v1.5A.5.5,0,0,1,260.83,81.85Z" style="fill:#e0e0e0"></path><path d="M260.83,158.74a.5.5,0,0,1-.5-.5v-3a.51.51,0,0,1,.5-.5.5.5,0,0,1,.5.5v3A.5.5,0,0,1,260.83,158.74Zm0-5.92a.5.5,0,0,1-.5-.5v-2.95a.5.5,0,0,1,.5-.5.5.5,0,0,1,.5.5v2.95A.5.5,0,0,1,260.83,152.82Zm0-5.91a.5.5,0,0,1-.5-.5v-3a.51.51,0,0,1,.5-.5.5.5,0,0,1,.5.5v3A.5.5,0,0,1,260.83,146.91Zm0-5.91a.51.51,0,0,1-.5-.5v-3a.5.5,0,0,1,.5-.5.5.5,0,0,1,.5.5v3A.5.5,0,0,1,260.83,141Zm0-5.92a.5.5,0,0,1-.5-.5v-3a.51.51,0,0,1,.5-.5.5.5,0,0,1,.5.5v3A.5.5,0,0,1,260.83,135.08Zm0-5.91a.51.51,0,0,1-.5-.5v-3a.5.5,0,0,1,.5-.5.5.5,0,0,1,.5.5v3A.5.5,0,0,1,260.83,129.17Zm0-5.92a.5.5,0,0,1-.5-.5v-3a.51.51,0,0,1,.5-.5.5.5,0,0,1,.5.5v3A.5.5,0,0,1,260.83,123.25Zm0-5.91a.51.51,0,0,1-.5-.5v-3a.5.5,0,0,1,.5-.5.5.5,0,0,1,.5.5v3A.5.5,0,0,1,260.83,117.34Zm0-5.92a.5.5,0,0,1-.5-.5v-3a.51.51,0,0,1,.5-.5.5.5,0,0,1,.5.5v3A.5.5,0,0,1,260.83,111.42Zm0-5.91a.51.51,0,0,1-.5-.5v-3a.5.5,0,0,1,.5-.5.5.5,0,0,1,.5.5v3A.5.5,0,0,1,260.83,105.51Zm0-5.92a.5.5,0,0,1-.5-.5v-3a.51.51,0,0,1,.5-.5.5.5,0,0,1,.5.5v3A.5.5,0,0,1,260.83,99.59Zm0-5.91a.51.51,0,0,1-.5-.5v-3a.5.5,0,0,1,.5-.5.5.5,0,0,1,.5.5v3A.5.5,0,0,1,260.83,93.68Zm0-5.92a.5.5,0,0,1-.5-.5v-3a.5.5,0,0,1,.5-.5.5.5,0,0,1,.5.5v3A.5.5,0,0,1,260.83,87.76Z" style="fill:#e0e0e0"></path><path d="M260.83,163.2a.51.51,0,0,1-.5-.5v-1.5a.5.5,0,0,1,.5-.5.5.5,0,0,1,.5.5v1.5A.5.5,0,0,1,260.83,163.2Z" style="fill:#e0e0e0"></path></g></g></g><g id="freepik--Stars--inject-136"><path d="M69.48,138.3c0,2.82,4.38,2.82,4.34,0S69.44,135.48,69.48,138.3Z" style="fill:#e0e0e0"></path><path d="M76.62,156c-.08,5.63,8.76,5.63,8.68,0C85.38,150.4,76.54,150.4,76.62,156Z" style="fill:#e0e0e0"></path><path d="M149.89,59.34c-.07,5.19,8.08,5.19,8,0C158,54.15,149.81,54.15,149.89,59.34Z" style="fill:#e0e0e0"></path><path d="M161.85,70.27c0,3.1,4.82,3.1,4.77,0S161.8,67.18,161.85,70.27Z" style="fill:#e0e0e0"></path><path d="M168.62,55.34c0,2.5,3.89,2.5,3.85,0S168.58,52.84,168.62,55.34Z" style="fill:#e0e0e0"></path><path d="M85.49,60c0,3.37,5.25,3.37,5.2,0S85.44,56.57,85.49,60Z" style="fill:#BA68C8"></path><path d="M57.58,91.1l5.1,1.77c1.85,7.16,1.43,7,5.77,1.1,7.49.42,7.16.93,2.84-5.15,2.71-7,3.09-6.52-4-4.29C61.46,79.8,62,79.57,62,87,61.68,87.61,55.62,90.13,57.58,91.1Z" style="fill:#BA68C8"></path></g><g id="freepik--Moon--inject-136"><path id="freepik--moon--inject-136" d="M146.46,106.24v.12a25.21,25.21,0,1,1-24.11-27.65,19.9,19.9,0,1,0,24.12,27.53Z" style="fill:#BA68C8"></path></g></svg>