<?xml version="1.0" encoding="utf-8"?><!-- Uploaded to: SVG Repo, www.svgrepo.com, Generator: SVG Repo Mixer Tools -->
<svg width="800px" height="800px" viewBox="0 0 24 24" fill="none" xmlns="http://www.w3.org/2000/svg">
<path fill-rule="evenodd" clip-rule="evenodd" d="M15 8.25V9L13.5 9V6H15V6.75L19.5 6.75V8.25L15 8.25ZM9 13.5L9 10.5L7.5 10.5L7.5 11.25L4.5 11.25V12.75L7.5 12.75L7.5 13.5H9ZM17.25 15V15.75H19.5V17.25H17.25V18H15.75V15H17.25ZM4.5 15.75V17.25H15V15.75H4.5ZM9.75 11.25L19.5 11.25V12.75L9.75 12.75V11.25ZM4.5 6.75H12.75V8.25H4.5V6.75Z" fill="#080341"/>
</svg>