<?xml version="1.0" encoding="utf-8"?><!-- Uploaded to: SVG Repo, www.svgrepo.com, Generator: SVG Repo Mixer Tools -->
<svg width="800px" height="800px" viewBox="0 0 24 24" fill="none" xmlns="http://www.w3.org/2000/svg">
<path d="M9 11C9.55228 11 10 10.5523 10 10C10 9.44772 9.55228 9 9 9C8.44772 9 8 9.44772 8 10C8 10.5523 8.44772 11 9 11Z" fill="#0F1729"/>
<path d="M16 10C16 10.5523 15.5523 11 15 11C14.4477 11 14 10.5523 14 10C14 9.44772 14.4477 9 15 9C15.5523 9 16 9.44772 16 10Z" fill="#0F1729"/>
<path fill-rule="evenodd" clip-rule="evenodd" d="M12 2C6.47715 2 2 6.47715 2 12C2 17.5228 6.47715 22 12 22C17.5228 22 22 17.5228 22 12C22 6.47715 17.5228 2 12 2ZM4 12C4 7.58172 7.58172 4 12 4C16.4183 4 20 7.58172 20 12C20 16.4183 16.4183 20 12 20C7.58172 20 4 16.4183 4 12Z" fill="#0F1729"/>
<path d="M9.77332 14.366C9.42674 13.9431 8.80344 13.8766 8.37531 14.2191C7.94404 14.5641 7.87473 15.1942 8.21974 15.6255L8.22037 15.6262L8.22171 15.6279L8.22469 15.6316L8.23186 15.6403L8.25103 15.6632C8.26596 15.6807 8.28523 15.7026 8.30885 15.7285C8.35604 15.7801 8.4209 15.8474 8.50356 15.9248C8.66848 16.0795 8.90695 16.2773 9.22 16.473C9.85005 16.8668 10.7812 17.25 12 17.25C13.2188 17.25 14.1499 16.8668 14.78 16.473C15.093 16.2773 15.3315 16.0795 15.4964 15.9248C15.5791 15.8474 15.644 15.7801 15.6912 15.7285C15.7148 15.7026 15.734 15.6807 15.749 15.6632L15.7681 15.6403L15.7753 15.6316L15.7783 15.6279L15.7796 15.6262L15.7809 15.6247C16.1259 15.1934 16.056 14.5641 15.6247 14.2191C15.1966 13.8766 14.5733 13.9431 14.2267 14.366C14.225 14.368 14.2211 14.3724 14.2151 14.3789C14.1998 14.3957 14.1709 14.4261 14.1286 14.4658C14.0435 14.5455 13.907 14.6602 13.72 14.777C13.3501 15.0082 12.7812 15.25 12 15.25C11.2188 15.25 10.6499 15.0082 10.28 14.777C10.093 14.6602 9.95652 14.5455 9.87144 14.4658C9.8291 14.4261 9.80021 14.3957 9.7849 14.3789C9.77889 14.3724 9.77503 14.368 9.77332 14.366Z" fill="#0F1729"/>
</svg>