<svg xmlns="http://www.w3.org/2000/svg" viewBox="0 0 500 500"><g id="freepik--background-complete--inject-158"><rect x="432.61" y="114.43" width="48.65" height="12.87" style="fill:#ebebeb"></rect><path d="M229.15,412.37a28.1,28.1,0,1,0-52.33,14.2h0l.08.1c1.08,1.82,2.43,3.12,3.8,5L197,453.31a5.07,5.07,0,0,0,8.1,0l16-21.26a58.93,58.93,0,0,0,4.08-5.41l.06-.07h0A28,28,0,0,0,229.15,412.37ZM201,424.6a12.37,12.37,0,1,1,12.37-12.36A12.36,12.36,0,0,1,201,424.6Z" style="fill:#e0e0e0"></path><rect x="76.19" y="53.25" width="48.65" height="12.87" style="fill:#ebebeb"></rect><path d="M103.64,79.68a2.07,2.07,0,0,1,0-.23l0-.66c0-.61,0-1.45,0-2.54,0-2.22,0-5.41-.08-9.44l.15.15L55,67.06l.25-.25h0V70.1c0,1.09,0,2.18,0,3.25v6.33L55,79.44l34.67.11,10.23.07,2.77,0,.72,0h.26s-.07,0-.22,0h-.7l-2.71,0-10.18.07L55,79.92h-.24v-.24q0-3.11,0-6.33V66.83h0l.25-.25,48.65.1h.15v.15c0,4.07-.06,7.29-.08,9.53,0,1.07,0,1.91,0,2.5,0,.26,0,.47,0,.64S103.65,79.69,103.64,79.68Z" style="fill:#e0e0e0"></path><rect x="427.22" y="393.3" width="48.65" height="12.87" style="fill:#ebebeb"></rect><path d="M454.67,419.72a1,1,0,0,1,0-.23c0-.17,0-.39,0-.66,0-.61,0-1.45,0-2.53,0-2.23-.05-5.42-.08-9.45l.15.15-48.65.1c.11-.11-.25.25.24-.25h0v12.86l-.24-.24,34.67.11,10.23.07,2.77,0,.72,0h.26l-.23,0h-.69l-2.72,0-10.17.07L406,420h-.25V406.86h0c.49-.49.14-.13.25-.25l48.65.1h.15v.15c0,4.07-.06,7.29-.08,9.54,0,1.06,0,1.9,0,2.5,0,.26,0,.46,0,.63A1.23,1.23,0,0,1,454.67,419.72Z" style="fill:#e0e0e0"></path><path d="M347,59.25a2.07,2.07,0,0,1,0-.23l0-.66c0-.61,0-1.45,0-2.53,0-2.22,0-5.42-.08-9.45l.15.15-48.65.1.25-.25h0v6.53q0,3.22,0,6.33l-.24-.24,34.67.11,10.23.07,2.77,0,.73,0H347s-.07,0-.22,0l-.7,0-2.71,0-10.18.07-34.84.11h-.24v-.25c0-2.07,0-4.18,0-6.33V46.39h0l.25-.24,48.65.09h.15v.15c0,4.07-.06,7.29-.08,9.54,0,1.07,0,1.9,0,2.5v.63C347,59.19,347,59.26,347,59.25Z" style="fill:#e0e0e0"></path><path d="M353.6,46.38a1.22,1.22,0,0,1,0-.24l0-.68c0-.64,0-1.5,0-2.58,0-2.26-.06-5.45-.1-9.37l.18.18-29.23.07c-.22.22.3-.3.24-.25h0v6.62c0,2.16,0,4.24,0,6.24l-.23-.23,20.91.11,6.09.06,1.64,0,.59,0a3.28,3.28,0,0,1-.53,0l-1.6,0-6,.07-21.07.11h-.24v-.24c0-2,0-4.08,0-6.24V33.52h0l.25-.25,29.23.07h.18v.18c0,4-.08,7.19-.1,9.47,0,1.07,0,1.92,0,2.54S353.61,46.4,353.6,46.38Z" style="fill:#e0e0e0"></path><path d="M72.44,425.39s0-.09,0-.24l0-.66c0-.6,0-1.45,0-2.53,0-2.22,0-5.42-.09-9.44l.15.15-48.65.09.25-.24h0v6.52c0,2.14,0,4.26,0,6.33l-.24-.25,34.67.12,10.23.06,2.77,0h.73l.25,0h-.22l-.7,0-2.71,0-10.18.07-34.84.11h-.24v-.24c0-2.07,0-4.19,0-6.33v-6.52h0l.25-.25,48.65.1h.15v.15c0,4.06-.06,7.29-.08,9.53,0,1.07,0,1.9,0,2.5v.63A.85.85,0,0,1,72.44,425.39Z" style="fill:#e0e0e0"></path><path d="M79,412.52a1.41,1.41,0,0,1,0-.25c0-.18,0-.41,0-.68,0-.63,0-1.49,0-2.58,0-2.26-.06-5.45-.1-9.36l.18.17-29.23.07.24-.24h0v6.61c0,2.15,0,4.24,0,6.24l-.23-.24,20.91.11,6.09.07,1.64,0,.59,0a3.28,3.28,0,0,1-.53,0l-1.6,0-6,.06-21.07.11h-.24v-.23c0-2,0-4.09,0-6.24v-6.61h0l.25-.25,29.23.07h.18v.18c0,4-.08,7.18-.1,9.47,0,1.07,0,1.91,0,2.54S79.05,412.53,79,412.52Z" style="fill:#e0e0e0"></path></g><g id="freepik--Table--inject-158"><path d="M456.94,462.61c0,.14-95.77.26-213.88.26s-213.9-.12-213.9-.26,95.75-.26,213.9-.26S456.94,462.47,456.94,462.61Z" style="fill:#263238"></path></g><g id="freepik--Device--inject-158"><rect x="36.81" y="84.99" width="412.54" height="287.47" rx="12.83" style="fill:#263238"></rect><path d="M449.35,97.82l-.06-.9a7.64,7.64,0,0,0-.13-1.1,10.1,10.1,0,0,0-.34-1.51,12.76,12.76,0,0,0-6.41-7.82A13.2,13.2,0,0,0,439,85.3a19.45,19.45,0,0,0-4-.24h-9.29l-23.17,0-147.65.09-102,0H51.23a20.34,20.34,0,0,0-3.76.2,12.09,12.09,0,0,0-3.55,1.19,12.65,12.65,0,0,0-5.32,5.18,13.58,13.58,0,0,0-1.28,3.55,19.33,19.33,0,0,0-.24,3.82v23.53q0,15.83,0,32v66c0,44.85,0,91.28,0,138.84a12.53,12.53,0,0,0,10.21,12.35,22.59,22.59,0,0,0,4.37.22H168.34l129.34,0,117,0h20.35a21.22,21.22,0,0,0,3.3-.15A12.54,12.54,0,0,0,449,361.38a21.33,21.33,0,0,0,.13-3.21c0-1.08,0-2.15,0-3.23v-6.41q0-25.51,0-48.93c0-62.33.07-112.78.09-147.65,0-17.42,0-31,.05-40.14,0-4.58,0-8.08,0-10.44s0-3.55,0-3.55,0,1.2,0,3.55,0,5.86,0,10.44c0,9.18,0,22.72,0,40.14,0,34.87.06,85.32.1,147.65q0,23.38,0,48.93c0,2.13,0,4.26,0,6.41v3.23a22.49,22.49,0,0,1-.14,3.27,13.1,13.1,0,0,1-7.76,10.18,13.41,13.41,0,0,1-3.25.91,22.31,22.31,0,0,1-3.36.16H414.72l-117,0-129.34,0H51.68a23.23,23.23,0,0,1-4.47-.23,13.12,13.12,0,0,1-10.69-12.92c0-47.56,0-94,0-138.84q0-33.63,0-66V99.19a19.88,19.88,0,0,1,.26-3.92,14.23,14.23,0,0,1,1.33-3.7,13.39,13.39,0,0,1,5.55-5.41,12.69,12.69,0,0,1,3.7-1.23,20.82,20.82,0,0,1,3.85-.21H96.1l56.8,0,102,0,147.65.09,23.17,0H435a20.34,20.34,0,0,1,4,.26,12.83,12.83,0,0,1,3.44,1.22,12.8,12.8,0,0,1,6.42,7.91,9.81,9.81,0,0,1,.32,1.51,7.55,7.55,0,0,1,.12,1.11C449.35,97.51,449.35,97.82,449.35,97.82Z" style="fill:#263238"></path><path d="M428.62,217.69a11,11,0,1,1-11,11A11,11,0,0,1,428.62,217.69Z" style="fill:#455a64"></path><path d="M58.61,199.27V258a4.09,4.09,0,0,1-4.09,4.1h0a4.1,4.1,0,0,1-4.1-4.1v-58.7a4.1,4.1,0,0,1,4.1-4.1h0A4.09,4.09,0,0,1,58.61,199.27Z" style="fill:#455a64"></path><rect x="66.24" y="94.3" width="344.52" height="269.34" style="fill:#ebebeb"></rect><polygon points="288.37 288.73 315.01 335.68 380.51 334.71 376.8 283.76 288.37 288.73" style="fill:#e0e0e0"></polygon><polygon points="201.79 130.18 192.17 204.39 212.04 209.13 250.89 205.27 243.76 124.2 201.79 130.18" style="fill:#e0e0e0"></polygon><polygon points="141.44 282.06 95.52 282.06 95.52 226.77 145.42 227.27 141.44 282.06" style="fill:#f5f5f5"></polygon><path d="M330.48,283.76c0-1.57,8.09-56.49,8.09-56.49s31.66-8.67,31.78-7.43,6.3,62.46,6.3,62.46Z" style="fill:#f5f5f5"></path><path d="M100.8,143.1c.09,1.34,21.93,45.26,21.93,45.26l25.29-6.7V131.13l-26.08-.6Z" style="fill:#e0e0e0"></path><rect x="220.27" y="234.74" width="34.97" height="16.5" style="fill:#e0e0e0"></rect><polygon points="255.4 256.71 220.18 258.49 218.39 291.93 258.61 288.73 255.4 256.71" style="fill:#e0e0e0"></polygon><polygon points="396.48 194.7 391.59 126.82 410.67 126.82 410.76 193.35 396.48 194.7" style="fill:#e0e0e0"></polygon><polygon points="318.34 115.7 326.29 200.29 368 196.55 360.72 124.4 327.7 115.7 318.34 115.7" style="fill:#e0e0e0"></polygon><polygon points="126.7 130.83 66.48 129.92 66.54 125.92 123.44 126.78 130.01 94.33 133.94 95.12 126.7 130.83" style="fill:#fff"></polygon><polygon points="95.23 196.17 66.05 130.73 66.96 130.32 95.8 194.98 147.9 181.17 148.15 182.14 95.23 196.17" style="fill:#fff"></polygon><rect x="66.52" y="226.27" width="78.91" height="2" style="fill:#fff"></rect><rect x="95.01" y="195.58" width="1" height="86.49" style="fill:#fff"></rect><rect x="66.52" y="281.62" width="75.19" height="1" style="fill:#fff"></rect><polygon points="137.81 360.31 66.2 344.51 67.06 340.6 134.16 355.41 145.67 195.26 147.4 128.65 150.09 94.57 154.07 94.88 151.39 128.91 149.67 195.46 137.81 360.31" style="fill:#fff"></polygon><polygon points="149.23 133.26 124.87 130.8 125.28 126.82 146.81 129 150.37 121.4 182.46 129.18 326.76 112.73 377.03 125.79 410.61 124.82 410.73 128.81 376.58 129.81 326.47 116.79 182.21 133.23 152.61 126.06 149.23 133.26" style="fill:#fff"></polygon><polygon points="317 286.87 313.03 286.35 324.27 200.27 315.63 115.78 315.63 94.3 319.63 94.3 319.63 115.68 328.3 200.32 317 286.87" style="fill:#fff"></polygon><polygon points="139.74 298.71 139.5 294.72 375.37 280.38 407.47 215.02 411.06 216.78 377.94 284.23 376.78 284.3 139.74 298.71" style="fill:#fff"></polygon><polygon points="257.84 291.14 242.76 124.29 241.94 94.76 243.94 94.7 244.76 124.18 259.83 290.96 257.84 291.14" style="fill:#fff"></polygon><polygon points="226.18 362.57 208.74 291.35 208.74 210.79 189.11 205.91 197.63 129.44 196.84 94.34 200.84 94.25 201.64 129.62 201.63 129.75 193.47 202.87 212.74 207.67 212.74 290.86 230.07 361.62 226.18 362.57" style="fill:#fff"></polygon><rect x="145.42" y="226.77" width="65.32" height="1" style="fill:#fff"></rect><rect x="168.98" y="177.63" width="1" height="44.54" transform="translate(-60.49 325.59) rotate(-78.37)" style="fill:#fff"></rect><polygon points="210.63 260.38 195.11 256.95 195.11 227.27 196.11 227.27 196.11 256.15 210.85 259.4 210.63 260.38" style="fill:#fff"></polygon><polygon points="186.4 362.52 177.68 334.53 137.77 334.53 137.77 330.53 180.62 330.53 190.22 361.33 186.4 362.52" style="fill:#fff"></polygon><polygon points="314.72 336.19 287.94 288.97 288.81 288.48 315.3 335.18 410.54 333.76 410.56 334.76 314.72 336.19" style="fill:#fff"></polygon><rect x="360.58" y="335.68" width="1" height="26.96" style="fill:#fff"></rect><polygon points="380.01 334.75 376.3 283.8 357.18 94.35 358.18 94.25 377.3 283.71 381.01 334.67 380.01 334.75" style="fill:#fff"></polygon><rect x="210.42" y="200.79" width="200.65" height="1" transform="translate(-14.95 25.21) rotate(-4.54)" style="fill:#fff"></rect><rect x="393.56" y="128.41" width="2" height="66.43" transform="translate(-12.88 35.94) rotate(-5.13)" style="fill:#fff"></rect><rect x="365.22" y="169.26" width="30.19" height="1" transform="translate(-29.64 96.32) rotate(-13.9)" style="fill:#fff"></rect><polygon points="381.97 168.97 376.78 139.55 362.15 138 362.25 137.01 377.63 138.64 382.95 168.79 381.97 168.97" style="fill:#fff"></polygon><rect x="284.4" y="120.72" width="2" height="81.32" transform="translate(-12.74 24.97) rotate(-4.9)" style="fill:#fff"></rect><rect x="286.01" y="169" width="36.29" height="1" transform="translate(-29.31 69.3) rotate(-12.41)" style="fill:#fff"></rect><rect x="298.97" y="348.8" width="28.46" height="2" transform="translate(-73.78 615.68) rotate(-82.65)" style="fill:#fff"></rect><polygon points="149.4 228.97 145.42 291.05 207.47 288.03 207.47 263.67 191.22 260.08 191.22 231.64 149.4 228.97" style="fill:#e0e0e0"></polygon><path d="M132.31,244.09a14.1,14.1,0,1,0-26.26,7.13h0l0,.05c.54.91,1.21,1.56,1.9,2.52l8.18,10.84a2.55,2.55,0,0,0,4.07,0l8-10.66a31.26,31.26,0,0,0,2.05-2.71l0,0h0A14,14,0,0,0,132.31,244.09Zm-14.1,6.14a6.21,6.21,0,1,1,6.2-6.2A6.21,6.21,0,0,1,118.21,250.23Z" style="fill:#FF725E"></path><path d="M265,194.48a14.1,14.1,0,1,0-26.25,7.12h0l0,.06c.54.91,1.22,1.56,1.91,2.52L248.86,215a2.55,2.55,0,0,0,4.07,0L261,204.35a29.77,29.77,0,0,0,2-2.71l0,0h0A14,14,0,0,0,265,194.48Zm-14.1,6.14a6.21,6.21,0,1,1,6.21-6.21A6.21,6.21,0,0,1,250.89,200.62Z" style="fill:#FF725E"></path><path d="M206.46,316.62a9.67,9.67,0,1,0-18,4.88h0l0,0c.37.62.84,1.07,1.31,1.72l5.61,7.44a1.75,1.75,0,0,0,2.78,0l5.52-7.31a22.08,22.08,0,0,0,1.41-1.86l0,0h0A9.62,9.62,0,0,0,206.46,316.62Zm-9.67,4.21a4.26,4.26,0,1,1,4.25-4.26A4.25,4.25,0,0,1,196.79,320.83Z" style="fill:#FF725E"></path><path d="M381.87,141.1a9.67,9.67,0,0,0-19.18-1.71,9.57,9.57,0,0,0,1.18,6.59h0l0,0c.37.62.84,1.07,1.31,1.73l5.61,7.43a1.75,1.75,0,0,0,2.78,0l5.52-7.31a22.08,22.08,0,0,0,1.41-1.86l0,0h0A9.62,9.62,0,0,0,381.87,141.1Zm-9.67,4.21a4.26,4.26,0,1,1,4.25-4.25A4.25,4.25,0,0,1,372.2,145.31Z" style="fill:#FF725E"></path><path d="M176,145.7a17.14,17.14,0,1,0-31.92,8.66h0l.05.06c.65,1.11,1.48,1.9,2.31,3.06l9.95,13.19a3.1,3.1,0,0,0,4.94,0l9.79-13a36.47,36.47,0,0,0,2.49-3.3l0,0h0A17.11,17.11,0,0,0,176,145.7Zm-17.15,7.46a7.55,7.55,0,1,1,7.55-7.54A7.55,7.55,0,0,1,158.85,153.16Z" style="fill:#FF725E"></path></g><g id="freepik--Plant--inject-158"><path d="M84,419.57S61.48,393.72,53,367.86,48.56,345,48.56,345,60,370.09,68.69,382.22s24.16,29.94,24.16,29.94Z" style="fill:#455a64"></path><path d="M88.43,349a1.31,1.31,0,0,0-2.44.83c1.37,9.09,4.33,30.4,4.21,44.22-.15,18,0,24.9,0,24.9h9.35s-1.66-37.12-3.77-48.44C94.31,362.58,91.16,353.77,88.43,349Z" style="fill:#455a64"></path><path d="M93.52,415.93a98.85,98.85,0,0,0,7.7-27.91c.77-6.61-.6-15.55-2.65-27.47a74.08,74.08,0,0,1-1.18-13.21,2.23,2.23,0,0,1,4.19-1c1.13,2,4.39,8.89,5.22,13.21,2.27,11.77,4.83,17.65,2.87,28.82s-9.2,28.37-9.2,28.37Z" style="fill:#455a64"></path><path d="M102,416.69s24.66-53,26.37-60.87,7.52-26,8.21-25,1.71,10.6-2.74,21.54-23.42,65.9-23.42,65.9H102" style="fill:#455a64"></path><path d="M90.82,414.32a5.36,5.36,0,0,1-.69-.48c-.44-.33-1.1-.8-1.91-1.46-1.64-1.29-3.94-3.25-6.63-5.85a111.27,111.27,0,0,1-17.89-23A150.83,150.83,0,0,1,51.48,357.1c-1.24-3.52-2.14-6.4-2.73-8.4-.3-1-.51-1.78-.66-2.31a6.32,6.32,0,0,1-.19-.82,5.23,5.23,0,0,1,.3.79q.27.84.75,2.28c.64,2,1.6,4.84,2.88,8.34a160.58,160.58,0,0,0,12.32,26.31,116.47,116.47,0,0,0,17.7,23c2.64,2.62,4.9,4.62,6.5,6,.79.69,1.43,1.18,1.85,1.54A4.12,4.12,0,0,1,90.82,414.32Z" style="fill:#263238"></path><path d="M93.52,388.89a10.3,10.3,0,0,1-.22-1.56c-.12-1.1-.27-2.53-.45-4.25-.39-3.58-1-8.53-1.88-14s-1.84-10.32-2.6-13.85c-.36-1.69-.66-3.1-.9-4.18a8.15,8.15,0,0,1-.27-1.55,10.46,10.46,0,0,1,.47,1.5c.28,1,.65,2.39,1.07,4.15.85,3.51,1.88,8.4,2.75,13.84s1.43,10.42,1.73,14c.15,1.8.24,3.26.29,4.27A8.63,8.63,0,0,1,93.52,388.89Z" style="fill:#263238"></path><path d="M99.3,345.87a3.65,3.65,0,0,1,.29.68l.74,2c.33.85.7,1.9,1.06,3.15s.84,2.65,1.2,4.25c.19.79.4,1.62.61,2.49s.35,1.79.54,2.73c.4,1.88.65,3.92,1,6.06a98.62,98.62,0,0,1,.59,14.05,98.37,98.37,0,0,1-1.59,14c-.45,2.12-.85,4.14-1.38,6-.26.92-.47,1.83-.74,2.68s-.54,1.66-.79,2.44c-.47,1.57-1,2.93-1.5,4.15s-.89,2.24-1.28,3.07l-.88,1.91a3.1,3.1,0,0,1-.34.65,4.79,4.79,0,0,1,.24-.69l.79-1.95c.36-.84.78-1.87,1.2-3.1s1-2.59,1.42-4.15l.75-2.45c.26-.85.46-1.75.7-2.67.52-1.85.89-3.86,1.33-6a103.71,103.71,0,0,0,1.55-13.9,104,104,0,0,0-.55-14c-.28-2.13-.52-4.17-.9-6-.18-.94-.31-1.86-.51-2.72l-.57-2.49c-.34-1.6-.78-3-1.12-4.25s-.68-2.31-1-3.18-.49-1.49-.65-2A3.42,3.42,0,0,1,99.3,345.87Z" style="fill:#263238"></path><path d="M136.25,331.92a2.18,2.18,0,0,1,0,.24c0,.19-.07.41-.11.69-.11.6-.25,1.5-.49,2.64-.48,2.28-1.27,5.56-2.5,9.54s-2.92,8.65-4.92,13.78-4.3,10.72-6.49,16.67-3.93,11.75-5.54,17-3.11,10-4.58,13.9a88.43,88.43,0,0,1-3.89,9.06c-.5,1.05-1,1.83-1.25,2.37l-.35.61a1.23,1.23,0,0,1-.13.2s0-.08.09-.23l.29-.63c.27-.55.69-1.35,1.17-2.41,1-2.1,2.33-5.19,3.73-9.1s2.88-8.64,4.45-13.91,3.29-11.09,5.52-17.05,4.52-11.55,6.53-16.67,3.74-9.76,5-13.71,2.12-7.22,2.66-9.48c.27-1.13.44-2,.58-2.61.07-.27.12-.5.16-.68A.74.74,0,0,1,136.25,331.92Z" style="fill:#263238"></path><path d="M60.19,320.21a2.13,2.13,0,0,0-3.5,2.17,60.39,60.39,0,0,0,3.1,8c3.39,7.2,13.35,33.06,18,47.26S89,418.3,89,418.3L99,416.69s-9.11-43.53-18-59.21C73.83,344.88,66.68,326.66,60.19,320.21Z" style="fill:#455a64"></path><path d="M80.53,386.49a7.23,7.23,0,0,1,.51,1.2c.3.78.7,1.92,1.15,3.34.92,2.84,2,6.81,3.17,11.21s2.07,8.42,2.72,11.33l.75,3.45A6.53,6.53,0,0,1,89,418.3a5.71,5.71,0,0,1-.41-1.23c-.24-.91-.55-2.05-.91-3.41-.76-3-1.76-6.93-2.87-11.29s-2.19-8.37-3-11.23l-1-3.39A5.65,5.65,0,0,1,80.53,386.49Z" style="fill:#263238"></path><path d="M94,417.5a1,1,0,0,1-.06-.27c0-.21-.07-.47-.11-.78-.11-.69-.2-1.72-.41-3-.36-2.62-1-6.38-2.09-11a156.06,156.06,0,0,0-4.66-15.91c-2-5.9-4.6-12.27-7.5-18.87-5.86-13.18-11.71-24.86-15.56-33.51-1.94-4.31-3.45-7.83-4.44-10.28-.5-1.22-.86-2.18-1.12-2.83l-.27-.74a1.09,1.09,0,0,1-.08-.26s0,.07.13.24l.32.72,1.21,2.79C60.45,326.23,62,329.72,64,334c3.93,8.6,9.83,20.25,15.7,33.45,2.91,6.61,5.46,13,7.48,18.92a149.47,149.47,0,0,1,4.57,16,112,112,0,0,1,1.92,11c.18,1.31.24,2.34.31,3,0,.33,0,.59.07.79A1,1,0,0,1,94,417.5Z" style="fill:#263238"></path><path d="M99,416.69a12,12,0,0,1-.33-1.68c-.2-1.16-.46-2.71-.78-4.57-.68-3.86-1.73-9.17-3.24-15s-3.17-10.93-4.46-14.63l-1.56-4.38a11.33,11.33,0,0,1-.53-1.62,9.91,9.91,0,0,1,.72,1.55c.43,1,1,2.48,1.72,4.32a144,144,0,0,1,4.62,14.63,151.51,151.51,0,0,1,3.1,15c.28,1.94.5,3.51.61,4.61A9.7,9.7,0,0,1,99,416.69Z" style="fill:#263238"></path><rect x="80.56" y="415.26" width="38.86" height="47.35" style="fill:#FF725E"></rect><g style="opacity:0.30000000000000004"><rect x="80.56" y="415.26" width="38.86" height="47.35"></rect></g><rect x="72.55" y="415.26" width="34.48" height="47.35" style="fill:#FF725E"></rect></g><g id="freepik--Character--inject-158"><path d="M256.79,315.51s0,35.16-.44,37.14-1.47,12.52,1.1,17.41,8.68,14.8,14,16.18,8.33,0,8.33,0,3.27-22.9,2.2-29.47-3.5-20.91-3.5-20.91L262,317.16Z" style="fill:#ffbe9d"></path><polygon points="298.21 267.25 313.74 262.48 343.11 260.52 360.88 263.89 341.58 294.82 313.74 292.72 298.21 267.25" style="fill:#ffbe9d"></polygon><path d="M359.69,203.42a52.68,52.68,0,0,1-16.8,39.75q-3.76-10.87-7.51-21.76" style="fill:#263238"></path><path d="M303.07,160.14c6.45-3.52,14.24-4,21.44-2.58s13.92,4.7,20.28,8.38c3.56,2.06,7.12,4.33,9.69,7.56,4.68,5.89,9.3,15.56,9.76,23.07.36,6.07-2,21.27-4.53,26.79-2.36,5.06-13.38,8.91-18.82,10.16L291,175.46A25.26,25.26,0,0,1,303.07,160.14Z" style="fill:#263238"></path><path d="M294.46,168l12-2.14c-6.54,15.58-8.31,51.2-12.06,67.68-4.41-6.4-14.65-25.89-14.1-33.65S280.24,166.65,294.46,168Z" style="fill:#263238"></path><path d="M351.21,193.91a20.45,20.45,0,0,0-15.38-18.82l-27.56-7c-11.91-1.28-19.87,13.37-20.65,25.33-.86,13.28-1.4,27.29.15,37.21,3.12,19.93,18.39,22.51,18.39,22.51s0,9.48,0,15.3l24.62,19.51,14.32-22.39,6.16-71.37C351.28,193.81,351.24,194.36,351.21,193.91Z" style="fill:#ffbe9d"></path><path d="M293.61,208.43a2.56,2.56,0,0,0,2.46,2.59,2.45,2.45,0,0,0,2.64-2.3,2.56,2.56,0,0,0-2.46-2.59A2.44,2.44,0,0,0,293.61,208.43Z" style="fill:#263238"></path><path d="M290.61,201.18c.32.34,2.26-1.09,5-1.08s4.76,1.4,5.06,1.06c.15-.15-.17-.75-1.05-1.39a7,7,0,0,0-4.05-1.26,6.75,6.75,0,0,0-4,1.27C290.75,200.43,290.46,201,290.61,201.18Z" style="fill:#263238"></path><path d="M317.59,208.43A2.55,2.55,0,0,0,320,211a2.44,2.44,0,0,0,2.64-2.3,2.55,2.55,0,0,0-2.45-2.59A2.44,2.44,0,0,0,317.59,208.43Z" style="fill:#263238"></path><path d="M316.73,201.18c.32.34,2.26-1.09,5-1.08s4.77,1.4,5.06,1.06c.15-.15-.17-.75-1.05-1.39a7,7,0,0,0-4.05-1.26,6.77,6.77,0,0,0-4,1.27C316.87,200.43,316.58,201,316.73,201.18Z" style="fill:#263238"></path><path d="M308.14,222.79c0-.16-1.7-.46-4.47-.82-.7-.07-1.37-.22-1.48-.69a3.57,3.57,0,0,1,.47-2.09l2.09-5.34c2.9-7.61,5-13.86,4.7-14s-2.91,6-5.81,13.57l-2,5.38a4.13,4.13,0,0,0-.37,2.75,1.76,1.76,0,0,0,1.16,1,4.6,4.6,0,0,0,1.19.17C306.4,222.93,308.13,222.94,308.14,222.79Z" style="fill:#263238"></path><path d="M332.6,246s-6.49,13.69-26.43,11.78V253.1A50.22,50.22,0,0,0,332.6,246Z" style="fill:#eb996e"></path><path d="M317.6,191.24c.27.75,3,.4,6.24.8s5.83,1.28,6.26.61c.2-.32-.26-1-1.31-1.75a10.5,10.5,0,0,0-4.64-1.63,10.32,10.32,0,0,0-4.88.56C318.08,190.3,317.48,190.89,317.6,191.24Z" style="fill:#263238"></path><path d="M291.51,192.77c.48.63,2.38,0,4.66,0s4.21.43,4.65-.23c.2-.31-.11-.94-.95-1.53a6.72,6.72,0,0,0-7.5.21C291.56,191.82,291.3,192.46,291.51,192.77Z" style="fill:#263238"></path><path d="M293,175.17c1.22-3,4.51-4.8,7.74-5a17,17,0,0,1,9.19,2.68c11.87,6.86,18,23.43,29.7,30.53,2.89,1.75,6.64.15,9.09,2.46s4.05,6,2.69,9.09a27.86,27.86,0,0,0,4.07-6.88,9.39,9.39,0,0,0-.33-7.77c-1-1.76-2.81-3.1-3.3-5.07-.43-1.73.25-3.54.18-5.33a11.6,11.6,0,0,0-1.83-5.08c-4.59-8.13-10.91-15.47-19.05-20a33.68,33.68,0,0,0-17.49-4.53,25.79,25.79,0,0,0-16.64,6.61c-2.63,2.44-5.38,5-4,8.29" style="fill:#263238"></path><path d="M348.48,208.35c.21-.57,10.6-4.32,10.74,6.73.13,10.73-10.7,8.62-10.72,8.31S348.48,208.35,348.48,208.35Z" style="fill:#ffbe9d"></path><path d="M351.77,219.29c.05,0,.19.13.51.27a1.89,1.89,0,0,0,1.4,0c1.13-.43,2.07-2.24,2.1-4.17a6.09,6.09,0,0,0-.55-2.68,2.16,2.16,0,0,0-1.42-1.42,1,1,0,0,0-1.1.53c-.14.3-.07.51-.12.53s-.24-.18-.15-.62a1.16,1.16,0,0,1,.41-.68,1.43,1.43,0,0,1,1-.28,2.63,2.63,0,0,1,2,1.64,6.31,6.31,0,0,1,.68,3c0,2.16-1.14,4.2-2.69,4.66a2,2,0,0,1-1.71-.27C351.8,219.55,351.74,219.31,351.77,219.29Z" style="fill:#eb996e"></path><path d="M352.75,202.83a3.72,3.72,0,0,1-.65-.36c-.41-.26-1.05-.61-1.8-1.14a37.63,37.63,0,0,1-5.8-5.28,103.59,103.59,0,0,1-7.08-9.21,85.63,85.63,0,0,0-8.86-11,33.82,33.82,0,0,0-5.72-4.51,27.88,27.88,0,0,0-6.18-2.81,30.42,30.42,0,0,0-11.37-1.39,29.19,29.19,0,0,0-7.62,1.49c-.88.27-1.53.56-2,.74a4,4,0,0,1-.71.24,5,5,0,0,1,.67-.33,16.63,16.63,0,0,1,2-.83,27.73,27.73,0,0,1,7.66-1.66,30.5,30.5,0,0,1,11.53,1.31,28.44,28.44,0,0,1,6.29,2.82,34.59,34.59,0,0,1,5.81,4.58,82.46,82.46,0,0,1,8.88,11.12,109.7,109.7,0,0,0,7,9.24,39.72,39.72,0,0,0,5.65,5.35c.74.56,1.35.93,1.74,1.22A4.3,4.3,0,0,1,352.75,202.83Z" style="fill:#455a64"></path><path d="M353,221.19a2.11,2.11,0,0,1,1,4.09,2.11,2.11,0,0,1-1.53-3.93" style="fill:#fff"></path><path d="M352.49,221.35a2.89,2.89,0,0,0-1,1.44,1.81,1.81,0,0,0,.42,1.69,1.88,1.88,0,0,0,3.3-1.06,1.82,1.82,0,0,0-.63-1.61,2.94,2.94,0,0,0-1.63-.62s.17-.11.51-.12a2.24,2.24,0,0,1,2.2,2.41,2.31,2.31,0,0,1-4.09,1.3,2.16,2.16,0,0,1-.42-2.08,2.28,2.28,0,0,1,.82-1.16C352.3,221.35,352.48,221.32,352.49,221.35Z" style="fill:#263238"></path><path d="M350.05,205.87c.17,2.93.3,6-1.05,8.63s-4.78,4.38-7.32,2.92c-2.08-1.18-2.71-3.85-3.06-6.22-1-6.83-1.48-13.75-2.56-20.58Z" style="fill:#263238"></path><path d="M295.68,170.07c0,.06.95-.18,2.67-.24a18.42,18.42,0,0,1,7.1,1.3,23.86,23.86,0,0,1,4.45,2.29,49.8,49.8,0,0,1,4.6,3.51,55.43,55.43,0,0,1,9,9.69c1.37,1.91,2.58,3.88,3.88,5.71a27.24,27.24,0,0,0,4.31,4.83,47,47,0,0,0,9.07,6.07c2.75,1.46,5,2.47,6.63,3.18l1.83.78a3,3,0,0,0,.66.23,2.64,2.64,0,0,0-.61-.34l-1.78-.89c-1.56-.76-3.82-1.84-6.53-3.33a49.9,49.9,0,0,1-8.9-6.11,27.06,27.06,0,0,1-4.19-4.77c-1.29-1.8-2.5-3.77-3.87-5.71a54.16,54.16,0,0,0-9.13-9.77,47.69,47.69,0,0,0-4.67-3.5,23.16,23.16,0,0,0-4.58-2.27,17.67,17.67,0,0,0-7.26-1.13,12.41,12.41,0,0,0-2,.27A2.93,2.93,0,0,0,295.68,170.07Z" style="fill:#455a64"></path><path d="M350.34,199.24a5,5,0,0,0,1,.64l2.72,1.6.92.52a2.89,2.89,0,0,0,1.17.39,1.17,1.17,0,0,0,.73-.17,1,1,0,0,0,.4-.71,2.42,2.42,0,0,0-.51-1.36c-1-1.55-2-3.25-3.15-5.05l-.43.4a11.22,11.22,0,0,0,7.29,2.17,3.11,3.11,0,0,0,1-.17,1.3,1.3,0,0,0,.83-.72,1.17,1.17,0,0,0-.18-1.09,5.08,5.08,0,0,0-.61-.67,22.66,22.66,0,0,1-3.66-4.61,38.2,38.2,0,0,1-2.32-4.95,5.41,5.41,0,0,0,.34,1.45,20.57,20.57,0,0,0,1.61,3.71,21.79,21.79,0,0,0,3.64,4.8c.4.38.8.81.64,1.15s-.73.51-1.3.51a10.87,10.87,0,0,1-6.91-2.06l-1.28-.94.86,1.34,3.22,5a2,2,0,0,1,.45,1,.5.5,0,0,1-.61.45,5.26,5.26,0,0,1-1.93-.79l-2.81-1.44A4.66,4.66,0,0,0,350.34,199.24Z" style="fill:#455a64"></path><path d="M318.6,227.86a3.6,3.6,0,0,0-3.71-2.73,3.79,3.79,0,0,0-2.89,2.05,4.66,4.66,0,0,0-.16,3.59l.06.26a4.09,4.09,0,0,0,4.6,1A3.83,3.83,0,0,0,318.6,227.86Z" style="fill:#eb996e"></path><path d="M309.9,231.09c0-.42,2.78-.29,4.88-2.57s1.93-5.26,2.32-5.26c.18,0,.51.69.48,1.94a6.94,6.94,0,0,1-1.78,4.4,6,6,0,0,1-4.08,2C310.55,231.62,309.88,231.28,309.9,231.09Z" style="fill:#263238"></path><path d="M278.5,380.42l1.3,7.57-1.22,4.12s-12.57,16-16.6,27.78-4.34,42.81-4.34,42.81l143.2-.09s-5-46.09-23-60.6l0-3.31,4.45-6.59s1.5-5.1-5-4.34C374.71,388.07,278.5,380.42,278.5,380.42Z" style="fill:#455a64"></path><path d="M378.64,397.58h-1l-2.91-.07c-2.52-.06-6.17-.11-10.69-.08s-9.89.13-15.86.25-12.53.24-19.43.13a193.87,193.87,0,0,1-19.41-1.24,120.79,120.79,0,0,1-15.62-2.85,90,90,0,0,1-10.21-3.2c-1.19-.43-2.08-.85-2.7-1.1l-.69-.31c-.16-.07-.24-.11-.23-.12l.25.07.71.26c.63.22,1.53.61,2.73,1a103,103,0,0,0,10.23,3,125.92,125.92,0,0,0,15.59,2.72c5.92.69,12.47,1.07,19.36,1.2s13.44,0,19.41-.09,11.35-.17,15.87-.14,8.18.12,10.7.25c1.26.05,2.24.12,2.9.17l.76.06C378.56,397.55,378.65,397.57,378.64,397.58Z" style="fill:#263238"></path><path d="M378.64,404.22a.67.67,0,0,1-.25,0h-.76l-2.91-.07c-2.52-.06-6.17-.11-10.69-.08s-9.89.13-15.86.25-12.53.24-19.43.13-13.47-.53-19.41-1.24a120.79,120.79,0,0,1-15.62-2.85,89.63,89.63,0,0,1-10.21-3.21c-1.19-.43-2.08-.84-2.7-1.09l-.69-.31c-.16-.07-.24-.11-.23-.12l.25.07.71.26c.63.22,1.53.6,2.73,1a102.54,102.54,0,0,0,10.23,3,125.92,125.92,0,0,0,15.59,2.72c5.92.69,12.47,1.07,19.36,1.2s13.44,0,19.41-.09,11.35-.17,15.87-.14,8.18.12,10.7.25c1.26.05,2.24.12,2.9.17l.76.06C378.56,404.2,378.65,404.21,378.64,404.22Z" style="fill:#263238"></path><path d="M284.63,412a6.91,6.91,0,0,1,.56-2.05,24.93,24.93,0,0,1,2.26-4.61,25.34,25.34,0,0,1,3.12-4.07,7,7,0,0,1,1.59-1.41c.12.11-2.2,2.38-4.27,5.75S284.78,412,284.63,412Z" style="fill:#263238"></path><path d="M289.72,421.21a2.55,2.55,0,0,1-.05-.84,20.93,20.93,0,0,1,.15-2.29,40,40,0,0,1,1.62-7.39,48.3,48.3,0,0,1,2.82-7,14.9,14.9,0,0,1,1.55-2.72,25.55,25.55,0,0,1-1.22,2.87,71.28,71.28,0,0,0-2.65,7,51.07,51.07,0,0,0-1.75,7.29C289.88,420,289.8,421.22,289.72,421.21Z" style="fill:#263238"></path><path d="M293.11,385a6.31,6.31,0,0,1,.29,1.4,23.79,23.79,0,0,0,.94,3.28c.89,2.52,2.08,4.37,2,4.45a10.85,10.85,0,0,1-2.44-4.27,13.61,13.61,0,0,1-.81-3.41A2.94,2.94,0,0,1,293.11,385Z" style="fill:#263238"></path><path d="M297.35,388a12,12,0,0,1,1.06,3.3,11.43,11.43,0,0,1,.57,3.42,22.95,22.95,0,0,1-1.63-6.72Z" style="fill:#263238"></path><path d="M322.94,387a50.15,50.15,0,0,1,0,10.2,50.15,50.15,0,0,1,0-10.2Z" style="fill:#263238"></path><path d="M326.14,389.61a12.78,12.78,0,0,1-.2,7.8c-.15,0,.14-1.76.19-3.9S326,389.63,326.14,389.61Z" style="fill:#263238"></path><path d="M334.79,413.22a36.5,36.5,0,0,1-.84-4.38,33.41,33.41,0,0,1-.8-4.4,13.43,13.43,0,0,1,1.31,4.3A13.11,13.11,0,0,1,334.79,413.22Z" style="fill:#263238"></path><path d="M249,313.51c-.28-.91,10.24-31,16.48-35.56s34.41-11.09,34.41-11.09,11.86,11.7,27.76,9.27,28.11-13.65,28.11-13.65,30.09,3.94,35.2,7.58,19,36.63,19,36.63l-24.52,20.43-2.17,18.5s1.14,38.53-1.42,42.48S279.09,382,279.09,382s-5.11-.91-1.14-10,6.82-15.17,6.82-15.17-7.1-7.89-8.24-21.85-3.93-15.46-3.93-15.46Z" style="fill:#FF725E"></path><path d="M383.14,344.91c-.15,0,1.36-12.56,3.37-28s3.74-28,3.88-27.95S389,301.51,387,317,383.28,344.93,383.14,344.91Z" style="fill:#263238"></path><path d="M275.74,324.64c-.13.05-2-4.45-4.19-10.06s-3.84-10.19-3.71-10.24,2,4.45,4.2,10.05S275.88,324.59,275.74,324.64Z" style="fill:#263238"></path><g style="opacity:0.30000000000000004"><path d="M307.51,340.67a16.19,16.19,0,0,0-3.16-7.15c-2.35-2.66-6.07-3.79-9.61-3.77a37.7,37.7,0,0,0-10.41,2.05l-6.39,10a4.25,4.25,0,0,0,2.6,2.62,12.11,12.11,0,0,0,3.74.67q9.92.72,19.84.83a4.46,4.46,0,0,0,2.48-.46C308,344.48,307.9,342.35,307.51,340.67Z"></path></g><path d="M263.84,294.82a5.16,5.16,0,0,1,.52,1.05c.31.68.73,1.68,1.23,2.93,1,2.49,2.34,6,3.69,9.83s2.47,7.41,3.22,10c.38,1.28.68,2.33.86,3.06a4.54,4.54,0,0,1,.24,1.14,5.59,5.59,0,0,1-.43-1.08l-1-3c-.84-2.55-2-6.07-3.36-9.93s-2.62-7.35-3.54-9.87c-.43-1.18-.79-2.18-1.08-3A5,5,0,0,1,263.84,294.82Z" style="fill:#263238"></path><path d="M263.79,298,275,338.89a3.17,3.17,0,0,0,3.11,2.28h24.31a3.09,3.09,0,0,0,3.13-3.72l-9.83-40.87a3.17,3.17,0,0,0-3.13-2.37H266.89A3.08,3.08,0,0,0,263.79,298Z" style="fill:#263238"></path><path d="M272.23,305.64s-2.9-1.38-5.19,0-6,7.48-6,7.48l-2.29,9.7L260.32,336l.62,6.11,14.8,1.68v-4.89l16.95-12.67s5.95-1.65,5.49-3.42-1.22-3-2.9-2.68-19.84,5-19.84,5-2.9.61-2.75-.16,8.55-4.73,9.92-5.65,7.79-2.44,7-5.34a3.52,3.52,0,0,0-4.88-2.59l-14.66,5.34-2.44.61.31-3.82,2.59-3.51a1.81,1.81,0,0,0,2.29-1.24A3,3,0,0,0,272.23,305.64Z" style="fill:#ffbe9d"></path><path d="M270.26,316.66a14.5,14.5,0,0,1-3.59,1.46,14.13,14.13,0,0,1-3.75,1,15,15,0,0,1,3.59-1.46A14.61,14.61,0,0,1,270.26,316.66Z" style="fill:#eb996e"></path><path d="M273.6,325.47a12.7,12.7,0,0,1-3.35,1.27,12.35,12.35,0,0,1-3.5.78,24.18,24.18,0,0,1,6.85-2Z" style="fill:#eb996e"></path><path d="M291.76,326.38a3.78,3.78,0,0,1-.85.51c-.57.3-1.4.71-2.45,1.19a87.2,87.2,0,0,1-8.33,3.26,83,83,0,0,1-8.63,2.39c-1.12.25-2,.42-2.67.52a4.24,4.24,0,0,1-1,.11,31.57,31.57,0,0,1,3.57-1c2.21-.57,5.25-1.42,8.55-2.52s6.24-2.25,8.36-3.11A32.8,32.8,0,0,1,291.76,326.38Z" style="fill:#eb996e"></path><path d="M264.92,333.55c-.05.13-1-.37-1.3-1.53s.2-2.07.31-2-.09.88.19,1.84S265,333.43,264.92,333.55Z" style="fill:#eb996e"></path><path d="M262,325.84c0,.06-.27,0-.61-.17a2.39,2.39,0,0,1-.92-2.71c.14-.37.32-.54.38-.51s-.22.89.13,1.85S262,325.7,262,325.84Z" style="fill:#eb996e"></path><path d="M260.31,316.4a1.57,1.57,0,0,1-.05.48c-.07.37-.16.81-.26,1.36-.25,1.26-.6,3-1,5.06v-.06c.65,4.64,1.54,11.36,2.51,18.9v.06l0,.07c-.19.51-.4,1.05-.6,1.6a52.86,52.86,0,0,0-3,19.23,54.45,54.45,0,0,0,.49,5.92c.09.65.16,1.18.22,1.6a2.21,2.21,0,0,1,.05.57,3.07,3.07,0,0,1-.15-.55c-.08-.36-.21-.89-.33-1.59a48,48,0,0,1-.65-5.94,50.82,50.82,0,0,1,2.88-19.42c.2-.55.41-1.1.6-1.61v.13c-1-7.55-1.8-14.27-2.34-18.93v0l1.19-5c.14-.54.25-1,.34-1.34A3.55,3.55,0,0,1,260.31,316.4Z" style="fill:#eb996e"></path><path d="M278.18,337.47a10.07,10.07,0,0,1-3.39,2.3,10,10,0,0,1-3.91,1.23c0-.14,1.68-.72,3.68-1.7S278.09,337.34,278.18,337.47Z" style="fill:#eb996e"></path><path d="M372,358.25s3.87,1,4.25,3.52-2.71,46-2.71,46h3.68s1.47-43.07,1.41-46.15-1.52-3.28-2.07-3.5A7.5,7.5,0,0,0,372,358.25Z" style="fill:#263238"></path><path d="M370.05,358.17l17.71.68-3.53-21.38,1.21-10.35,23.47-19.6s8.21,47.62,8.95,53.12c.88,6.6-.4,15.35-3.6,18.48-2.73,2.66-22.4,0-30,0-4.2,0-14.24.07-14.24.07l-3.52-16.42Z" style="fill:#ffbe9d"></path><path d="M414.26,358.91c-.07.09-1.27-1-3.58-2a19.9,19.9,0,0,0-9.55-1.72,18.79,18.79,0,0,0-5.25,1.12c-1.55.56-2.89,1.3-4.08,1.76a10.65,10.65,0,0,1-2.94.78,3,3,0,0,1-1.11,0,12.75,12.75,0,0,0,3.9-1.08c1.16-.5,2.47-1.26,4.06-1.87a18.28,18.28,0,0,1,5.39-1.19,19.18,19.18,0,0,1,9.74,1.9,17.12,17.12,0,0,1,2.58,1.58A4.75,4.75,0,0,1,414.26,358.91Z" style="fill:#eb996e"></path><path d="M351.79,397.6c-.65.83-8.13,65.27-8.13,65.27l77.73-.26L409.07,397.8Z" style="fill:#FF725E"></path><path d="M364.68,462.7c-.14,0-.95-14.48-1.8-32.36S361.46,398,361.61,398s.94,14.48,1.79,32.36S364.82,462.69,364.68,462.7Z" style="fill:#263238"></path><path d="M333,359.25a50.15,50.15,0,0,0,6.36-1.35,24.32,24.32,0,0,0,2.83-1.62l10-.81,17.85,2.7s3,2.16,2.57,8.79a50.19,50.19,0,0,1-2.84,13s-8,6.51-10.14,6.91-14.34-.28-15.55-1.23a6.67,6.67,0,0,1-1.76-2,3.35,3.35,0,0,1-1.76-3.65s-4.19-5.41-4.73-7.71.13-2.84.13-2.84-1.21-3.11-.27-4.19a2.63,2.63,0,0,1,3.79-.13c.95,1.08,6.9.27,6.9.27l5.27-3.52a59.85,59.85,0,0,1-8.25,1.49C340.57,363.44,332.05,365.34,333,359.25Z" style="fill:#ffbe9d"></path><path d="M353.69,372c0,.08-1.09.27-2.79.86-.85.29-1.86.67-3,1a13.6,13.6,0,0,1-3.88.7,7.06,7.06,0,0,1-3.85-1,9.78,9.78,0,0,1-2.41-2.16,16.82,16.82,0,0,1-1.25-1.76c-.27-.43-.4-.68-.37-.7s.71.88,1.9,2.22a10,10,0,0,0,2.37,2,6.77,6.77,0,0,0,3.6.88c2.7-.07,5-1.1,6.79-1.56A8.5,8.5,0,0,1,353.69,372Z" style="fill:#eb996e"></path><path d="M357.33,367.24c.05,0,.24.12.38.49a2.24,2.24,0,0,1,0,1.49,2.19,2.19,0,0,1-.93,1.17c-.34.2-.58.2-.61.14s.73-.53,1.05-1.48S357.2,367.3,357.33,367.24Z" style="fill:#eb996e"></path><path d="M356.93,379.07a12.29,12.29,0,0,1-2.51.45c-1.56.22-3.72.48-6.1.73a29.88,29.88,0,0,1-3.4.26,8,8,0,0,1-2.78-.44,3.6,3.6,0,0,1-2.08-1.51,7.84,7.84,0,0,0,2.2,1.16,8.2,8.2,0,0,0,2.66.31c1,0,2.15-.17,3.34-.29,2.39-.26,4.55-.46,6.12-.58A12.72,12.72,0,0,1,356.93,379.07Z" style="fill:#eb996e"></path><path d="M361.55,374.79c.06,0,.25.2.38.65a3.23,3.23,0,0,1,0,1.8,3.36,3.36,0,0,1-.94,1.54c-.35.3-.63.39-.66.34s.77-.8,1.1-2A9.62,9.62,0,0,0,361.55,374.79Z" style="fill:#eb996e"></path><path d="M358.68,384.52a8.92,8.92,0,0,1-2.38.36,41,41,0,0,1-11.56-.72,8.76,8.76,0,0,1-2.32-.65,13.35,13.35,0,0,1,2.38.29c1.46.22,3.48.47,5.72.61s4.28.14,5.76.11A12.7,12.7,0,0,1,358.68,384.52Z" style="fill:#eb996e"></path><path d="M375.6,357.88s3.5,2.62,4.15,4.21,7.64,35.5,7.64,35.5h3s-7.13-36.74-8.87-38.16a13.47,13.47,0,0,0-2-1.34,4.66,4.66,0,0,0-3.85-.23Z" style="fill:#263238"></path><path d="M307.31,364.54a11.43,11.43,0,0,1-3,0A30.57,30.57,0,0,1,290.92,360a11.89,11.89,0,0,1-2.37-1.77c.05-.07,1,.57,2.56,1.45a37,37,0,0,0,6.43,2.88,38.61,38.61,0,0,0,6.85,1.62C306.19,364.4,307.31,364.46,307.31,364.54Z" style="fill:#263238"></path><g style="opacity:0.30000000000000004"><path d="M324.84,364a22.07,22.07,0,0,0-5.5.21c-9.35,1-19,1-27.57-3.79a12,12,0,0,0,5.94,5.78,28.1,28.1,0,0,0,9.21,1.51,132.44,132.44,0,0,0,22.52-1A6.24,6.24,0,0,0,324.84,364Z"></path></g></g><g id="freepik--speech-bubble--inject-158"><path d="M296.29,268a13.38,13.38,0,0,0-13.38-13.38H201.45a13.38,13.38,0,0,0,0,26.75h48.69c4.57,4.41,12.38,10.36,12.38,10.36V280.88l21.37.43C291.2,281.09,296.29,275,296.29,268Z" style="fill:#fff"></path><path d="M296.29,268s0,.24,0,.73a12.59,12.59,0,0,1-.24,2.14,14.1,14.1,0,0,1-1.08,3.33,13.56,13.56,0,0,1-2.82,3.87,12.37,12.37,0,0,1-5.21,2.92,16.58,16.58,0,0,1-1.65.35,16.77,16.77,0,0,1-1.75.11l-3.69-.06-17.32-.31.19-.19c0,3.42,0,7.05,0,10.83v.43l-.33-.26c-4-3.09-8.27-6.45-12.42-10.36l.16.07-29.5,0H204.58c-1.38,0-2.73.05-4.15-.05a13.71,13.71,0,0,1-12-9.56,14.25,14.25,0,0,1-.58-3.36,14.69,14.69,0,0,1,.24-3.38,14.14,14.14,0,0,1,1.09-3.19,13.56,13.56,0,0,1,10.23-7.55,19.36,19.36,0,0,1,3.21-.17H224l41.59.06,16,0a20,20,0,0,1,3.41.18,13.9,13.9,0,0,1,3.06.85,13.52,13.52,0,0,1,4.55,3.12,12.81,12.81,0,0,1,2.48,3.64,15.54,15.54,0,0,1,.65,1.65c.14.52.26,1,.35,1.42a12.29,12.29,0,0,1,.21,2c0,.45,0,.68,0,.68s0-.23-.06-.68a15.19,15.19,0,0,0-.26-2c-.1-.42-.23-.89-.38-1.4a12.87,12.87,0,0,0-.66-1.62,12.54,12.54,0,0,0-2.49-3.57,13.38,13.38,0,0,0-4.49-3,13.58,13.58,0,0,0-3-.81,19.43,19.43,0,0,0-3.37-.16l-16,0-41.59,0H202.62a18.09,18.09,0,0,0-3.13.16,13.23,13.23,0,0,0-10.89,10.34,13.72,13.72,0,0,0,.32,6.49,13.82,13.82,0,0,0,1.38,3,13,13,0,0,0,10.17,6.19c1.34.1,2.75,0,4.11.05h16.06l29.5,0h.09l.07.06c4.11,3.89,8.37,7.26,12.35,10.36l-.34.16c0-3.78,0-7.41,0-10.83v-.19h.2l17.31.39c2.54,0,4.94.31,7-.35A12.25,12.25,0,0,0,292,277.9a13.31,13.31,0,0,0,2.81-3.78,14.35,14.35,0,0,0,1.42-5.4C296.26,268.23,296.29,268,296.29,268Z" style="fill:#263238"></path></g><g id="freepik--Icon--inject-158"><path d="M278.71,272.17a4.68,4.68,0,0,1-.64,0,4.91,4.91,0,1,1,5.52-4.24h0A4.93,4.93,0,0,1,278.71,272.17Zm0-8.83a3.9,3.9,0,0,0-3.87,3.41,3.93,3.93,0,0,0,3.37,4.39,3.92,3.92,0,0,0,4.39-3.38h0a3.91,3.91,0,0,0-3.37-4.39A4.53,4.53,0,0,0,278.7,263.34Zm4.39,4.49h0Z" style="fill:#263238"></path><path d="M285.39,273.32a.51.51,0,0,1-.32-.12l-3.21-2.68a.5.5,0,0,1,.64-.77l3.21,2.68a.51.51,0,0,1,.07.71A.5.5,0,0,1,285.39,273.32Z" style="fill:#263238"></path></g><g id="freepik--Text--inject-158"><path d="M202.43,272l.66-1.49a4.45,4.45,0,0,0,2.34.71c.84,0,1.16-.24,1.16-.58,0-1.13-4-.31-4-2.95,0-1.27,1-2.31,3.15-2.31a5.41,5.41,0,0,1,2.58.62l-.62,1.5a4.15,4.15,0,0,0-2-.55c-.85,0-1.15.28-1.15.64,0,1.08,4,.27,4,2.89,0,1.24-1,2.3-3.15,2.3A5.57,5.57,0,0,1,202.43,272Z" style="fill:#263238"></path><path d="M216.27,265.49v7.12h-2v-2.78h-2.74v2.78h-2v-7.12h2v2.68h2.74v-2.68Z" style="fill:#263238"></path><path d="M217.32,269.05a4,4,0,1,1,4,3.7A3.72,3.72,0,0,1,217.32,269.05Zm5.88,0a1.93,1.93,0,1,0-1.93,2A1.91,1.91,0,0,0,223.2,269.05Z" style="fill:#263238"></path><path d="M232.7,268.13c0,1.61-1.22,2.62-3.16,2.62H228.3v1.86h-2v-7.12h3.26C231.48,265.49,232.7,266.5,232.7,268.13Zm-2,0c0-.66-.41-1.05-1.25-1.05H228.3v2.08h1.11C230.25,269.16,230.66,268.78,230.66,268.13Z" style="fill:#263238"></path></g></svg>