<svg xmlns="http://www.w3.org/2000/svg" viewBox="0 0 500 500"><g id="freepik--background-complete--inject-245"><path d="M317.52,250.72l-123-1.17-37.28-.18-10.14,0-2.63,0a4.72,4.72,0,0,0-.9,0,5.12,5.12,0,0,0,.9.06l2.63.06,10.14.12,37.28.2,123,.08c48,0,91.5.06,123,.29,15.74.11,28.48.26,37.28.42,4.41.09,7.82.18,10.14.26a18,18,0,0,1,3.53.27,19.74,19.74,0,0,1-3.53.23c-2.32.06-5.74.12-10.14.15-8.8.08-21.54.1-37.28,0C409,251.58,365.54,251.21,317.52,250.72Z" style="fill:#ebebeb"></path><path d="M316.57,261.41l-121.35-20-36.8-5.89-10-1.52-2.61-.37a4.93,4.93,0,0,0-.89-.09,4.78,4.78,0,0,0,.88.2l2.59.47,10,1.68,36.8,5.91L316.68,260.7c47.44,7.35,90.38,14.07,121.44,19.12,15.53,2.52,28.09,4.62,36.76,6.14,4.34.75,7.7,1.37,10,1.81a17.24,17.24,0,0,1,3.45.81,19.73,19.73,0,0,1-3.53-.32c-2.3-.29-5.68-.76-10-1.39-8.71-1.27-21.3-3.2-36.84-5.66C406.81,276.3,363.92,269.26,316.57,261.41Z" style="fill:#ebebeb"></path><path d="M313.92,271.82,197.29,233.2l-35.4-11.53-9.65-3.06-2.52-.77a5.49,5.49,0,0,0-.87-.22,5,5,0,0,0,.84.33l2.48.86,9.6,3.22,35.39,11.55,117,37.55c45.67,14.62,87,27.93,116.87,37.74,14.94,4.9,27,8.93,35.32,11.77,4.16,1.42,7.39,2.55,9.56,3.34a18.3,18.3,0,0,1,3.28,1.34,19.4,19.4,0,0,1-3.44-.86c-2.23-.64-5.49-1.63-9.69-2.93-8.4-2.61-20.52-6.47-35.48-11.31C400.66,300.54,359.43,286.92,313.92,271.82Z" style="fill:#ebebeb"></path><path d="M309.65,281.68l-109-56.23-33.12-16.88-9-4.52-2.36-1.15a7.52,7.52,0,0,0-.83-.36,5.66,5.66,0,0,0,.78.46l2.31,1.24,9,4.66,33.11,16.9L310,281.05c42.77,21.52,81.47,41.08,109.4,55.4,14,7.16,25.24,13,33,17.11,3.88,2,6.88,3.66,8.91,4.78a17.48,17.48,0,0,1,3,1.82,19.45,19.45,0,0,1-3.26-1.38c-2.09-1-5.16-2.47-9.1-4.41-7.88-3.88-19.23-9.57-33.22-16.68C390.73,323.49,352.19,303.65,309.65,281.68Z" style="fill:#ebebeb"></path><path d="M303.87,290.76,205.1,218.42l-30-21.78-8.21-5.86c-.93-.65-1.64-1.15-2.16-1.5a4,4,0,0,0-.75-.48,7.1,7.1,0,0,0,.69.57l2.09,1.58,8.12,6,30,21.8,99.44,71.45c38.83,27.86,73.95,53.14,99.26,71.59,12.66,9.22,22.87,16.74,29.89,22,3.51,2.62,6.22,4.68,8,6.09a17.38,17.38,0,0,1,2.69,2.27,18.29,18.29,0,0,1-3-1.86c-1.92-1.3-4.71-3.24-8.3-5.76-7.16-5-17.47-12.42-30.17-21.59C377.32,344.56,342.39,319,303.87,290.76Z" style="fill:#ebebeb"></path><path d="M296.72,298.83l-86.16-86.6c-11.06-11-20-19.93-26.24-26.12-3.1-3.05-5.52-5.42-7.19-7.05l-1.89-1.82a5.53,5.53,0,0,0-.67-.59,5.23,5.23,0,0,0,.6.67L177,179.2l7.08,7.16,26.22,26.14,87,85.83c34,33.48,64.67,63.84,86.77,85.95,11.05,11.05,19.95,20,26.05,26.29,3.06,3.13,5.41,5.58,7,7.26a17.64,17.64,0,0,1,2.31,2.65,18.76,18.76,0,0,1-2.66-2.31c-1.69-1.56-4.15-3.91-7.29-6.95-6.28-6.08-15.3-15-26.4-26C360.79,363.25,330.32,332.66,296.72,298.83Z" style="fill:#ebebeb"></path><path d="M288.38,305.72,216.93,207l-21.8-29.83-6-8.07L187.56,167a6.81,6.81,0,0,0-.56-.68,4.45,4.45,0,0,0,.48.75l1.49,2.14,5.87,8.15,21.77,29.84L289,305.3c28.27,38.27,53.82,73,72.16,98.21,9.17,12.61,16.54,22.85,21.59,30,2.52,3.56,4.46,6.33,5.75,8.23a18,18,0,0,1,1.86,3,19,19,0,0,1-2.27-2.68c-1.42-1.81-3.48-4.51-6.1-8-5.25-7-12.76-17.12-22-29.7C341.52,379.18,316.24,344.29,288.38,305.72Z" style="fill:#ebebeb"></path><path d="M279.06,311.23l-54.9-108.57-16.81-32.82L202.72,161c-.54-1-.94-1.75-1.24-2.3a6,6,0,0,0-.45-.76,5.15,5.15,0,0,0,.35.81l1.14,2.35c1,2.07,2.56,5.09,4.5,9l16.78,32.83,55.91,108.07c21.86,42.16,41.59,80.38,55.7,108.13,7.06,13.87,12.72,25.12,16.57,32.93,1.93,3.9,3.4,6.94,4.38,9a17.73,17.73,0,0,1,1.36,3.23,19.19,19.19,0,0,1-1.82-3c-1.11-2-2.72-5-4.75-8.83-4.08-7.7-9.9-18.88-17-32.72C319.9,392,300.46,353.63,279.06,311.23Z" style="fill:#ebebeb"></path><path d="M269,315.24,232.08,199.5l-11.36-35c-1.37-4.1-2.43-7.29-3.16-9.5-.37-1.06-.65-1.87-.85-2.46a5.67,5.67,0,0,0-.33-.83,5.49,5.49,0,0,0,.22.87c.18.59.43,1.41.75,2.49l3,9.54c2.69,8.31,6.56,20.26,11.33,35l38,115.4c14.86,45,28.25,85.83,37.76,115.42,4.76,14.8,8.55,26.79,11.11,35.1,1.28,4.15,2.25,7.38,2.88,9.58a17.05,17.05,0,0,1,.83,3.4,17.86,17.86,0,0,1-1.32-3.24c-.78-2.16-1.89-5.35-3.29-9.46-2.8-8.23-6.75-20.17-11.58-34.95C296.42,401.32,283.34,360.42,269,315.24Z" style="fill:#ebebeb"></path><path d="M258.38,317.63c-7-46.87-13.37-89.28-18-120-2.37-15.33-4.29-27.73-5.63-36.35l-1.6-9.87c-.2-1.1-.34-1.95-.45-2.56a5.59,5.59,0,0,0-.19-.87,5.43,5.43,0,0,0,.08.89c.08.61.2,1.46.35,2.57.33,2.3.82,5.62,1.44,9.9,1.33,8.61,3.24,21,5.61,36.35,4.89,30.7,11.63,73.05,19.08,119.85s14.2,89.14,18.87,119.84c2.34,15.35,4.18,27.78,5.38,36.39.6,4.3,1,7.64,1.31,9.91a17.44,17.44,0,0,1,.28,3.48,18.81,18.81,0,0,1-.78-3.4c-.43-2.25-1-5.57-1.74-9.86-1.45-8.56-3.45-21-5.85-36.3C271.74,406.9,265.36,364.48,258.38,317.63Z" style="fill:#ebebeb"></path><path d="M247.53,318.36c.43-47.38.82-90.25,1.1-121.32.07-15.51.12-28,.16-36.77,0-4.32,0-7.68,0-10,0-1.12,0-2,0-2.6a4.59,4.59,0,0,0-.05-.88,8.56,8.56,0,0,0,0,.88c0,.62,0,1.48-.07,2.6,0,2.32-.06,5.68-.12,10,0,8.71-.1,21.26-.18,36.77V318.36c0,47.35,0,90.24-.21,121.28-.11,15.52-.25,28.08-.41,36.76-.09,4.34-.17,7.71-.26,10a17.59,17.59,0,0,1-.27,3.48,19.29,19.29,0,0,1-.23-3.48c-.07-2.29-.12-5.66-.17-10-.08-8.68-.11-21.25-.07-36.77C246.7,408.59,247.06,365.71,247.53,318.36Z" style="fill:#ebebeb"></path><path d="M236.68,317.42c7.9-46.73,15-89,20.22-119.68l6-36.29c.67-4.27,1.18-7.59,1.54-9.88l.37-2.58a4.86,4.86,0,0,0,.09-.88,6.19,6.19,0,0,0-.2.87c-.11.6-.27,1.45-.47,2.55-.39,2.29-1,5.6-1.7,9.86-1.41,8.6-3.45,21-6,36.29-4.89,30.7-11.65,73.05-19.11,119.86s-14.21,89.14-19.31,119.77c-2.55,15.31-4.67,27.7-6.2,36.25-.77,4.28-1.38,7.59-1.83,9.84a17.57,17.57,0,0,1-.82,3.4,19.14,19.14,0,0,1,.32-3.48c.29-2.27.76-5.61,1.41-9.91,1.28-8.59,3.23-21,5.71-36.33C221.64,406.43,228.76,364.12,236.68,317.42Z" style="fill:#ebebeb"></path><path d="M226.13,314.82l39.08-115,11.67-34.92,3.1-9.52c.33-1.07.59-1.89.77-2.48A5.43,5.43,0,0,0,281,152a4.67,4.67,0,0,0-.33.82l-.88,2.45c-.75,2.2-1.85,5.38-3.25,9.47-2.77,8.28-6.76,20.19-11.7,34.91-9.73,29.56-23.16,70.34-38,115.4s-28.26,85.82-38.19,115.28c-5,14.73-9,26.63-11.92,34.83-1.44,4.11-2.58,7.28-3.38,9.43a16.79,16.79,0,0,1-1.35,3.23,18.57,18.57,0,0,1,.87-3.39c.65-2.19,1.65-5.42,3-9.56,2.63-8.28,6.54-20.24,11.44-35C197.06,400.38,210.84,359.71,226.13,314.82Z" style="fill:#ebebeb"></path><path d="M216.13,310.62c22.23-42,42.36-80,56.94-107.55l17.1-32.68c2-3.85,3.51-6.84,4.58-8.91l1.16-2.34a4.1,4.1,0,0,0,.36-.81,6.67,6.67,0,0,0-.46.76l-1.25,2.29c-1.1,2.05-2.68,5-4.72,8.85l-17.12,32.66c-14.33,27.67-34.11,65.86-56,108.05s-41.61,80.37-56.12,107.92c-7.25,13.77-13.17,24.9-17.32,32.55-2.08,3.83-3.71,6.79-4.84,8.79a18.41,18.41,0,0,1-1.85,3A18.4,18.4,0,0,1,138,460c1-2.07,2.5-5.09,4.46-9,3.93-7.77,9.7-19,16.89-32.77C173.77,390.6,193.87,352.57,216.13,310.62Z" style="fill:#ebebeb"></path><path d="M206.92,304.92l73.29-97.45,22.06-29.64,5.94-8.1,1.52-2.12a6.62,6.62,0,0,0,.49-.75,5.23,5.23,0,0,0-.58.68l-1.6,2.07c-1.41,1.85-3.45,4.55-6.06,8l-22.09,29.62-72.39,98.1c-28.22,38.31-53.84,73-72.53,97.94-9.35,12.48-17,22.56-22.27,29.48-2.66,3.46-4.74,6.14-6.18,7.93a17.1,17.1,0,0,1-2.29,2.66,18.38,18.38,0,0,1,1.89-3c1.31-1.89,3.27-4.65,5.83-8.18,5.11-7.07,12.58-17.25,21.87-29.77C152.4,377.39,178.28,342.93,206.92,304.92Z" style="fill:#ebebeb"></path><path d="M198.72,297.87l87.77-85C297.65,201.93,306.68,193.09,313,187l7.14-7.09,1.84-1.87a5.75,5.75,0,0,0,.6-.66,6.1,6.1,0,0,0-.68.58c-.45.43-1.08,1-1.91,1.8l-7.25,7-26.49,25.88-87,85.8c-33.92,33.51-64.69,63.81-87.1,85.62-11.2,10.9-20.3,19.68-26.65,25.71-3.17,3-5.64,5.33-7.35,6.89a17.77,17.77,0,0,1-2.68,2.27,18.71,18.71,0,0,1,2.33-2.63c1.59-1.66,4-4.08,7-7.18C91,402.86,100,394,111.14,383,133.44,361.1,164.44,331,198.72,297.87Z" style="fill:#ebebeb"></path><path d="M191.74,289.65l100.11-70.52,30.23-21.51,8.17-5.91,2.11-1.56a5.26,5.26,0,0,0,.7-.57,6.58,6.58,0,0,0-.76.48l-2.17,1.48-8.27,5.78-30.24,21.5-99.46,71.41c-38.8,27.91-74,53.12-99.54,71.22-12.79,9.06-23.17,16.34-30.38,21.31-3.61,2.49-6.42,4.41-8.35,5.68a18.87,18.87,0,0,1-3,1.84A18,18,0,0,1,53.6,388c1.83-1.4,4.56-3.43,8.09-6,7.07-5.18,17.35-12.6,30.1-21.7C117.28,342.1,152.64,317.15,191.74,289.65Z" style="fill:#ebebeb"></path><path d="M186.14,280.47,296.2,226.25l33.27-16.59,9-4.58,2.33-1.22c.52-.28.78-.43.78-.44a4.78,4.78,0,0,0-.83.35l-2.38,1.12-9.08,4.44L296,225.9,186.46,281.11c-42.74,21.57-81.47,41.06-109.6,55-14.07,7-25.47,12.56-33.39,16.37-4,1.9-7,3.35-9.14,4.31a17.59,17.59,0,0,1-3.27,1.35,19.41,19.41,0,0,1,3-1.79c2-1.1,5-2.69,8.95-4.7,7.8-4,19.13-9.76,33.16-16.79C104.28,320.79,143.16,301.59,186.14,280.47Z" style="fill:#ebebeb"></path><path d="M182.07,270.52l117.34-36.46,35.5-11.22,9.63-3.12,2.49-.85a4.63,4.63,0,0,0,.84-.32,5.81,5.81,0,0,0-.87.22l-2.53.74-9.67,3-35.52,11.19-117,37.53c-45.65,14.68-87,27.91-117,37.3-15,4.71-27.15,8.46-35.58,11-4.21,1.27-7.49,2.23-9.72,2.85a17.63,17.63,0,0,1-3.44.82,18.22,18.22,0,0,1,3.29-1.3c2.18-.77,5.41-1.87,9.59-3.25,8.34-2.76,20.45-6.68,35.43-11.44C94.8,297.64,136.26,284.72,182.07,270.52Z" style="fill:#ebebeb"></path><path d="M179.63,260.07l121.7-17.8,36.85-5.57,10-1.59,2.6-.45a4.68,4.68,0,0,0,.88-.19,7.51,7.51,0,0,0-.9.08l-2.61.35-10,1.43-36.86,5.55-121.53,18.9c-47.42,7.41-90.38,14.06-121.5,18.68-15.57,2.32-28.17,4.14-36.89,5.33-4.36.59-7.75,1-10.06,1.3a19,19,0,0,1-3.53.28,18.63,18.63,0,0,1,3.46-.78c2.28-.42,5.64-1,10-1.72,8.69-1.43,21.27-3.42,36.82-5.8C89.13,273.31,132.13,267,179.63,260.07Z" style="fill:#ebebeb"></path><path d="M178.89,249.37l123,1,37.29.13,10.13,0,2.64,0c.59,0,.9,0,.9,0a5.27,5.27,0,0,0-.9-.06l-2.64-.06-10.13-.11L301.92,250l-123,.08c-48,.06-91.5,0-123-.14-15.74-.09-28.48-.22-37.28-.38-4.4-.08-7.82-.16-10.14-.25A17.76,17.76,0,0,1,5,249.06a19.94,19.94,0,0,1,3.54-.23c2.31-.07,5.73-.13,10.13-.17,8.81-.09,21.55-.12,37.29-.09C87.39,248.62,130.88,248.94,178.89,249.37Z" style="fill:#ebebeb"></path><path d="M179.83,238.68,301.2,258.54,338,264.38l10,1.52,2.61.36a5,5,0,0,0,.9.09,5.09,5.09,0,0,0-.88-.2l-2.59-.46-10-1.67-36.8-5.87L179.72,239.39c-47.45-7.29-90.4-14-121.47-19-15.53-2.5-28.09-4.59-36.76-6.09-4.34-.75-7.7-1.36-10-1.8a19.44,19.44,0,0,1-3.45-.8,18.21,18.21,0,0,1,3.53.3c2.31.29,5.69.76,10.05,1.39,8.71,1.26,21.3,3.17,36.84,5.61C89.57,223.9,132.47,230.89,179.83,238.68Z" style="fill:#ebebeb"></path><path d="M182.46,228.27l116.68,38.47,35.42,11.48,9.66,3,2.52.76a5.06,5.06,0,0,0,.87.23,5.57,5.57,0,0,0-.84-.33l-2.49-.86-9.6-3.21-35.41-11.51-117-37.4c-45.69-14.56-87.05-27.82-116.92-37.59-14.94-4.88-27-8.89-35.34-11.73-4.16-1.41-7.38-2.54-9.56-3.33A17.52,17.52,0,0,1,17.14,175a19.79,19.79,0,0,1,3.44.85c2.23.64,5.5,1.63,9.7,2.93,8.4,2.59,20.53,6.44,35.49,11.26C95.69,199.65,136.94,213.22,182.46,228.27Z" style="fill:#ebebeb"></path><path d="M186.72,218.4l109.09,56.09L329,291.33l9,4.51,2.37,1.15a5,5,0,0,0,.82.35,5.81,5.81,0,0,0-.77-.45l-2.32-1.24-9-4.65L296,274.14,186.39,219c-42.79-21.47-81.52-41-109.46-55.27-14-7.14-25.26-13-33-17.06-3.88-2-6.88-3.65-8.91-4.77a17,17,0,0,1-3-1.82,19.21,19.21,0,0,1,3.25,1.38c2.1,1,5.17,2.46,9.11,4.39,7.88,3.87,19.24,9.56,33.25,16.64C105.59,176.68,144.16,196.48,186.72,218.4Z" style="fill:#ebebeb"></path><path d="M192.5,209.31l98.86,72.22,30.06,21.74,8.22,5.85,2.16,1.5a5.51,5.51,0,0,0,.75.48,4.73,4.73,0,0,0-.69-.57L329.77,309l-8.13-6-30.05-21.76-99.52-71.33c-38.87-27.81-74-53-99.36-71.47-12.67-9.2-22.89-16.7-29.91-21.94-3.51-2.62-6.23-4.67-8-6.08a18.61,18.61,0,0,1-2.7-2.27,19.26,19.26,0,0,1,3,1.87c1.91,1.29,4.71,3.22,8.3,5.74,7.17,5,17.49,12.4,30.2,21.56C119,155.6,153.93,181.1,192.5,209.31Z" style="fill:#ebebeb"></path><path d="M199.64,201.23l86.26,86.5,26.28,26.09,7.19,7,1.89,1.81a6,6,0,0,0,.68.59,5.23,5.23,0,0,0-.6-.67l-1.82-1.88-7.08-7.15-26.26-26.1-87.06-85.73c-34-33.43-64.75-63.75-86.87-85.84-11.07-11-20-20-26.09-26.26-3.06-3.12-5.42-5.57-7-7.24a17.47,17.47,0,0,1-2.31-2.65A18.45,18.45,0,0,1,79.53,82C81.21,83.6,83.67,86,86.82,89c6.29,6.08,15.32,14.93,26.43,25.93C135.48,136.89,166,167.44,199.64,201.23Z" style="fill:#ebebeb"></path><path d="M208,194.33,279.54,293c9.2,12.56,16.66,22.73,21.83,29.8l6,8.05c.68.9,1.21,1.59,1.59,2.08a4.66,4.66,0,0,0,.57.69,6.11,6.11,0,0,0-.48-.75l-1.51-2.14-5.87-8.15-21.81-29.81-72.49-98c-28.32-38.24-53.9-72.91-72.28-98.11C125.91,84,118.52,73.8,113.46,66.69c-2.52-3.56-4.46-6.33-5.76-8.23a18.27,18.27,0,0,1-1.86-3,18.23,18.23,0,0,1,2.27,2.68c1.42,1.81,3.48,4.5,6.11,8,5.26,7,12.78,17.1,22,29.67C154.73,120.94,180.06,155.8,208,194.33Z" style="fill:#ebebeb"></path><path d="M217.27,188.81l55,108.5c7.1,13.83,12.85,25,16.85,32.8,2,3.84,3.57,6.82,4.64,8.88.54,1,.95,1.76,1.24,2.3a5.06,5.06,0,0,0,.46.77,7,7,0,0,0-.36-.82L294,338.9l-4.51-9c-4-7.77-9.73-19-16.82-32.81l-56.05-108c-21.91-42.14-41.69-80.32-55.84-108C153.71,67.21,148,56,144.17,48.16c-1.93-3.9-3.4-6.94-4.38-9a17.45,17.45,0,0,1-1.37-3.23,18.56,18.56,0,0,1,1.82,3c1.12,2,2.73,5,4.77,8.82,4.09,7.69,9.92,18.87,17.05,32.7C176.34,108.11,195.82,146.44,217.27,188.81Z" style="fill:#ebebeb"></path><path d="M227.35,184.79c14.47,45.17,27.56,86.06,37,115.69,4.81,14.76,8.7,26.71,11.41,35,1.37,4.1,2.43,7.29,3.17,9.49.37,1.06.65,1.88.85,2.46a5.67,5.67,0,0,0,.33.83,4.19,4.19,0,0,0-.22-.86l-.75-2.49c-.71-2.22-1.72-5.43-3-9.55-2.69-8.3-6.57-20.25-11.37-35L226.66,185c-14.91-45-28.35-85.79-37.9-115.38C184,54.85,180.17,42.86,177.6,34.55c-1.29-4.15-2.26-7.38-2.89-9.58a18.51,18.51,0,0,1-.84-3.4,18.24,18.24,0,0,1,1.32,3.25c.79,2.15,1.9,5.34,3.31,9.45,2.81,8.23,6.78,20.16,11.62,34.93C199.8,98.74,212.93,139.62,227.35,184.79Z" style="fill:#ebebeb"></path><path d="M238,182.38c7.08,46.86,13.49,89.27,18.13,120,2.39,15.33,4.33,27.73,5.68,36.34.7,4.27,1.24,7.58,1.61,9.87.2,1.1.35,2,.46,2.56a4.41,4.41,0,0,0,.19.87,5.29,5.29,0,0,0-.08-.88c-.09-.62-.2-1.47-.35-2.58l-1.46-9.89c-1.34-8.62-3.27-21-5.65-36.34-4.93-30.7-11.73-73-19.25-119.84s-14.31-89.12-19-119.82C215.85,47.33,214,34.9,212.79,26.3c-.61-4.3-1-7.64-1.33-9.91a17.49,17.49,0,0,1-.28-3.49,19.12,19.12,0,0,1,.78,3.41c.43,2.25,1,5.57,1.76,9.85,1.46,8.56,3.48,21,5.9,36.3C224.47,93.13,230.91,135.54,238,182.38Z" style="fill:#ebebeb"></path><path d="M248.8,181.64c-.37,47.38-.71,90.25-1,121.33,0,15.5-.09,28-.11,36.76,0,4.32,0,7.68,0,10,0,1.12,0,2,0,2.6a6,6,0,0,0,.05.88,5,5,0,0,0,.06-.88c0-.62,0-1.48.06-2.6,0-2.32.06-5.68.1-10,0-8.71.08-21.26.14-36.76,0-31.08-.1-74-.15-121.33s-.12-90.23.06-121.28c.08-15.52.21-28.08.36-36.76.08-4.34.16-7.71.24-10a17.59,17.59,0,0,1,.27-3.48,19.29,19.29,0,0,1,.23,3.48c.07,2.29.13,5.66.18,10,.1,8.68.14,21.25.12,36.77C249.51,91.41,249.21,134.29,248.8,181.64Z" style="fill:#ebebeb"></path><path d="M259.64,182.57c-7.83,46.74-14.92,89-20.06,119.7-2.49,15.31-4.5,27.7-5.9,36.3-.66,4.27-1.17,7.59-1.53,9.88-.16,1.11-.28,2-.37,2.58a5.29,5.29,0,0,0-.08.88,5.61,5.61,0,0,0,.19-.86c.12-.61.27-1.46.47-2.56.39-2.29,1-5.6,1.69-9.86,1.4-8.6,3.43-21,5.92-36.3,4.86-30.71,11.56-73.07,19-119.88S273,93.3,278.08,62.66c2.53-15.32,4.63-27.71,6.15-36.27.76-4.27,1.38-7.59,1.82-9.83a18.62,18.62,0,0,1,.81-3.4,17.42,17.42,0,0,1-.31,3.48c-.28,2.27-.75,5.6-1.39,9.9-1.27,8.59-3.21,21-5.67,36.34C274.57,93.54,267.51,135.85,259.64,182.57Z" style="fill:#ebebeb"></path><path d="M270.2,185.15,231.27,300.24c-4.9,14.73-8.87,26.66-11.62,34.94-1.33,4.11-2.37,7.31-3.09,9.52l-.77,2.49a4.86,4.86,0,0,0-.23.86,6.28,6.28,0,0,0,.34-.83c.2-.58.49-1.4.87-2.45L220,335.3l11.65-34.93c9.69-29.57,23.07-70.36,37.85-115.44s28.15-85.86,38-115.33c4.94-14.74,9-26.64,11.87-34.85,1.43-4.11,2.57-7.29,3.37-9.43a17.55,17.55,0,0,1,1.35-3.24,18.7,18.7,0,0,1-.86,3.39c-.65,2.2-1.65,5.42-3,9.57-2.63,8.29-6.52,20.25-11.4,35C299.16,99.56,285.44,140.25,270.2,185.15Z" style="fill:#ebebeb"></path><path d="M280.21,189.35,223.41,297c-7.19,13.79-13,25-17.06,32.7l-4.57,8.92-1.16,2.34a5.58,5.58,0,0,0-.36.81,5.21,5.21,0,0,0,.46-.76l1.25-2.29c1.1-2.05,2.68-5,4.71-8.85l17.08-32.69L279.57,189c21.75-42.22,41.51-80.42,56-108,7.23-13.79,13.13-24.92,17.28-32.58,2.07-3.83,3.69-6.8,4.83-8.8a18,18,0,0,1,1.84-3,19.47,19.47,0,0,1-1.4,3.21c-1,2.07-2.49,5.1-4.45,9-3.92,7.77-9.67,19-16.84,32.79C322.46,109.31,302.41,147.36,280.21,189.35Z" style="fill:#ebebeb"></path><path d="M289.43,195l-73.17,97.54-22,29.67-5.93,8.11c-.66.91-1.16,1.62-1.52,2.12a6.62,6.62,0,0,0-.49.75,5.23,5.23,0,0,0,.58-.68l1.6-2.07c1.4-1.86,3.44-4.55,6.05-8l22.05-29.65,72.26-98.19c28.18-38.34,53.75-73,72.41-98,9.33-12.5,16.93-22.58,22.23-29.51,2.65-3.47,4.73-6.14,6.17-7.94a17.1,17.1,0,0,1,2.29-2.66,17.86,17.86,0,0,1-1.89,3c-1.3,1.89-3.27,4.66-5.82,8.19-5.1,7.08-12.56,17.26-21.83,29.8C343.85,122.49,318,157,289.43,195Z" style="fill:#ebebeb"></path><path d="M297.63,202.07,210,287.2l-26.43,25.92c-3.08,3.07-5.48,5.46-7.14,7.1l-1.83,1.87a5.23,5.23,0,0,0-.6.67,7.33,7.33,0,0,0,.68-.59l1.9-1.8,7.25-7,26.45-25.91,86.87-85.91c33.88-33.55,64.61-63.89,87-85.73,11.19-10.91,20.28-19.71,26.61-25.74,3.17-3,5.65-5.34,7.35-6.9a19.25,19.25,0,0,1,2.68-2.28,18,18,0,0,1-2.33,2.63c-1.59,1.67-4,4.1-7,7.2-6.16,6.21-15.13,15.12-26.27,26.09C362.83,138.76,331.87,168.87,297.63,202.07Z" style="fill:#ebebeb"></path><path d="M304.63,210.28l-100,70.64-30.2,21.56c-3.53,2.55-6.28,4.54-8.17,5.92L164.13,310a5.29,5.29,0,0,0-.69.56,5,5,0,0,0,.76-.47l2.16-1.48,8.26-5.8,30.22-21.53L304.2,209.7c38.76-28,73.9-53.21,99.45-71.35C416.42,129.28,426.8,122,434,117c3.61-2.49,6.42-4.41,8.34-5.68a17.72,17.72,0,0,1,3-1.84,18.75,18.75,0,0,1-2.72,2.24c-1.83,1.4-4.56,3.44-8.09,6-7.06,5.19-17.33,12.62-30.07,21.74C379,157.74,343.69,182.73,304.63,210.28Z" style="fill:#ebebeb"></path><path d="M310.24,219.46l-110,54.35L167,290.45,158,295l-2.32,1.22c-.52.29-.79.44-.78.45a4.78,4.78,0,0,0,.83-.35l2.37-1.13,9.08-4.45,33.26-16.61,109.48-55.34c42.72-21.63,81.43-41.16,109.54-55.14,14.05-7,25.45-12.59,33.36-16.4,4-1.91,7-3.37,9.14-4.33a18.89,18.89,0,0,1,3.27-1.36,18,18,0,0,1-3,1.8c-2,1.11-5.05,2.69-8.95,4.71-7.79,4-19.11,9.79-33.14,16.84C392.05,179,353.19,198.28,310.24,219.46Z" style="fill:#ebebeb"></path><path d="M314.32,229.39,197,266l-35.49,11.27-9.62,3.14-2.5.84a5.57,5.57,0,0,0-.84.33,5.41,5.41,0,0,0,.88-.22l2.52-.75,9.68-3,35.49-11.25c30-9.64,71.28-23,117-37.67s87-28,117-37.45c15-4.73,27.14-8.49,35.56-11,4.21-1.27,7.49-2.23,9.72-2.86a19.38,19.38,0,0,1,3.44-.83,16.82,16.82,0,0,1-3.29,1.31c-2.18.77-5.41,1.88-9.58,3.26-8.34,2.78-20.44,6.71-35.42,11.49C401.56,202.17,360.11,215.14,314.32,229.39Z" style="fill:#ebebeb"></path><path d="M316.77,239.84l-121.68,18-36.84,5.62-10,1.6-2.59.45a5.22,5.22,0,0,0-.88.19,5.43,5.43,0,0,0,.89-.08l2.62-.35,10-1.45,36.84-5.59,121.51-19.05C364.07,231.66,407,225,438.14,220.3c15.56-2.34,28.16-4.17,36.88-5.37,4.36-.6,7.75-1,10.06-1.32a17.9,17.9,0,0,1,3.53-.28,18.63,18.63,0,0,1-3.46.78c-2.28.42-5.64,1-10,1.73-8.68,1.45-21.26,3.45-36.81,5.85C407.26,226.49,364.26,232.87,316.77,239.84Z" style="fill:#ebebeb"></path><path d="M378.89,371.4A40.73,40.73,0,0,0,360,359.2c-5.09-1.43-12.81-2.74-20.67-.82a27.9,27.9,0,0,0-12.71,6.84c-4.21,4-7.42,9.43-9.54,16.24a3.86,3.86,0,0,0,.3,3.05,3.93,3.93,0,0,0,2.4,1.93l13.36,3.75a4,4,0,0,0,4.69-2.21c1.77-4,6.24-10.37,16.28-7.73a12.62,12.62,0,0,1,9.57,11.07,14.14,14.14,0,0,1-4.56,11.95c-5.2,4.86-12,3.92-15.57,2.92a7.79,7.79,0,0,0-9.57,5.35l-4,14.37a4,4,0,0,0,2.73,4.88l13,3.66a4,4,0,0,0,4.88-2.73l.85-3a.18.18,0,0,1,.16-.13,39,39,0,0,0,16.24-4.76c8.41-4.68,14.11-12.18,17-22.27C388.79,387.09,383.79,377.18,378.89,371.4Z" style="fill:#e0e0e0"></path><path d="M338.77,436.42l-1.14-.32a10.25,10.25,0,1,0-5.56,19.74l1.14.32a10.25,10.25,0,0,0,5.56-19.74Z" style="fill:#e0e0e0"></path><path d="M407.56,291.81a20.82,20.82,0,0,0-11.29-2.37,21.23,21.23,0,0,0-10.06,3.39,14.38,14.38,0,0,0-4.83,5.6,19,19,0,0,0-1.59,9.53,2,2,0,0,0,.7,1.41,2,2,0,0,0,1.51.48l7.08-.65a2,2,0,0,0,1.84-1.92c.11-2.25,1.09-6.11,6.38-6.68a6.46,6.46,0,0,1,6.61,3.54,7.25,7.25,0,0,1,0,6.56c-1.6,3.28-5,4.07-6.92,4.25a4,4,0,0,0-3.6,4.32l.69,7.62a2,2,0,0,0,2.2,1.84l6.91-.63a2,2,0,0,0,1.83-2.21l-.15-1.6a.1.1,0,0,1,.06-.09,20,20,0,0,0,6.9-5.26,18.08,18.08,0,0,0,4-13.77C415.18,297.51,411,293.68,407.56,291.81Z" style="fill:#f5f5f5"></path><path d="M400.26,330.3l-.6.05a5.26,5.26,0,1,0,1,10.47l.6-.05a5.26,5.26,0,1,0-1-10.47Z" style="fill:#f5f5f5"></path><path d="M123.88,129.07a17.47,17.47,0,0,0-8.52-4.48,17.79,17.79,0,0,0-8.84.43,11.92,11.92,0,0,0-5.16,3.39,15.89,15.89,0,0,0-3.45,7.29,1.68,1.68,0,0,0,1.34,2l5.83,1.1a1.71,1.71,0,0,0,1.92-1.12,5.48,5.48,0,0,1,6.64-3.91,5.39,5.39,0,0,1,4.5,4.35,6.07,6.07,0,0,1-1.49,5.27c-2,2.27-5,2.12-6.53,1.83a3.33,3.33,0,0,0-3.87,2.64l-1.18,6.28a1.69,1.69,0,0,0,1.35,2l5.68,1.07a1.7,1.7,0,0,0,2-1.35l.24-1.32a.11.11,0,0,1,.07-.06,16.81,16.81,0,0,0,6.74-2.64,15.11,15.11,0,0,0,6.38-10.13C128.69,135.38,126.19,131.35,123.88,129.07Z" style="fill:#f5f5f5"></path><path d="M109.25,158.29l-.5-.09a4.38,4.38,0,1,0-1.62,8.61l.5.1a4.39,4.39,0,0,0,1.62-8.62Z" style="fill:#f5f5f5"></path><path d="M397,131.07a20.86,20.86,0,0,0-11.29-2.41A21.27,21.27,0,0,0,375.66,132a14.4,14.4,0,0,0-4.86,5.58,19.08,19.08,0,0,0-1.63,9.53,2,2,0,0,0,2.2,1.89l7.09-.62a2,2,0,0,0,1.85-1.91c.12-2.25,1.11-6.1,6.4-6.66a6.48,6.48,0,0,1,6.6,3.57,7.25,7.25,0,0,1,0,6.56c-1.61,3.28-5,4.05-6.94,4.23a4,4,0,0,0-3.62,4.3l.67,7.62a2,2,0,0,0,2.2,1.85l6.9-.61a2,2,0,0,0,1.84-2.19l-.14-1.61a.11.11,0,0,1,.06-.09,20,20,0,0,0,6.92-5.22,18.12,18.12,0,0,0,4.1-13.76C404.61,136.81,400.41,133,397,131.07Z" style="fill:#ebebeb"></path><path d="M389.56,169.53l-.6.06a5.25,5.25,0,1,0,.91,10.47l.6-.05a5.26,5.26,0,0,0-.91-10.48Z" style="fill:#ebebeb"></path><path d="M184,361.51a25.31,25.31,0,0,0-13.83-2,25.75,25.75,0,0,0-11.9,4.85,17.24,17.24,0,0,0-5.42,7.12,23,23,0,0,0-1.23,11.64,2.45,2.45,0,0,0,2.81,2.11l8.51-1.3a2.47,2.47,0,0,0,2.08-2.46c0-2.72.87-7.46,7.22-8.55a7.83,7.83,0,0,1,8.25,3.8,8.8,8.8,0,0,1,.5,7.93c-1.7,4.08-5.78,5.29-8.06,5.65a4.83,4.83,0,0,0-4,5.48l1.4,9.16a2.46,2.46,0,0,0,2.8,2.05l8.29-1.27a2.46,2.46,0,0,0,2.06-2.8l-.3-1.92a.11.11,0,0,1,.06-.11,24.32,24.32,0,0,0,8-6.87A21.87,21.87,0,0,0,195,377.05C193.58,367.84,188.21,363.51,184,361.51Z" style="fill:#ebebeb"></path><path d="M178,408.56l-.72.11a6.36,6.36,0,1,0,1.92,12.58l.73-.11A6.36,6.36,0,1,0,178,408.56Z" style="fill:#ebebeb"></path><path d="M109.31,188.16a35.49,35.49,0,0,0-19.43-2.82,36.18,36.18,0,0,0-16.71,6.83,24.31,24.31,0,0,0-7.6,10,32.33,32.33,0,0,0-1.69,16.34,3.43,3.43,0,0,0,1.34,2.32,3.47,3.47,0,0,0,2.61.65l12-1.85a3.46,3.46,0,0,0,2.92-3.45c0-3.84,1.2-10.49,10.12-12a11,11,0,0,1,11.6,5.31,12.33,12.33,0,0,1,.72,11.13c-2.37,5.74-8.1,7.45-11.3,8a6.79,6.79,0,0,0-5.66,7.71l2,12.87A3.45,3.45,0,0,0,94.11,252l11.65-1.81a3.46,3.46,0,0,0,2.88-3.94l-.42-2.7a.16.16,0,0,1,.09-.16,34.14,34.14,0,0,0,11.16-9.66c5-6.76,6.79-14.77,5.39-23.81C122.85,197,115.29,191,109.31,188.16Z" style="fill:#ebebeb"></path><path d="M101,254.28l-1,.16a8.94,8.94,0,0,0,2.74,17.67l1-.16A8.94,8.94,0,1,0,101,254.28Z" style="fill:#ebebeb"></path></g><g id="freepik--speech-bubble--inject-245"><path d="M277.72,106.67l9,1.5a34.82,34.82,0,1,0-6.17-10.85v0Z" style="fill:#fff"></path><path d="M277.72,106.67s0-.2.16-.6l.51-1.79c.48-1.61,1.17-4,2.06-7l.06-.21.13.18v0l-.19.09a34.69,34.69,0,0,1-1.64-16.72A36,36,0,0,1,282.17,70,35.23,35.23,0,0,1,289.82,60a35.71,35.71,0,0,1,12-7.13,34.2,34.2,0,0,1,15-1.87A35.82,35.82,0,0,1,332,56.13a34.34,34.34,0,0,1,11.68,12.08,36.38,36.38,0,0,1,3.43,7.94c.2.69.33,1.39.49,2.09a16.3,16.3,0,0,1,.42,2.08c.09.7.17,1.41.26,2.1l.12,1,0,1a35.65,35.65,0,0,1-3.17,15.89A34.13,34.13,0,0,1,336,112.5a35.88,35.88,0,0,1-12.34,6.75A35.1,35.1,0,0,1,311,120.72l-2.93-.34c-1-.14-1.88-.39-2.79-.57a32.42,32.42,0,0,1-5.13-1.64,34.7,34.7,0,0,1-13.5-9.93l.06,0L280,107.09l-1.71-.31-.57-.11.61.08,1.75.27,6.67,1h0l0,0a34.7,34.7,0,0,0,13.46,9.76,32.22,32.22,0,0,0,5.09,1.6c.91.17,1.82.42,2.77.55l2.9.32a34.56,34.56,0,0,0,12.47-1.5,35.46,35.46,0,0,0,12.16-6.69,33.87,33.87,0,0,0,9.1-11.93,35.27,35.27,0,0,0,3.1-15.67v-1l-.12-1c-.09-.68-.17-1.37-.26-2.07a18.59,18.59,0,0,0-.41-2.05c-.17-.68-.3-1.38-.49-2a35.57,35.57,0,0,0-3.38-7.83,33.91,33.91,0,0,0-11.5-11.9,35.3,35.3,0,0,0-15-5.1A33.79,33.79,0,0,0,302,53.29a35.28,35.28,0,0,0-11.85,7,34.63,34.63,0,0,0-7.59,9.9,35.72,35.72,0,0,0-3.37,10.47,34.83,34.83,0,0,0,1.51,16.6l.26.74-.44-.64v0l.18,0c-.93,3-1.66,5.32-2.15,6.91-.25.78-.44,1.38-.57,1.81S277.72,106.67,277.72,106.67Z" style="fill:#263238"></path><path d="M320.76,69.77a14.92,14.92,0,0,0-7.9-2.36,15.09,15.09,0,0,0-7.35,1.81,10.22,10.22,0,0,0-3.78,3.69A13.64,13.64,0,0,0,300,79.6a1.45,1.45,0,0,0,.42,1,1.42,1.42,0,0,0,1,.43l5.08,0A1.46,1.46,0,0,0,308,79.79a4.69,4.69,0,0,1,4.94-4.38,4.62,4.62,0,0,1,4.49,2.92A5.17,5.17,0,0,1,317,83a5.89,5.89,0,0,1-5.18,2.61A2.85,2.85,0,0,0,309,88.46l0,5.47a1.45,1.45,0,0,0,1.45,1.44l5,0a1.44,1.44,0,0,0,1.44-1.45V92.73a.06.06,0,0,1,.05-.06,14.39,14.39,0,0,0,5.23-3.33,13,13,0,0,0,3.7-9.56A11.48,11.48,0,0,0,320.76,69.77Z" style="fill:#FF725E"></path><path d="M313.25,96.73h-.43a3.76,3.76,0,0,0,.05,7.51h.44a3.75,3.75,0,0,0-.06-7.5Z" style="fill:#FF725E"></path></g><g id="freepik--Character--inject-245"><path d="M327.05,151.75c-23.61-15.88-51.68-21.54-70.08-21.54-17.24,0-42.59,2.72-65.54,15.66a90.93,90.93,0,0,0-33.81,32.65c-9.68,16.14-14.93,36.11-15.58,59.35a12.86,12.86,0,0,0,12.87,13.2H200.1A12.92,12.92,0,0,0,212.84,240c2-14.17,10.42-38,44.23-38.61,25.75-.44,36.38,18.21,39.76,26.25,5.49,13.08,4.09,28.59-3.73,41.49C281.08,289,259,292,246.85,292a25.34,25.34,0,0,0-25.27,25.21v48.62a12.9,12.9,0,0,0,12.88,12.88h44a12.9,12.9,0,0,0,12.88-12.88V355.65a.58.58,0,0,1,.39-.54,127.66,127.66,0,0,0,46.71-29.26c22.22-22.1,33.49-50.62,33.49-84.77C372,192.21,347.53,165.52,327.05,151.75Z" style="fill:#FF725E"></path><path d="M255.36,401.42h3.56a31.71,31.71,0,0,1,0,63.41h-3.56a31.71,31.71,0,0,1,0-63.41Z" style="fill:#263238"></path><path d="M234.29,388.15h44a12.69,12.69,0,0,0,12.87-12.47V355.8a.57.57,0,0,1,.39-.52,106.52,106.52,0,0,0,20.71-10.07c-28.11-.2-79.35-.48-90.84-.07v30.54A12.69,12.69,0,0,0,234.29,388.15Z" style="fill:#263238"></path><path d="M270.53,167.9l-28.24-82c-6-20.53-22.88-34.18-43.24-27.65l-1.84.72a38.22,38.22,0,0,0-22.88,46.51c5.27,17.77,11.31,37.33,15,46.53,7.63,19,27.6,13.7,27.6,13.7s4.45,12.69,6.37,18.4l10.35,10.22,4.27-4.67Z" style="fill:#ffbf9d"></path><path d="M216.93,165.71s12.34-4,22.07-17c0,0-.43,16.7-20.19,22.35Z" style="fill:#ff9a6c"></path><path d="M188.14,118.43a2.94,2.94,0,0,0,3.7,1.74,2.8,2.8,0,0,0,1.87-3.55,2.93,2.93,0,0,0-3.7-1.75A2.81,2.81,0,0,0,188.14,118.43Z" style="fill:#263238"></path><path d="M181.35,111.43c.47.23,2-2.11,4.9-3.23s5.66-.49,5.84-1c.1-.22-.5-.73-1.7-1a8,8,0,0,0-4.85.34,7.75,7.75,0,0,0-3.73,3C181.18,110.57,181.12,111.34,181.35,111.43Z" style="fill:#263238"></path><path d="M212.73,108.68c.48.22,2-2.11,4.9-3.24s5.67-.49,5.85-1c.09-.22-.5-.73-1.7-1a8.06,8.06,0,0,0-4.86.34,7.77,7.77,0,0,0-3.72,3C212.56,107.82,212.5,108.58,212.73,108.68Z" style="fill:#263238"></path><path d="M208.62,127.65c-.05-.17-2,.22-5.11,1-.78.21-1.55.34-1.87-.12a4.06,4.06,0,0,1-.36-2.42q0-3.14,0-6.58c-.06-9.33-.42-16.89-.79-16.88s-.63,7.57-.57,16.9q0,3.45.09,6.58a4.69,4.69,0,0,0,.75,3.1,2.05,2.05,0,0,0,1.66.62,5.58,5.58,0,0,0,1.35-.32C206.82,128.52,208.67,127.82,208.62,127.65Z" style="fill:#263238"></path><path d="M205.93,92.15c.69.59,3.24-1.3,6.69-2.72s6.54-2,6.6-2.9c0-.43-.84-.88-2.3-1a12.53,12.53,0,0,0-10.12,4.28C205.88,90.93,205.62,91.86,205.93,92.15Z" style="fill:#263238"></path><path d="M177.87,102.84c.87.44,3-1.15,5.9-2.25s5.51-1.52,5.82-2.43c.12-.43-.52-1-1.82-1.2a9.92,9.92,0,0,0-5.22.67,9.77,9.77,0,0,0-4.22,3.1C177.56,101.79,177.48,102.61,177.87,102.84Z" style="fill:#263238"></path><path d="M245.89,99.75c.27-.27,11.65-9,16.28,4.27s-9.61,15.17-9.77,14.8S245.89,99.75,245.89,99.75Z" style="fill:#ffbf9d"></path><path d="M254.69,112.38c0-.06.29.08.74.13a2.46,2.46,0,0,0,1.74-.57c1.22-1,1.62-3.64.85-6a8.09,8.09,0,0,0-1.81-3.08,2.83,2.83,0,0,0-2.35-1.16,1.24,1.24,0,0,0-1.14,1.11c-.05.43.13.67.06.71s-.36-.12-.44-.7a1.54,1.54,0,0,1,.23-1,1.87,1.87,0,0,1,1.16-.79,3.44,3.44,0,0,1,3.13,1.21,8.38,8.38,0,0,1,2.09,3.41c.85,2.7.36,5.68-1.37,6.9a2.62,2.62,0,0,1-2.23.39C254.83,112.69,254.65,112.42,254.69,112.38Z" style="fill:#ff9a6c"></path><path d="M218.61,126.31c-.46.13.55,3.19-1.34,6.23s-5.25,3.8-5.13,4.23c0,.21.92.35,2.31-.07a8,8,0,0,0,4.35-3.36,7,7,0,0,0,.92-5.15C219.41,126.87,218.82,126.23,218.61,126.31Z" style="fill:#263238"></path><path d="M141.26,96.18a3.35,3.35,0,0,1,.83-2.35c1.2-1.43,3-1.93,4.67-2.55a29.56,29.56,0,0,0,11-7.31,14.62,14.62,0,0,1-4.44-1.24c-2.89-1.38-5.27-4.22-5.3-7.42a2,2,0,0,1,.59-1.63c.77-.57,1.82,0,2.66.47,2.74,1.51,4.9,1.81,7.73.48a12.48,12.48,0,0,0,4.51-3.26c0-.08.06-.17.1-.25.44-1,.87-1.86,1.3-2.75h0c3.24-6.69,6.32-11.62,10.1-15,5.55-4.88,16-9.74,23.34-10.34s15.34,2.72,18.71,9.3c2.65-4.53,8.33-6.5,13.59-6.27l.09-.09c5.77,0,10.59,4.41,13.95,9.1l.53.78a21.58,21.58,0,0,0,9.27,4.31c.6.11,1.29.26,1.55.81a1.75,1.75,0,0,1-.4,1.68,10.7,10.7,0,0,1-3.54,3.18,24.75,24.75,0,0,0,3,3c.93.78,2,1.71,1.88,2.91a2.29,2.29,0,0,1-1.91,1.78,6.69,6.69,0,0,1-2.77-.24l3.16,3.5a12.81,12.81,0,0,1-5.7,1.6c.63,5.27,3,14.61,2.91,18.36-3.49,1.3-4.48,1.22-6,2.43-2,1.57.28,5.32-3.11,5.22-1.72-.05-6.08-5-7.13-6.35a80.26,80.26,0,0,1-14.55-30.84,25.65,25.65,0,0,0-9.4-2.77l.3.12c-6.08,0-12.85.34-17.09,4.69-3.29,3.37-4.17,8.33-6,12.68-3.44,8.24-8.65,13.82-16.94,17.15,1.3,6.11,4.45,15.74,6.08,21.3l-8.5-9.28v.05a22.78,22.78,0,0,1-1.66-1.58l-.18-.16v0c-.84-.87-1.66-1.74-2.62-2.56l0,.07c-2,3.64-7.79,1.19-6.58-2.8a8.08,8.08,0,0,1,1.06-2.24,5.71,5.71,0,0,1-4.66,3.14,4.48,4.48,0,0,1-4.46-3.13,3.82,3.82,0,0,1,1.12-3.64,12.76,12.76,0,0,1-7.44.91C143.19,98.87,141.4,98.06,141.26,96.18Z" style="fill:#263238"></path><path d="M211.78,56.74a16.55,16.55,0,0,1,2.57,1.09,14.68,14.68,0,0,1,5.23,5.38A25.52,25.52,0,0,1,221.81,68c.64,1.78,1.17,3.74,1.74,5.81a54.79,54.79,0,0,0,2.1,6.4,24,24,0,0,0,1.61,3.2,7.46,7.46,0,0,0,2.52,2.76,3.07,3.07,0,0,0,3.05,0,4.56,4.56,0,0,0,2-2.26,10.5,10.5,0,0,0,.13-5.58l-.39.19a17.2,17.2,0,0,0,3.79,3.23,6.1,6.1,0,0,0,4.49.72,4,4,0,0,0,1.88-1,3.39,3.39,0,0,0,.88-1.81,3.56,3.56,0,0,0-.19-1.87,2.58,2.58,0,0,0-1.15-1.28l-.15.25a13.21,13.21,0,0,0,5.27,1.66,14.05,14.05,0,0,0,1.46,0,2.8,2.8,0,0,0,.5,0,1.77,1.77,0,0,0-.5,0,12.53,12.53,0,0,1-1.45-.12,13.75,13.75,0,0,1-5.13-1.75l-.14.26a2.63,2.63,0,0,1,1.14,2.83,3,3,0,0,1-.81,1.61,3.56,3.56,0,0,1-1.7.94,5.8,5.8,0,0,1-4.19-.72,17.39,17.39,0,0,1-3.67-3.17l-.49-.52.1.71a10.15,10.15,0,0,1-.12,5.33,4.08,4.08,0,0,1-1.76,2,2.62,2.62,0,0,1-2.6,0,7,7,0,0,1-2.33-2.59A24.24,24.24,0,0,1,226.08,80a55.28,55.28,0,0,1-2.1-6.34c-.59-2.06-1.13-4-1.79-5.82A25.41,25.41,0,0,0,219.87,63a14.43,14.43,0,0,0-5.43-5.37A8.43,8.43,0,0,0,211.78,56.74Z" style="fill:#455a64"></path><path d="M158.5,96.7s.06,0,.2.08l.61.18a8.24,8.24,0,0,0,1,.24,11.46,11.46,0,0,0,1.4.2A18.29,18.29,0,0,0,170.53,96a23.25,23.25,0,0,0,10.16-8.44,40.21,40.21,0,0,0,6-15.11c.58-2.84.88-5.65,1.37-8.32a26.75,26.75,0,0,1,2.25-7.42,14,14,0,0,1,4.38-5.35A9.89,9.89,0,0,1,197.49,50a10.8,10.8,0,0,1,2.87-.43,11.85,11.85,0,0,1,4.9,1,11.58,11.58,0,0,1,3.18,2.06,15.2,15.2,0,0,1,2,2.55s0-.07-.09-.19l-.3-.56a10.33,10.33,0,0,0-1.51-1.93,11.72,11.72,0,0,0-3.2-2.18,12.06,12.06,0,0,0-5-1.1,11.27,11.27,0,0,0-3,.42,10.15,10.15,0,0,0-2.94,1.4,14.37,14.37,0,0,0-4.56,5.48A27.74,27.74,0,0,0,187.56,64c-.49,2.69-.79,5.49-1.37,8.31a40.42,40.42,0,0,1-5.86,15,23.08,23.08,0,0,1-9.94,8.38,18.34,18.34,0,0,1-8.67,1.55A27.76,27.76,0,0,1,158.5,96.7Z" style="fill:#455a64"></path><path d="M153.73,88.81a3.81,3.81,0,0,0,.87.24,16.1,16.1,0,0,0,2.42.32,21.73,21.73,0,0,0,3.64-.08,24.5,24.5,0,0,0,4.36-.92,23.63,23.63,0,0,0,4.09-1.76,21,21,0,0,0,3-2,15.78,15.78,0,0,0,1.79-1.65c.39-.43.6-.67.57-.7s-.94.87-2.57,2.08a23.46,23.46,0,0,1-3,1.91,23.74,23.74,0,0,1-8.29,2.63A24.44,24.44,0,0,1,157,89C155,89,153.75,88.72,153.73,88.81Z" style="fill:#455a64"></path><path d="M190,227.43c-.17,0,2.1,11.4,4.32,23.17h.7C192.8,238.83,190.18,227.38,190,227.43Z" style="fill:#263238"></path><path d="M199.58,251.17c6.42,0,12.33-4.62,13.23-10.92,2-14.15,10.09-38.09,44.12-38.68,25.93-.44,36.84,17.91,39.9,26.08,4.85,12.95,4.25,28.68-3.63,41.56C281.1,289,258.83,292,246.64,292.08a25.39,25.39,0,0,0-25.43,25.17v52.87l70.23-1.33V355.6a.58.58,0,0,1,.4-.54,122.61,122.61,0,0,0,37.38-20.93l-4.57-60.88s13.36-25.69,12.7-31.47c-6.05-52.8-24-82.68-31.31-85.47-8.19-3.12-39.83-1.6-39.83-1.6S252.54,180,233.37,182.83c-10.67,1.56-14.56-11.76-14.56-11.76L194,185.6c-17.64,8.9-21.06,43.5-21.38,65.57Z" style="fill:#455a64"></path><g style="opacity:0.30000000000000004"><path d="M281,282.28c14.15,3.6,28.11,8.16,42.27,11.76a5.37,5.37,0,0,1,2.87,1.4c1.05,1.21.81,3,.34,4.56a27.74,27.74,0,0,1-8.52,12.44c-3.08,2.7-6.77,5-10.86,5.3-4.55.36-8.93-1.75-12.77-4.21a67.23,67.23,0,0,1-23.52-25.87s3.32-1.37,5.86-2.73A47.81,47.81,0,0,0,281,282.28Z"></path></g><path d="M296.54,228c5.66,13.06,4.22,28.55-3.85,41.44a44.65,44.65,0,0,1-16.39,15.68,134,134,0,0,0,20.21,18.47c7.23,5.13,23.9,3.67,30.22-7.56,7.8-13.87,8.45-49.27,8.45-49.27l1.48-21.35-43.6-6.68-.35,1.2A47.42,47.42,0,0,1,296.54,228Z" style="fill:#ffbf9d"></path><path d="M220.62,219,218.14,223c-1.89,1.31-3.68.59-4.85-1.83l-26.84-40.85,6.54-4.16,29.64,39.18S223.05,217.37,220.62,219Z" style="fill:#455a64"></path><path d="M158.62,179.57A29.87,29.87,0,1,1,200.43,141h0a29.86,29.86,0,0,1-41.81,38.56Zm28.44-50.24a27.86,27.86,0,1,0,11.56,12.52A27.83,27.83,0,0,0,187.06,129.33Z" style="fill:#263238"></path><path d="M159.89,178.32a29.87,29.87,0,1,1,41.81-38.57h0a29.87,29.87,0,0,1-41.81,38.57Zm28.44-50.24a27.85,27.85,0,1,0,11.56,12.52A27.86,27.86,0,0,0,188.33,128.08Z" style="fill:#455a64"></path><path d="M199.45,152.75a3.14,3.14,0,0,1,0-.49,13.35,13.35,0,0,0-.06-1.4,21,21,0,0,0-1-5.05,26.08,26.08,0,0,0-1.3-3.3,28.34,28.34,0,0,0-2-3.53,27.77,27.77,0,0,0-2.8-3.51,26.06,26.06,0,0,0-3.59-3.24,24.26,24.26,0,0,0-4.14-2.48,26.27,26.27,0,0,0-4.23-1.52,25.22,25.22,0,0,0-7.56-.76,24.89,24.89,0,0,0-5.09.78c-.59.14-1,.32-1.34.4a2.84,2.84,0,0,1-.48.12,3.22,3.22,0,0,1,.45-.18c.31-.11.75-.3,1.34-.46a23,23,0,0,1,5.1-.89,24.69,24.69,0,0,1,7.65.71,26.3,26.3,0,0,1,4.3,1.51,24.85,24.85,0,0,1,4.19,2.51,27.34,27.34,0,0,1,3.63,3.28,27.74,27.74,0,0,1,2.82,3.57,29.24,29.24,0,0,1,2,3.58,25.78,25.78,0,0,1,1.28,3.35,20,20,0,0,1,.9,5.1c0,.61,0,1.09,0,1.41A3.83,3.83,0,0,1,199.45,152.75Z" style="fill:#fff"></path><path d="M168.28,177.07c0-.08,1.38.43,3.68.75l.91.11c.31,0,.64,0,1,0,.68.06,1.41,0,2.17,0a22.93,22.93,0,0,0,9.55-2.58,21.71,21.71,0,0,0,1.88-1.09c.29-.19.57-.36.83-.55l.72-.54c1.83-1.43,2.76-2.56,2.81-2.5a5.35,5.35,0,0,1-.65.77,8,8,0,0,1-.83.86,15,15,0,0,1-1.19,1l-.72.57c-.25.2-.54.37-.82.57a20.52,20.52,0,0,1-1.89,1.13,22.52,22.52,0,0,1-9.67,2.61c-.78,0-1.52,0-2.2,0-.35,0-.68,0-1-.08l-.91-.13a12.84,12.84,0,0,1-1.55-.31,7.94,7.94,0,0,1-1.15-.32A6.07,6.07,0,0,1,168.28,177.07Z" style="fill:#fff"></path><path d="M188.83,157.93c-.06.06-4-3.83-8.7-8.7s-8.53-8.87-8.46-8.93,4,3.83,8.69,8.7S188.9,157.87,188.83,157.93Z" style="fill:#fff"></path><path d="M184.23,165.76a2.74,2.74,0,0,1-.28-.28l-.77-.83-2.78-3.1c-2.35-2.62-5.6-6.23-9.24-10.18s-7-7.48-9.39-10l-2.86-3c-.32-.34-.58-.61-.77-.83a3.43,3.43,0,0,1-.26-.3,1.56,1.56,0,0,1,.3.26l.81.79c.71.69,1.71,1.7,2.94,3,2.46,2.52,5.82,6,9.47,10s6.86,7.58,9.17,10.24c1.15,1.33,2.08,2.41,2.71,3.17l.72.87A1.47,1.47,0,0,1,184.23,165.76Z" style="fill:#fff"></path><g style="opacity:0.30000000000000004"><path d="M159.87,129.17,196.56,169s-3,4.15-5.69,6L153.41,134.2A21.31,21.31,0,0,1,159.87,129.17Z" style="fill:#fff"></path></g><g style="opacity:0.30000000000000004"><path d="M150.26,138.79l36.08,38.83s.33.18-2.15.81l-34.95-37.67A4.93,4.93,0,0,1,150.26,138.79Z" style="fill:#fff"></path></g><path d="M245.23,202.85c-7.71-6.19-26.59-21.33-27.46-21.73-1.08-.51-17.7-6.41-20.89-4.52s-11.72,12.62-11.72,12.62.81,6.66,8.26,1.89l6.66-4.26h0L208,188.7s-9.66,4-11.7,6.15S191,205.09,193,207a7.84,7.84,0,0,0,4.36,2s-4,5.66,3.08,9.08c0,0,1,4.75,4.52,6.62s10,1.2,10,1.2a3.05,3.05,0,0,0,.78-4.73c-2.24-3-6.37-3.37-6.37-3.37l5.12-3a23.36,23.36,0,0,1,6.6,3.86,57.52,57.52,0,0,1,9.34-9.36C235.68,205.51,245.23,202.85,245.23,202.85Z" style="fill:#ffbf9d"></path><path d="M212.47,205.36a2.58,2.58,0,0,0-.76,0,12.2,12.2,0,0,0-2,.46,13.38,13.38,0,0,0-8.92,9.7,12,12,0,0,0-.29,2.05,2.63,2.63,0,0,0,0,.76c.08,0,.09-1.08.54-2.74a13.85,13.85,0,0,1,8.75-9.51C211.4,205.54,212.48,205.43,212.47,205.36Z" style="fill:#ff9a6c"></path><path d="M212.81,196.75a2.76,2.76,0,0,0-.81.06,6.9,6.9,0,0,0-.94.15,12.55,12.55,0,0,0-1.23.29,18.32,18.32,0,0,0-3.09,1.16,22,22,0,0,0-3.44,2.13,21.19,21.19,0,0,0-2.93,2.78,17.92,17.92,0,0,0-1.91,2.69c-.25.39-.43.78-.6,1.11a8.31,8.31,0,0,0-.39.87,3.74,3.74,0,0,0-.26.77c.07,0,.49-1,1.48-2.61a19.57,19.57,0,0,1,1.94-2.6,22.41,22.41,0,0,1,2.9-2.71,26.48,26.48,0,0,1,3.5-2.38,16.22,16.22,0,0,1,2.87-1C211.67,197,212.82,196.82,212.81,196.75Z" style="fill:#ff9a6c"></path><path d="M214.26,186.86a2.09,2.09,0,0,0-1.08-.25,6,6,0,0,0-2.62.47,4.87,4.87,0,0,0-2.16,1.57c-.44.52-.61.92-.57.94a9.27,9.27,0,0,1,2.88-2.16A9.15,9.15,0,0,1,214.26,186.86Z" style="fill:#ff9a6c"></path><path d="M303,155.52s24.39,2.34,32.13,23.53c6.14,16.82,9.48,67.2,7.94,68.23L300,245.9c-.56-12.28-3.87-21.76-8.51-27.89Z" style="fill:#455a64"></path><path d="M300.64,245.9a3.57,3.57,0,0,1,.85.47c.52.33,1.27.84,2.16,1.5a57.93,57.93,0,0,1,6.55,5.69,67.32,67.32,0,0,1,5.71,6.53c.67.88,1.19,1.61,1.54,2.13a3.47,3.47,0,0,1,.49.83,32.22,32.22,0,0,1-2.32-2.73c-1.42-1.7-3.41-4-5.79-6.4a77.61,77.61,0,0,0-6.41-5.76C301.7,246.78,300.6,246,300.64,245.9Z" style="fill:#ff9a6c"></path><path d="M295.51,194.07c.14,0-.65,5.41-1.76,12S291.61,218,291.47,218s.65-5.4,1.76-12S295.37,194.05,295.51,194.07Z" style="fill:#263238"></path><path d="M241.32,345.18a3.1,3.1,0,0,1,.71-.11l2.06-.21,7.58-.72c6.39-.61,15.21-1.53,24.94-2.76s18.5-2.54,24.84-3.53l7.52-1.2,2-.31a3.88,3.88,0,0,1,.72-.07,3.61,3.61,0,0,1-.7.18l-2,.4c-1.76.35-4.32.81-7.49,1.36-6.33,1.09-15.11,2.45-24.84,3.69s-18.57,2.09-25,2.61c-3.2.26-5.8.45-7.59.55l-2.07.11A5.6,5.6,0,0,1,241.32,345.18Z" style="fill:#263238"></path><path d="M237.51,338.74a11.21,11.21,0,0,1,1.78-.16l4.84-.26,16-.82,16-.92,4.84-.28a11.46,11.46,0,0,1,1.78,0,10.58,10.58,0,0,1-1.76.24c-1.14.11-2.79.26-4.83.43-4.09.34-9.74.74-16,1.08s-11.9.56-16,.67c-2,.05-3.7.08-4.85.09A12.42,12.42,0,0,1,237.51,338.74Z" style="fill:#263238"></path><path d="M168.93,247.56a5,5,0,0,1,.78-1.71,5.05,5.05,0,0,1,8.5.18,3.11,3.11,0,0,1,2.32-3,3.56,3.56,0,0,1,3.39,1,5.12,5.12,0,0,1,1.75,2.86c1.05-2.36,6.44-2.07,7.1-.3,0,0,4.64-5.08,7-2.58,1,1,.57,2.63-.09,4.22-.87,2.13-1.44,3-2.58,5.37l-4.4.23c-.37,1.38-1.15,7-1.31,8.39a9.71,9.71,0,0,1-1.2,4.06,4.23,4.23,0,0,1-3.48,2.13,2.74,2.74,0,0,1-2.74-2.66,6.61,6.61,0,0,1-1.67,3.18,3.62,3.62,0,0,1-3.32,1,2.51,2.51,0,0,1-1.87-2.73c-1.56,1.09-3.88.12-4.87-1.5s-1-3.65-1-5.55a12.57,12.57,0,0,0-.46-5.18,5,5,0,0,1-.34-.74,8.72,8.72,0,0,1-.06-1.25,9.54,9.54,0,0,0-.53-2.6c-.07-.19-.14-.37-.22-.55-.21-.47-.53-.87-.77-1.32a.89.89,0,0,1-.11-.31A1.94,1.94,0,0,1,168.93,247.56Z" style="fill:#ffbf9d"></path><path d="M164,245.12a4.07,4.07,0,0,0-3.23,1.08c-.93,1-1.15,3.52-1,4.91,1.63.31,2.5-.05,4.12.25.35.07.63,0,.92.18.75.54.63,2.33.93,3.2a3.12,3.12,0,0,0,3.95,1.69,4.17,4.17,0,0,0,2.54-3.74,6.45,6.45,0,0,0-1.65-4.38A9.09,9.09,0,0,0,164,245.12Z" style="fill:#ffbf9d"></path><path d="M191.71,259.91c-.17,0,.5-3,.93-6.72a29.05,29.05,0,0,0,.17-4.75,15.6,15.6,0,0,1-.12-2,5.17,5.17,0,0,1,.49,2,20.72,20.72,0,0,1,0,4.85,37.11,37.11,0,0,1-.84,4.75A6.8,6.8,0,0,1,191.71,259.91Z" style="fill:#ff9a6c"></path><path d="M183.78,266.31a18.18,18.18,0,0,1,.44-2.84c.31-1.74.76-4.14,1.1-6.81a48.46,48.46,0,0,0,.42-6.88c0-1.76-.15-2.85-.07-2.86a10.25,10.25,0,0,1,.44,2.85,36.15,36.15,0,0,1-.28,7,65.37,65.37,0,0,1-1.25,6.83A14.34,14.34,0,0,1,183.78,266.31Z" style="fill:#ff9a6c"></path><path d="M177.07,267.46a28.68,28.68,0,0,1,.55-3.16,64.69,64.69,0,0,0,.91-7.66,63.45,63.45,0,0,0-.07-7.71,27.76,27.76,0,0,1-.2-3.2,3,3,0,0,1,.22.84c.11.54.23,1.34.35,2.33a47.52,47.52,0,0,1,.22,7.77,46.59,46.59,0,0,1-1.07,7.7c-.22,1-.43,1.75-.6,2.28A2.43,2.43,0,0,1,177.07,267.46Z" style="fill:#ff9a6c"></path><path d="M168.23,247.87a2.88,2.88,0,0,1,1.37.7,6.92,6.92,0,0,1,2.22,3,6,6,0,0,1,.3,3.7c-.29,1-.9,1.3-.92,1.24a5.09,5.09,0,0,0,.56-1.33,6.48,6.48,0,0,0-.42-3.42,7.86,7.86,0,0,0-2-2.88C168.7,248.23,168.19,248,168.23,247.87Z" style="fill:#ff9a6c"></path></g></svg>
