<?xml version="1.0" encoding="iso-8859-1"?>
<!-- Uploaded to: SVG Repo, www.svgrepo.com, Generator: SVG Repo Mixer Tools -->
<svg version="1.1" id="Layer_1" xmlns="http://www.w3.org/2000/svg" xmlns:xlink="http://www.w3.org/1999/xlink" 
	 viewBox="0 0 512 512" xml:space="preserve">
<rect x="18.1" y="15.51" style="fill:#FEE187;" width="294.307" height="76.326"/>
<g>
	<path style="fill:#FFC61B;" d="M312.405,107.347H18.1c-8.566,0-15.51-6.944-15.51-15.51V15.51C2.59,6.944,9.534,0,18.1,0h294.304
		c8.566,0,15.51,6.944,15.51,15.51v76.326C327.915,100.403,320.971,107.347,312.405,107.347z M33.611,76.326h263.284V31.021H33.611
		V76.326z"/>
	<path style="fill:#FFC61B;" d="M225.256,242.232H18.1c-8.566,0-15.51-6.944-15.51-15.51v-76.326c0-8.566,6.944-15.51,15.51-15.51
		h207.155c8.566,0,15.51,6.944,15.51,15.51v76.326C240.766,235.288,233.822,242.232,225.256,242.232z M33.611,211.211h176.135
		v-45.305H33.611V211.211z"/>
</g>
<rect x="18.1" y="285.28" style="fill:#FEE187;" width="475.793" height="76.326"/>
<g>
	<path style="fill:#FFC61B;" d="M493.9,377.117H18.1c-8.566,0-15.51-6.944-15.51-15.51V285.28c0-8.566,6.944-15.51,15.51-15.51
		H493.9c8.566,0,15.51,6.944,15.51,15.51v76.326C509.41,370.173,502.466,377.117,493.9,377.117z M33.611,346.096h444.779v-45.305
		H33.611V346.096z"/>
	<path style="fill:#FFC61B;" d="M386.441,512H18.1c-8.566,0-15.51-6.944-15.51-15.51v-76.326c0-8.566,6.944-15.51,15.51-15.51
		h210.755c8.566,0,15.51,6.944,15.51,15.51c0,8.566-6.944,15.51-15.51,15.51H33.611v45.305h337.32v-45.305h-55.994
		c-8.566,0-15.51-6.944-15.51-15.51c0-8.566,6.944-15.51,15.51-15.51h71.504c8.566,0,15.51,6.944,15.51,15.51v76.326
		C401.952,505.056,395.008,512,386.441,512z"/>
</g>
</svg>