<?xml version="1.0" encoding="utf-8"?>

<!DOCTYPE svg PUBLIC "-//W3C//DTD SVG 1.1//EN" "http://www.w3.org/Graphics/SVG/1.1/DTD/svg11.dtd">
<!-- Uploaded to: SVG Repo, www.svgrepo.com, Generator: SVG Repo Mixer Tools -->
<svg height="800px" width="800px" version="1.1" id="_x32_" xmlns="http://www.w3.org/2000/svg" xmlns:xlink="http://www.w3.org/1999/xlink" 
	 viewBox="0 0 512 512"  xml:space="preserve">
<style type="text/css">
	.st0{fill:#000000;}
</style>
<g>
	<path class="st0" d="M206.881,99.439c10.32,0,18.879-8.32,19.121-18.799v-0.4c0-1.199,0.078-2.4,0.238-3.52
		c0.082-1.361,0.32-2.56,0.721-3.84c3.201-12.961,15.041-22.64,29.119-22.64c4,0,7.762,0.801,11.281,2.24
		c10.879,4.4,18.64,15.199,18.64,27.76v0.4c0,1.199-0.082,2.4-0.242,3.52c-0.16,1.199-0.398,2.4-0.639,3.519
		c0,0.24-0.08,0.4-0.16,0.561c-3.362,12.879-15.041,22.4-29.041,22.4c-3.918,0-5.418-2.436-11.199-2.24
		c-4.971,0.168-7.92,5.039-7.92,8.48v45.44c0,2.32,0.479,4.639,1.28,6.721c5.519-0.721,11.519-1.121,18-1.121
		c6.402,0,12.402,0.4,17.84,1.121c0.801-2.082,1.281-4.4,1.281-6.721v-16.4c13.282-3.84,25.121-11.76,33.84-22.56
		c8.719-10.639,13.92-23.68,15.121-37.28c0.16-1.76,0.238-3.6,0.238-5.439v-0.4c0-31.039-20.8-57.36-49.199-65.6
		c-6.08-1.842-12.48-2.801-19.121-2.801c-6.719,0-13.199,0.959-19.28,2.801c-26.72,7.76-46.72,31.52-48.959,60.158
		c-0.16,1.762-0.242,3.602-0.242,5.442v0.4C187.842,91.119,196.4,99.439,206.881,99.439z"/>
	<path class="st0" d="M359.388,422.65l-1.492-1.703H154.111l-1.494,1.701c-9.896,11.289-18.476,21.029-26.228,29.775l-7.365,8.312
		h273.955l-7.363-8.31C377.668,443.455,368.844,433.435,359.388,422.65z"/>
	<path class="st0" d="M504.93,459.01c-22.496-28.07-139.623-162.756-180.084-203.445c-0.289-21.787-5.176-35.578-15.734-44.553
		c-10.57-8.982-26.951-15.932-53.112-15.932c-26.16,0-42.539,6.949-53.111,15.932c-10.558,8.974-15.445,22.766-15.734,44.553
		C146.689,296.258,29.564,430.943,7.072,459.01c-7.234,9.025-9.074,20.168-4.797,29.076c3.631,7.561,11.127,12.074,20.054,12.074
		c9.809,0,20.797-5.268,31.776-15.234C85.91,456.055,231.611,316.566,256,293.205c24.389,23.361,170.09,162.85,201.895,191.721
		c13.871,12.592,24.936,15.234,31.775,15.234h0.002c8.928,0,16.424-4.514,20.053-12.072
		C514.002,479.178,512.164,468.037,504.93,459.01z"/>
</g>
</svg>