<?xml version="1.0" encoding="iso-8859-1"?>
<!-- Uploaded to: SVG Repo, www.svgrepo.com, Generator: SVG Repo Mixer Tools -->
<svg height="800px" width="800px" version="1.1" id="Layer_1" xmlns="http://www.w3.org/2000/svg" xmlns:xlink="http://www.w3.org/1999/xlink" 
	 viewBox="0 0 508 508" xml:space="preserve">
<circle style="fill:#324A5E;" cx="254" cy="254" r="254"/>
<path style="fill:#FFFFFF;" d="M391.6,97.6H116.4c-10.4,0-18.8,8.4-18.8,18.8v274.8c0,10.4,8.4,18.8,18.8,18.8h274.8
	c10.4,0,18.8-8.4,18.8-18.8V116.4C410.4,106,402,97.6,391.6,97.6z"/>
<path style="fill:#4CDBC4;" d="M405.2,103.6L340,220l-127.6-75.2l26.4-47.2h152.4c0.4,0,0.4,0,0.8,0c0.8,0,1.2,0,2,0.4
	c0.4,0,0.8,0,0.8,0C398.8,98.8,402.4,100.8,405.2,103.6C404.8,103.2,404.8,103.2,405.2,103.6z"/>
<path style="fill:#84DBFF;" d="M234.8,97.6l-87.2,165.2l-50-38.8V116.4c0-10.4,8.4-18.8,18.8-18.8C116.4,97.6,234.8,97.6,234.8,97.6
	z"/>
<path style="fill:#E6E9EE;" d="M410.4,125.6l-81.2,141.6l81.2,46.8v34.8L314,293.6l-67.2,116.8H212l105.6-183.6l-100-57.6
	l-120,208.4v-60.8l126-219.2h34.8l-26,45.2l100,57.6l59.2-102.8l0,0c0.4,0,0.4,0,0.8,0c0.8,0,1.2,0,2,0.4c0.4,0,0.8,0,0.8,0
	c3.6,0.8,6.8,2.4,9.6,5.2c0.4,0.4,0.8,0.8,1.2,1.2c0.4,0.4,0.8,0.8,1.2,1.6c0.4,0.4,0.8,0.8,0.8,1.6c0.8,1.2,1.2,2.4,1.6,3.6
	c0,0.4,0.4,1.2,0.4,1.6c0,0.8,0.4,1.2,0.4,2s0,1.2,0,2V125.6z"/>
<polygon style="fill:#FFD05B;" points="364,410.4 304,410.4 97.6,242.8 97.6,194 "/>
<path style="fill:#FF7058;" d="M317.6,181.6c0,31.6-57.6,120.8-57.6,120.8s-57.2-89.2-57.2-120.8s25.6-57.6,57.6-57.6
	S317.6,149.6,317.6,181.6z"/>
<circle style="fill:#FFFFFF;" cx="260" cy="181.6" r="30.8"/>
</svg>